<svg width="354" height="245" viewBox="0 0 354 245" fill="none" xmlns="http://www.w3.org/2000/svg">
<path d="M116.886 0V11.5783H117.197C118.007 5.16668 121.928 0.311245 129.398 0.311245H132.697V43.2631H127.033V43.5744H144.338V43.2631H138.673V0.311245H141.972C149.442 0.311245 153.426 5.16668 154.173 11.5783H154.485V0H116.886Z" fill="white"/>
<path d="M200.521 0.311245V0H183.216V0.311245H188.881V21.0402H167.28V0.311245H172.945V0H155.702V0.311245H161.304V43.2631H155.702V43.5744H172.945V43.2631H167.28V21.3514H188.881V43.2631H183.216V43.5744H200.521V43.2631H194.857V0.311245H200.521Z" fill="white"/>
<path d="M235.553 30.1908C235.179 37.2872 231.818 43.2631 224.597 43.2631H213.33V20.729H217.065C223.477 20.729 225.655 24.0904 225.966 29.5683H226.278V11.5161H225.966C225.655 17.0563 223.477 20.4177 217.065 20.4177H213.33V0.311245H222.169C229.39 0.311245 232.627 4.60643 233.187 10.9558H233.499V0H201.752V0.311245H207.354V43.2631H201.752V43.5744H235.864V30.1908H235.553Z" fill="white"/>
<path d="M34.8296 89.9638C41.9883 89.3413 46.8437 86.4156 46.8437 80.3152C46.8437 72.4718 40.7433 69.8573 30.9702 69.8573H15.4079V70.1686H21.0725V113.12H15.4079V113.432H32.8376C44.1047 113.432 49.7071 108.452 49.7071 101.418C49.7071 94.0723 43.6067 90.4618 34.8296 89.9638ZM30.9702 70.1686C39.3115 70.1686 40.8678 74.526 40.8678 80.3152C40.8678 85.3574 38.689 89.9638 31.2814 89.9638H27.0485V70.1686H30.9702ZM32.5886 113.12H27.0485V90.2128H32.5886C40.9923 90.2128 43.1087 95.5662 43.1087 101.418C43.1087 106.46 42.424 113.12 32.5886 113.12Z" fill="white"/>
<path d="M85.3501 100.048C84.9766 107.145 81.6152 113.12 74.3943 113.12H63.1272V90.5863H66.8621C73.2738 90.5863 75.4525 93.9477 75.7637 99.4257H76.075V81.3734H75.7637C75.4525 86.9136 73.2738 90.2751 66.8621 90.2751H63.1272V70.1686H71.9665C79.1874 70.1686 82.4244 74.4638 82.9846 80.8132H83.2959V69.8573H51.5488V70.1686H57.1513V113.12H51.5488V113.432H85.6614V100.048H85.3501Z" fill="white"/>
<path d="M122.04 100.048C121.666 107.145 118.242 113.12 111.022 113.12H99.8167V70.1686H105.419V69.8573H88.1761V70.1686H93.8408V113.12H88.1761V113.432H122.351V100.048H122.04Z" fill="white"/>
<path d="M141.439 70.1686V69.8573H124.196V70.1686H129.86V113.12H124.196V113.432H141.439V113.12H135.836V70.1686H141.439Z" fill="white"/>
<path d="M176.509 100.048C176.135 107.145 172.774 113.12 165.553 113.12H154.286V90.5863H158.021C164.432 90.5863 166.611 93.9477 166.922 99.4257H167.233V81.3734H166.922C166.611 86.9136 164.432 90.2751 158.021 90.2751H154.286V70.1686H163.125C170.346 70.1686 173.583 74.4638 174.143 80.8132H174.454V69.8573H142.707V70.1686H148.31V113.12H142.707V113.432H176.82V100.048H176.509Z" fill="white"/>
<path d="M219.859 69.8573H210.957V70.1686H215.626L202.429 105.837L189.108 70.1686H194.71V69.8573H177.467V70.1686H183.132L199.379 113.805H199.815L215.937 70.1686H219.859V69.8573Z" fill="white"/>
<path d="M253.046 100.048C252.672 107.145 249.311 113.12 242.09 113.12H230.823V90.5863H234.558C240.97 90.5863 243.148 93.9477 243.459 99.4257H243.771V81.3734H243.459C243.148 86.9136 240.97 90.2751 234.558 90.2751H230.823V70.1686H239.662C246.883 70.1686 250.12 74.4638 250.68 80.8132H250.992V69.8573H219.245V70.1686H224.847V113.12H219.245V113.432H253.357V100.048H253.046Z" fill="white"/>
<path d="M298.388 111.502C298.077 111.938 296.583 113.618 294.529 113.618C291.043 113.618 290.42 110.631 290.42 103.908C290.42 94.8815 285.191 91.5823 276.601 90.9598C283.51 90.3995 288.49 87.2871 288.49 80.9377C288.49 73.032 282.141 69.8573 273.115 69.8573H255.872V70.1686H261.536V113.12H255.872V113.432H273.115V113.12H267.45V91.1465H272.679C279.402 91.1465 283.822 92.0803 283.822 101.044C283.822 112.187 286.872 114.303 293.159 114.303C296.894 114.303 298.388 112 298.575 111.751L298.388 111.502ZM267.45 90.8353V70.1686H273.177C280.771 70.1686 282.203 75.0863 282.203 80.9377C282.203 85.9799 280.709 90.8353 274.049 90.8353H267.45Z" fill="white"/>
<path d="M301.581 67.3051C299.9 67.3051 298.593 68.6124 298.593 70.2308C298.593 71.8493 299.9 73.1565 301.581 73.1565C302.701 73.1565 303.635 72.6586 304.133 71.9116C304.133 74.4015 302.141 78.51 298.717 80.4397L298.842 80.6887C302.577 78.6345 304.693 74.4638 304.693 70.9778C304.693 68.6124 303.448 67.3051 301.581 67.3051Z" fill="white"/>
<path d="M322.696 87.0381C313.794 83.6144 312.176 80.5019 312.176 77.0782C312.176 73.2188 315.164 69.5461 321.575 69.5461C328.236 69.5461 332.158 74.0903 333.901 81.0622H334.15V70.1063H333.838C333.34 71.1646 332.967 71.7871 331.348 71.7871C328.921 71.7871 326.991 69.2348 321.575 69.2348C313.981 69.2348 308.005 73.9658 308.005 80.3774C308.005 86.6646 311.74 89.5903 320.081 93.2008C327.551 96.5 333.652 98.3052 333.652 104.406C333.652 110.506 329.294 113.743 322.509 113.743C313.607 113.743 309.188 106.771 307.507 99.7992H307.196V113.681H307.507C307.943 112.622 308.69 111.44 310.308 111.44C313.172 111.44 317.342 114.054 322.509 114.054C332.344 114.054 338.32 108.95 338.32 101.604C338.32 95.753 335.519 92.0803 322.696 87.0381Z" fill="white"/>
<path d="M36.727 182.978L20.48 139.279H20.0442L3.92169 182.978H0V183.289H8.90162V182.978H4.29519L9.64861 168.349H25.3354L30.7511 182.978H25.1486V183.289H42.3916V182.978H36.727ZM9.77311 168.038L17.4298 147.247L25.2109 168.038H9.77311Z" fill="white"/>
<path d="M81.5376 139.715H69.9593V140.026H75.5617V169.408C75.5617 178.309 70.644 183.538 62.0536 183.538C54.4592 183.538 51.5335 178.434 51.5335 169.159V140.026H57.1359V139.715H39.8929V140.026H45.5576V169.159C45.5576 180.239 51.7825 183.912 61.4311 183.912C70.0215 183.912 75.8729 179.243 75.8729 169.408V140.026H81.5376V139.715Z" fill="white"/>
<path d="M83.3895 139.715V151.293H83.7007C84.51 144.881 88.4317 140.026 95.9016 140.026H99.2008V182.978H93.5361V183.289H110.841V182.978H105.177V140.026H108.476C115.946 140.026 119.93 144.881 120.677 151.293H120.988V139.715H83.3895Z" fill="white"/>
<path d="M167.025 140.026V139.715H149.719V140.026H155.384V160.755H133.784V140.026H139.448V139.715H122.205V140.026H127.808V182.978H122.205V183.289H139.448V182.978H133.784V161.066H155.384V182.978H149.719V183.289H167.025V182.978H161.36V140.026H167.025Z" fill="white"/>
<path d="M190.478 139.092C177.53 139.092 168.877 149.612 168.877 161.502C168.877 173.329 177.53 183.912 190.478 183.912C203.426 183.912 212.078 173.329 212.078 161.502C212.078 149.612 203.426 139.092 190.478 139.092ZM190.478 183.6C178.277 183.6 175.227 170.466 175.227 161.502C175.227 152.476 178.277 139.403 190.478 139.403C202.741 139.403 205.791 152.476 205.791 161.502C205.791 170.466 202.741 183.6 190.478 183.6Z" fill="white"/>
<path d="M256.456 181.359C256.145 181.795 254.651 183.476 252.597 183.476C249.111 183.476 248.488 180.488 248.488 173.765C248.488 164.739 243.259 161.44 234.669 160.817C241.579 160.257 246.559 157.144 246.559 150.795C246.559 142.889 240.209 139.715 231.183 139.715H213.94V140.026H219.605V182.978H213.94V183.289H231.183V182.978H225.518V161.004H230.747C237.47 161.004 241.89 161.938 241.89 170.901C241.89 182.044 244.94 184.161 251.227 184.161C254.962 184.161 256.456 181.857 256.643 181.608L256.456 181.359ZM225.518 160.693V140.026H231.245C238.84 140.026 240.271 144.944 240.271 150.795C240.271 155.837 238.777 160.693 232.117 160.693H225.518Z" fill="white"/>
<path d="M273.281 140.026V139.715H256.038V140.026H261.703V182.978H256.038V183.289H273.281V182.978H267.679V140.026H273.281Z" fill="white"/>
<path d="M274.55 139.715V151.293H274.861C275.671 144.881 279.592 140.026 287.062 140.026H290.361V182.978H284.697V183.289H302.002V182.978H296.337V140.026H299.637C307.106 140.026 311.09 144.881 311.837 151.293H312.149V139.715H274.55Z" fill="white"/>
<path d="M343.418 139.715V140.026H348.833L336.882 162.56L324.058 140.026H329.412V139.715H312.106V140.026H317.086L331.155 164.677V182.978H325.49V183.289H342.733V182.978H337.068V162.747L349.145 140.026H354V139.715H343.418Z" fill="white"/>
<path d="M38.0911 223.507C40.9273 223.507 42.7139 221.486 42.7139 218.929C42.7139 216.371 40.9831 214.752 38.2027 214.752C34.8529 214.752 33.5911 217.22 33.5911 219.13C33.5911 221.106 34.8864 223.507 38.0911 223.507ZM38.56 222.948C36.4161 222.948 35.132 221.106 35.132 218.783C35.132 216.003 36.5948 215.288 37.8789 215.288C39.7102 215.288 41.1506 216.84 41.1506 219.342C41.1506 222.569 39.3417 222.948 38.56 222.948Z" fill="white"/>
<path d="M49.7347 222.826C49.9468 223.35 50.0138 223.507 50.159 223.507C50.3153 223.507 50.3823 223.328 50.6726 222.68C50.9183 222.122 51.4431 220.905 52.1577 219.275C52.7607 217.901 53.0622 217.298 53.4977 216.249C53.7992 215.534 53.9667 215.344 54.1118 215.244C54.3128 215.11 54.5473 215.11 54.659 215.11C54.7706 215.11 54.8376 215.087 54.8376 215.009C54.8376 214.931 54.7483 214.909 54.6031 214.909C54.2682 214.909 53.7433 214.942 53.5535 214.942C53.4084 214.942 52.9394 214.909 52.3811 214.909C52.1689 214.909 52.0684 214.931 52.0684 215.02C52.0684 215.099 52.1577 215.11 52.2582 215.11C52.4034 215.11 52.5709 215.121 52.7049 215.166C52.8054 215.199 52.8501 215.288 52.8501 215.378C52.8501 215.478 52.8054 215.646 52.7496 215.791C52.4816 216.528 51.03 220.123 50.5498 221.352H50.5052L48.5846 216.282C48.4282 215.88 48.3277 215.567 48.3277 215.422C48.3277 215.322 48.3612 215.244 48.4394 215.188C48.5287 215.121 48.6962 215.11 48.8749 215.11C48.9754 215.11 49.0424 215.087 49.0424 215.009C49.0424 214.931 48.9196 214.909 48.7856 214.909C48.2272 214.909 47.6913 214.942 47.4121 214.942C47.0213 214.942 46.3848 214.909 45.793 214.909C45.6255 214.909 45.5027 214.92 45.5027 215.009C45.5027 215.076 45.5362 215.11 45.6367 215.11C45.726 215.11 45.9047 215.11 46.0722 215.154C46.4742 215.266 46.664 215.389 46.9208 216.003L49.7347 222.826Z" fill="white"/>
<path d="M58.8199 220.112C58.8199 221.139 58.8199 222.022 58.764 222.491C58.7194 222.814 58.6635 223.06 58.4402 223.105C58.3397 223.127 58.2057 223.149 58.0382 223.149C57.9042 223.149 57.8596 223.183 57.8596 223.239C57.8596 223.317 57.9377 223.35 58.0829 223.35C58.3062 223.35 58.5965 223.328 58.8534 223.328C59.1213 223.317 59.367 223.317 59.4898 223.317C59.8248 223.317 60.171 223.328 60.6511 223.35C61.1313 223.361 61.7454 223.384 62.5829 223.384C63.0072 223.384 63.1077 223.384 63.1858 223.094C63.2417 222.87 63.331 222.111 63.331 221.854C63.331 221.742 63.331 221.653 63.2417 221.653C63.1635 221.653 63.1412 221.698 63.1188 221.821C63.0407 222.278 62.9067 222.513 62.6164 222.647C62.326 222.781 61.8571 222.781 61.5667 222.781C60.4278 222.781 60.2491 222.613 60.2268 221.843C60.2156 221.519 60.2268 220.492 60.2268 220.112V219.23C60.2268 219.163 60.238 219.118 60.2938 219.118C60.5618 219.118 61.6672 219.13 61.8794 219.152C62.2925 219.197 62.4489 219.364 62.5047 219.587C62.5382 219.732 62.5382 219.878 62.5494 219.989C62.5494 220.045 62.5717 220.09 62.6499 220.09C62.7504 220.09 62.7504 219.967 62.7504 219.878C62.7504 219.799 62.7839 219.353 62.795 219.13C62.8397 218.56 62.8844 218.381 62.8844 218.314C62.8844 218.247 62.8509 218.225 62.8062 218.225C62.7504 218.225 62.7057 218.281 62.6275 218.37C62.527 218.482 62.3595 218.515 62.0916 218.538C61.8347 218.56 60.5506 218.56 60.305 218.56C60.238 218.56 60.2268 218.515 60.2268 218.437V215.612C60.2268 215.534 60.2491 215.5 60.305 215.5C60.5283 215.5 61.7007 215.523 61.8906 215.545C62.4489 215.612 62.5605 215.746 62.6387 215.947C62.6945 216.081 62.7057 216.271 62.7057 216.349C62.7057 216.45 62.728 216.505 62.8062 216.505C62.8844 216.505 62.9067 216.438 62.9179 216.383C62.9402 216.249 62.9625 215.757 62.9737 215.646C63.0072 215.132 63.063 214.998 63.063 214.92C63.063 214.864 63.0518 214.819 62.996 214.819C62.9402 214.819 62.8732 214.853 62.8174 214.864C62.728 214.886 62.5494 214.909 62.3372 214.931C62.1251 214.942 59.903 214.942 59.5457 214.942C59.3893 214.942 59.1325 214.931 58.8422 214.92C58.563 214.92 58.2392 214.909 57.9377 214.909C57.7702 214.909 57.6921 214.931 57.6921 215.009C57.6921 215.087 57.7591 215.11 57.8819 215.11C58.0382 215.11 58.2281 215.121 58.3174 215.143C58.6859 215.221 58.7752 215.4 58.7975 215.78C58.8199 216.137 58.8199 216.45 58.8199 218.147V220.112Z" fill="white"/>
<path d="M68.6666 220.112C68.6666 221.139 68.6666 222.022 68.6108 222.491C68.5661 222.814 68.5103 223.06 68.287 223.105C68.1865 223.127 68.0525 223.149 67.885 223.149C67.751 223.149 67.7063 223.183 67.7063 223.239C67.7063 223.317 67.7845 223.35 67.9296 223.35C68.3763 223.35 69.0798 223.317 69.2919 223.317C69.4594 223.317 70.2857 223.35 70.9333 223.35C71.0785 223.35 71.1567 223.317 71.1567 223.239C71.1567 223.183 71.112 223.149 71.0227 223.149C70.8887 223.149 70.643 223.127 70.4755 223.105C70.1405 223.06 70.0735 222.814 70.04 222.491C69.9842 222.022 69.9842 221.139 69.9842 220.101V219.945C69.9842 219.878 70.0177 219.855 70.0735 219.855L71.045 219.878C71.1232 219.878 71.1902 219.889 71.246 219.956C71.3912 220.123 71.9048 220.883 72.3515 221.497C72.9768 222.357 73.4011 222.881 73.8812 223.138C74.1715 223.294 74.4507 223.35 75.076 223.35H76.1368C76.2708 223.35 76.3489 223.328 76.3489 223.239C76.3489 223.183 76.3043 223.149 76.215 223.149C76.1256 223.149 76.0251 223.138 75.9023 223.116C75.7348 223.082 75.277 223.004 74.6517 222.357C73.9929 221.664 73.2224 220.67 72.2286 219.42C73.3564 218.504 73.7026 217.745 73.7026 216.919C73.7026 216.17 73.2559 215.601 72.9433 215.389C72.3403 214.976 71.5922 214.909 70.8887 214.909C70.5425 214.909 69.6939 214.942 69.3142 214.942C69.0798 214.942 68.3763 214.909 67.7845 214.909C67.617 214.909 67.5388 214.931 67.5388 215.009C67.5388 215.087 67.6058 215.11 67.7286 215.11C67.885 215.11 68.0748 215.121 68.1641 215.143C68.5326 215.221 68.6219 215.4 68.6443 215.78C68.6666 216.137 68.6666 216.45 68.6666 218.147V220.112ZM69.9842 215.634C69.9842 215.545 70.0066 215.5 70.0847 215.478C70.1964 215.445 70.3974 215.434 70.6765 215.434C71.3353 215.434 72.3849 215.891 72.3849 217.477C72.3849 218.393 72.0611 218.906 71.7261 219.152C71.5251 219.297 71.38 219.342 70.9333 219.342C70.6542 219.342 70.3192 219.308 70.0847 219.23C70.0066 219.197 69.9842 219.152 69.9842 219.029V215.634Z" fill="white"/>
<path d="M83.8303 223.507C84.5449 223.507 85.3936 223.428 85.8402 223.25C86.03 223.172 86.0747 223.116 86.1305 222.926C86.2422 222.546 86.3762 221.575 86.3762 221.441C86.3762 221.352 86.3539 221.273 86.2757 221.273C86.1864 221.273 86.164 221.318 86.1305 221.497C86.0859 221.698 85.9407 222.022 85.7509 222.234C85.3042 222.747 84.7013 222.859 83.7075 222.859C82.2112 222.859 80.1901 221.541 80.1901 218.884C80.1901 217.801 80.4023 216.74 81.2174 215.992C81.7087 215.545 82.3452 215.299 83.3167 215.299C84.3439 215.299 85.2149 215.601 85.5834 215.992C85.8625 216.282 86.0077 216.673 86.0189 217.019C86.0189 217.175 86.0412 217.265 86.1305 217.265C86.231 217.265 86.2534 217.175 86.2645 217.008C86.2869 216.785 86.2757 216.17 86.298 215.802C86.3204 215.411 86.3539 215.277 86.3539 215.188C86.3539 215.121 86.3092 215.065 86.1864 215.054C85.8514 215.02 85.4941 214.92 85.0697 214.864C84.5561 214.797 84.1429 214.752 83.4506 214.752C81.7869 214.752 80.7261 215.199 79.9221 215.936C78.8502 216.919 78.6157 218.236 78.6157 218.996C78.6157 220.079 78.906 221.329 80.0003 222.29C81.0164 223.172 82.3005 223.507 83.8303 223.507Z" fill="white"/>
<path d="M94.838 223.507C97.6742 223.507 99.4608 221.486 99.4608 218.929C99.4608 216.371 97.73 214.752 94.9496 214.752C91.5998 214.752 90.338 217.22 90.338 219.13C90.338 221.106 91.6333 223.507 94.838 223.507ZM95.307 222.948C93.163 222.948 91.8789 221.106 91.8789 218.783C91.8789 216.003 93.3417 215.288 94.6258 215.288C96.4571 215.288 97.8975 216.84 97.8975 219.342C97.8975 222.569 96.0886 222.948 95.307 222.948Z" fill="white"/>
<path d="M103.948 222.234C103.892 222.613 103.803 223.049 103.49 223.116C103.323 223.149 103.245 223.149 103.155 223.149C103.044 223.149 102.977 223.172 102.977 223.227C102.977 223.328 103.066 223.35 103.178 223.35C103.535 223.35 104.071 223.317 104.283 223.317C104.484 223.317 104.987 223.35 105.456 223.35C105.623 223.35 105.724 223.328 105.724 223.227C105.724 223.172 105.645 223.149 105.556 223.149C105.444 223.149 105.288 223.138 105.087 223.094C104.897 223.049 104.752 222.948 104.752 222.736C104.752 222.558 104.763 222.412 104.786 222.211L105.366 217.767H105.411C105.802 218.605 106.472 220.012 106.572 220.246C106.706 220.559 107.588 222.267 107.856 222.781C108.035 223.116 108.147 223.339 108.247 223.339C108.348 223.339 108.403 223.239 108.66 222.714L111.095 217.644H111.139L111.809 222.558C111.854 222.87 111.82 223.015 111.753 223.038C111.675 223.071 111.631 223.105 111.631 223.161C111.631 223.228 111.698 223.261 111.954 223.283C112.401 223.317 113.942 223.35 114.221 223.35C114.377 223.35 114.511 223.317 114.511 223.227C114.511 223.16 114.433 223.149 114.333 223.149C114.188 223.149 113.964 223.138 113.64 223.038C113.305 222.937 113.194 222.613 113.093 221.91L112.077 215.009C112.044 214.775 111.977 214.663 111.876 214.663C111.776 214.663 111.72 214.752 111.631 214.931L108.593 221.307L105.545 215.009C105.4 214.719 105.333 214.663 105.243 214.663C105.154 214.663 105.087 214.764 105.054 214.953L103.948 222.234Z" fill="white"/>
<path d="M119.078 220.112C119.078 221.195 119.078 222.077 119.022 222.546C118.989 222.87 118.922 223.06 118.698 223.105C118.598 223.127 118.464 223.149 118.296 223.149C118.162 223.149 118.118 223.183 118.118 223.239C118.118 223.317 118.196 223.35 118.341 223.35C118.788 223.35 119.491 223.317 119.748 223.317C120.049 223.317 120.753 223.35 121.49 223.35C121.613 223.35 121.702 223.317 121.702 223.239C121.702 223.183 121.646 223.149 121.523 223.149C121.356 223.149 121.11 223.127 120.954 223.105C120.619 223.06 120.541 222.859 120.507 222.558C120.463 222.077 120.463 221.195 120.463 220.112V218.147C120.463 216.45 120.463 216.137 120.485 215.78C120.507 215.389 120.597 215.199 120.898 215.143C121.032 215.121 121.121 215.11 121.233 215.11C121.345 215.11 121.412 215.087 121.412 214.998C121.412 214.931 121.322 214.909 121.177 214.909C120.753 214.909 120.094 214.942 119.815 214.942C119.491 214.942 118.788 214.909 118.363 214.909C118.185 214.909 118.095 214.931 118.095 214.998C118.095 215.087 118.162 215.11 118.274 215.11C118.408 215.11 118.553 215.121 118.676 215.154C118.922 215.21 119.033 215.4 119.056 215.78C119.078 216.137 119.078 216.45 119.078 218.147V220.112Z" fill="white"/>
<path d="M127.421 217.142H127.454C127.655 217.354 128.895 218.75 130.112 219.956C131.273 221.106 132.702 222.569 133.406 223.239C133.529 223.361 133.663 223.484 133.786 223.484C133.886 223.484 133.931 223.384 133.931 223.138L134.054 216.092C134.065 215.467 134.154 215.233 134.467 215.143C134.601 215.11 134.69 215.11 134.802 215.11C134.936 215.11 135.003 215.076 135.003 215.009C135.003 214.92 134.891 214.909 134.746 214.909C134.199 214.909 133.774 214.942 133.652 214.942C133.417 214.942 132.881 214.909 132.3 214.909C132.133 214.909 132.01 214.92 132.01 215.009C132.01 215.076 132.055 215.11 132.189 215.11C132.345 215.11 132.613 215.11 132.781 215.177C133.049 215.288 133.149 215.501 133.16 216.182L133.272 221.195H133.216C133.026 221.017 131.519 219.409 130.76 218.649C129.129 217.03 127.432 215.21 127.298 215.065C127.108 214.864 127.008 214.719 126.885 214.719C126.773 214.719 126.74 214.875 126.74 215.099L126.639 221.709C126.628 222.68 126.583 223.004 126.293 223.094C126.137 223.138 125.936 223.149 125.791 223.149C125.679 223.149 125.612 223.172 125.612 223.239C125.612 223.339 125.712 223.35 125.858 223.35C126.438 223.35 126.963 223.317 127.064 223.317C127.276 223.317 127.722 223.35 128.448 223.35C128.604 223.35 128.705 223.328 128.705 223.239C128.705 223.172 128.638 223.149 128.515 223.149C128.336 223.149 128.124 223.138 127.934 223.071C127.711 222.993 127.566 222.703 127.544 221.832L127.421 217.142Z" fill="white"/>
<path d="M146.956 221.374C146.956 220.816 146.956 220.369 146.967 220.034C146.978 219.643 147.09 219.453 147.392 219.397C147.526 219.375 147.604 219.364 147.693 219.364C147.771 219.364 147.838 219.342 147.838 219.275C147.838 219.185 147.76 219.163 147.615 219.163C147.246 219.163 146.655 219.197 146.308 219.197C145.973 219.197 145.27 219.163 144.689 219.163C144.533 219.163 144.455 219.185 144.455 219.275C144.455 219.342 144.522 219.364 144.622 219.364C144.779 219.364 144.968 219.375 145.058 219.397C145.426 219.476 145.527 219.654 145.538 220.034C145.549 220.369 145.549 220.793 145.549 221.352V222.401C145.549 222.591 145.504 222.736 145.337 222.814C145.069 222.937 144.678 222.937 144.388 222.937C142.032 222.937 140.502 221.139 140.502 218.739C140.502 217.365 140.904 216.528 141.529 216.003C142.311 215.355 143.126 215.311 143.74 215.311C145.002 215.311 145.895 215.824 146.23 216.182C146.521 216.494 146.576 216.852 146.61 217.108C146.621 217.198 146.643 217.254 146.722 217.254C146.811 217.254 146.844 217.198 146.844 217.019C146.844 215.623 146.923 215.311 146.923 215.188C146.923 215.11 146.9 215.065 146.766 215.054C146.509 215.043 146.119 214.976 145.884 214.931C145.661 214.886 144.678 214.752 143.908 214.752C142.97 214.752 141.976 214.831 140.904 215.478C139.888 216.092 138.961 217.343 138.961 219.13C138.961 222.211 141.384 223.507 144.12 223.507C144.991 223.507 146.085 223.384 146.811 223.004C146.945 222.926 146.956 222.904 146.956 222.602V221.374Z" fill="white"/>
<path d="M160.395 218.147C160.395 216.45 160.395 216.137 160.417 215.78C160.44 215.389 160.529 215.199 160.831 215.143C160.965 215.121 161.143 215.11 161.266 215.11C161.4 215.11 161.467 215.087 161.467 215.009C161.467 214.931 161.389 214.909 161.233 214.909C160.797 214.909 159.982 214.942 159.714 214.942C159.412 214.942 158.709 214.909 158.184 214.909C158.017 214.909 157.939 214.931 157.939 215.009C157.939 215.087 158.006 215.11 158.128 215.11C158.274 215.11 158.408 215.121 158.497 215.143C158.865 215.221 158.955 215.4 158.977 215.78C158.999 216.137 158.999 216.45 158.999 218.147V220.112C158.999 221.139 158.999 222.022 158.943 222.491C158.899 222.814 158.843 223.06 158.62 223.105C158.519 223.127 158.385 223.149 158.218 223.149C158.084 223.149 158.039 223.183 158.039 223.239C158.039 223.317 158.117 223.35 158.262 223.35C158.486 223.35 158.776 223.328 159.033 223.328C159.301 223.317 159.546 223.317 159.669 223.317C160.127 223.317 160.529 223.328 161.032 223.35C161.534 223.361 162.115 223.384 162.919 223.384C163.499 223.384 163.555 223.328 163.622 223.082C163.711 222.759 163.79 221.921 163.79 221.798C163.79 221.664 163.778 221.608 163.7 221.608C163.611 221.608 163.589 221.675 163.577 221.776C163.555 221.988 163.421 222.301 163.287 222.446C163.008 222.747 162.573 222.759 161.981 222.759C161.11 222.759 160.819 222.68 160.63 222.513C160.395 222.312 160.395 221.541 160.395 220.112V218.147Z" fill="white"/>
<path d="M168.552 220.112C168.552 221.195 168.552 222.077 168.496 222.546C168.462 222.87 168.395 223.06 168.172 223.105C168.072 223.127 167.938 223.149 167.77 223.149C167.636 223.149 167.591 223.183 167.591 223.239C167.591 223.317 167.67 223.35 167.815 223.35C168.261 223.35 168.965 223.317 169.222 223.317C169.523 223.317 170.227 223.35 170.964 223.35C171.086 223.35 171.176 223.317 171.176 223.239C171.176 223.183 171.12 223.149 170.997 223.149C170.83 223.149 170.584 223.127 170.428 223.105C170.093 223.06 170.014 222.859 169.981 222.558C169.936 222.077 169.936 221.195 169.936 220.112V218.147C169.936 216.45 169.936 216.137 169.959 215.78C169.981 215.389 170.07 215.199 170.372 215.143C170.506 215.121 170.595 215.11 170.707 215.11C170.818 215.11 170.885 215.087 170.885 214.998C170.885 214.931 170.796 214.909 170.651 214.909C170.227 214.909 169.568 214.942 169.289 214.942C168.965 214.942 168.261 214.909 167.837 214.909C167.658 214.909 167.569 214.931 167.569 214.998C167.569 215.087 167.636 215.11 167.748 215.11C167.882 215.11 168.027 215.121 168.15 215.154C168.395 215.21 168.507 215.4 168.529 215.78C168.552 216.137 168.552 216.45 168.552 218.147V220.112Z" fill="white"/>
<path d="M177.799 219.208C177.799 219.13 177.821 219.107 177.877 219.107C178.067 219.107 179.251 219.107 179.53 219.141C179.876 219.185 180.043 219.386 180.099 219.543C180.144 219.677 180.166 219.811 180.166 219.889C180.166 219.967 180.188 220.045 180.255 220.045C180.367 220.045 180.367 219.933 180.367 219.833C180.367 219.755 180.389 219.241 180.412 219.018C180.445 218.672 180.501 218.393 180.501 218.326C180.501 218.259 180.479 218.225 180.434 218.225C180.367 218.225 180.345 218.27 180.289 218.337C180.177 218.482 180.021 218.527 179.809 218.538C179.652 218.549 179.496 218.549 179.306 218.549L177.877 218.56C177.81 218.56 177.799 218.527 177.799 218.46V215.668C177.799 215.545 177.832 215.512 177.899 215.512L179.619 215.545C180.043 215.556 180.278 215.724 180.356 215.88C180.423 216.036 180.423 216.215 180.423 216.304C180.434 216.427 180.456 216.483 180.535 216.483C180.613 216.483 180.635 216.416 180.646 216.327C180.669 216.193 180.691 215.534 180.702 215.422C180.736 215.132 180.791 214.998 180.791 214.92C180.791 214.864 180.758 214.819 180.713 214.819C180.657 214.819 180.602 214.864 180.535 214.886C180.423 214.92 180.289 214.92 180.077 214.931C179.82 214.942 177.553 214.942 177.129 214.942C176.973 214.942 176.716 214.931 176.425 214.92C176.135 214.92 175.811 214.909 175.521 214.909C175.354 214.909 175.264 214.931 175.264 215.02C175.264 215.087 175.342 215.11 175.454 215.11C175.61 215.11 175.8 215.121 175.889 215.143C176.258 215.221 176.347 215.4 176.37 215.78C176.392 216.137 176.392 216.45 176.392 218.147V220.112C176.392 221.184 176.392 222.022 176.336 222.491C176.291 222.814 176.236 223.06 176.012 223.105C175.912 223.127 175.778 223.149 175.61 223.149C175.488 223.149 175.443 223.183 175.443 223.239C175.443 223.328 175.521 223.35 175.677 223.35C176.102 223.35 176.805 223.317 177.095 223.317C177.386 223.317 178.089 223.35 178.793 223.35C178.96 223.35 179.038 223.317 179.038 223.239C179.038 223.183 178.994 223.149 178.849 223.149C178.692 223.149 178.447 223.127 178.29 223.105C177.955 223.06 177.888 222.814 177.855 222.491C177.799 222.022 177.799 221.184 177.799 220.112V219.208Z" fill="white"/>
<path d="M186.13 220.112C186.13 221.139 186.13 222.022 186.074 222.491C186.029 222.814 185.973 223.06 185.75 223.105C185.65 223.127 185.516 223.149 185.348 223.149C185.214 223.149 185.169 223.183 185.169 223.239C185.169 223.317 185.248 223.35 185.393 223.35C185.616 223.35 185.906 223.328 186.163 223.328C186.431 223.317 186.677 223.317 186.8 223.317C187.135 223.317 187.481 223.328 187.961 223.35C188.441 223.361 189.055 223.384 189.893 223.384C190.317 223.384 190.417 223.384 190.496 223.094C190.551 222.87 190.641 222.111 190.641 221.854C190.641 221.742 190.641 221.653 190.551 221.653C190.473 221.653 190.451 221.698 190.429 221.821C190.351 222.278 190.216 222.513 189.926 222.647C189.636 222.781 189.167 222.781 188.877 222.781C187.738 222.781 187.559 222.613 187.537 221.843C187.525 221.519 187.537 220.492 187.537 220.112V219.23C187.537 219.163 187.548 219.118 187.604 219.118C187.872 219.118 188.977 219.13 189.189 219.152C189.602 219.197 189.759 219.364 189.815 219.587C189.848 219.732 189.848 219.878 189.859 219.989C189.859 220.045 189.882 220.09 189.96 220.09C190.06 220.09 190.06 219.967 190.06 219.878C190.06 219.799 190.094 219.353 190.105 219.13C190.15 218.56 190.194 218.381 190.194 218.314C190.194 218.247 190.161 218.225 190.116 218.225C190.06 218.225 190.016 218.281 189.937 218.37C189.837 218.482 189.669 218.515 189.401 218.538C189.145 218.56 187.86 218.56 187.615 218.56C187.548 218.56 187.537 218.515 187.537 218.437V215.612C187.537 215.534 187.559 215.5 187.615 215.5C187.838 215.5 189.011 215.523 189.2 215.545C189.759 215.612 189.87 215.746 189.949 215.947C190.004 216.081 190.016 216.271 190.016 216.349C190.016 216.45 190.038 216.505 190.116 216.505C190.194 216.505 190.217 216.438 190.228 216.383C190.25 216.249 190.272 215.757 190.284 215.646C190.317 215.132 190.373 214.998 190.373 214.92C190.373 214.864 190.362 214.819 190.306 214.819C190.25 214.819 190.183 214.853 190.127 214.864C190.038 214.886 189.859 214.909 189.647 214.931C189.435 214.942 187.213 214.942 186.855 214.942C186.699 214.942 186.442 214.931 186.152 214.92C185.873 214.92 185.549 214.909 185.248 214.909C185.08 214.909 185.002 214.931 185.002 215.009C185.002 215.087 185.069 215.11 185.192 215.11C185.348 215.11 185.538 215.121 185.627 215.143C185.996 215.221 186.085 215.4 186.107 215.78C186.13 216.137 186.13 216.45 186.13 218.147V220.112Z" fill="white"/>
<path d="M195.117 215.221C195.117 215.914 194.882 216.572 194.681 216.963C194.636 217.053 194.625 217.086 194.625 217.108C194.625 217.153 194.659 217.175 194.692 217.175C194.759 217.175 194.804 217.153 194.871 217.086C195.373 216.572 196.099 215.378 196.099 214.697C196.099 214.529 196.055 214.451 195.775 214.373C195.563 214.306 195.072 214.161 194.849 214.161C194.793 214.161 194.726 214.216 194.726 214.25C194.726 214.306 194.737 214.339 194.849 214.451C194.949 214.551 195.117 214.853 195.117 215.221Z" fill="white"/>
<path d="M201.66 223.507C202.251 223.507 202.877 223.406 203.435 223.049C204.239 222.524 204.485 221.754 204.485 221.106C204.485 220.045 204.005 219.275 202.653 218.259L202.341 218.024C201.414 217.321 201.157 216.93 201.157 216.416C201.157 215.746 201.66 215.266 202.486 215.266C203.212 215.266 203.536 215.601 203.703 215.813C203.938 216.103 203.993 216.45 203.993 216.55C203.993 216.684 204.027 216.751 204.105 216.751C204.194 216.751 204.228 216.662 204.228 216.416C204.228 215.545 204.273 215.221 204.273 215.076C204.273 214.998 204.217 214.965 204.116 214.942C203.826 214.864 203.357 214.752 202.631 214.752C201.079 214.752 200.052 215.634 200.052 216.863C200.052 217.767 200.476 218.549 201.704 219.509L202.218 219.911C203.145 220.637 203.312 221.151 203.312 221.698C203.312 222.29 202.821 222.971 201.816 222.971C201.124 222.971 200.465 222.669 200.219 221.843C200.163 221.653 200.119 221.419 200.119 221.273C200.119 221.184 200.108 221.084 200.007 221.084C199.918 221.084 199.884 221.206 199.873 221.374C199.862 221.553 199.817 222.223 199.817 222.837C199.817 223.082 199.851 223.138 200.029 223.216C200.51 223.428 201.012 223.507 201.66 223.507Z" fill="white"/>
<path d="M220.071 223.507C220.786 223.507 221.634 223.428 222.081 223.25C222.271 223.172 222.315 223.116 222.371 222.926C222.483 222.546 222.617 221.575 222.617 221.441C222.617 221.352 222.594 221.273 222.516 221.273C222.427 221.273 222.405 221.318 222.371 221.497C222.326 221.698 222.181 222.022 221.991 222.234C221.545 222.747 220.942 222.859 219.948 222.859C218.452 222.859 216.431 221.541 216.431 218.884C216.431 217.801 216.643 216.74 217.458 215.992C217.949 215.545 218.586 215.299 219.557 215.299C220.585 215.299 221.455 215.601 221.824 215.992C222.103 216.282 222.248 216.673 222.259 217.019C222.259 217.175 222.282 217.265 222.371 217.265C222.472 217.265 222.494 217.175 222.505 217.008C222.527 216.785 222.516 216.17 222.539 215.802C222.561 215.411 222.594 215.277 222.594 215.188C222.594 215.121 222.55 215.065 222.427 215.054C222.092 215.02 221.735 214.92 221.31 214.864C220.797 214.797 220.384 214.752 219.691 214.752C218.027 214.752 216.967 215.199 216.163 215.936C215.091 216.919 214.856 218.236 214.856 218.996C214.856 220.079 215.147 221.329 216.241 222.29C217.257 223.172 218.541 223.507 220.071 223.507Z" fill="white"/>
<path d="M229.258 218.46C229.225 218.46 229.191 218.437 229.191 218.381V218.147C229.191 216.45 229.191 216.137 229.214 215.78C229.236 215.389 229.325 215.199 229.627 215.143C229.761 215.121 229.861 215.11 229.951 215.11C230.085 215.11 230.152 215.087 230.152 215.009C230.152 214.931 230.074 214.909 229.917 214.909C229.482 214.909 228.778 214.942 228.51 214.942C228.209 214.942 227.505 214.909 226.902 214.909C226.746 214.909 226.668 214.931 226.668 215.009C226.668 215.087 226.735 215.11 226.858 215.11C227.014 215.11 227.204 215.121 227.293 215.143C227.662 215.221 227.751 215.4 227.773 215.78C227.796 216.137 227.796 216.45 227.796 218.147V220.112C227.796 221.139 227.796 222.022 227.74 222.491C227.695 222.814 227.639 223.06 227.416 223.105C227.316 223.127 227.182 223.149 227.014 223.149C226.88 223.149 226.835 223.183 226.835 223.239C226.835 223.317 226.914 223.35 227.059 223.35C227.505 223.35 228.209 223.317 228.466 223.317C228.778 223.317 229.482 223.35 230.208 223.35C230.342 223.35 230.431 223.317 230.431 223.239C230.431 223.183 230.375 223.149 230.252 223.149C230.085 223.149 229.839 223.127 229.683 223.105C229.348 223.06 229.281 222.814 229.247 222.502C229.191 222.022 229.191 221.139 229.191 220.112V219.13C229.191 219.074 229.225 219.063 229.258 219.063H233.524C233.557 219.063 233.591 219.085 233.591 219.13V220.112C233.591 221.139 233.591 222.022 233.535 222.491C233.49 222.814 233.435 223.06 233.211 223.105C233.111 223.127 232.977 223.149 232.809 223.149C232.675 223.149 232.631 223.183 232.631 223.239C232.631 223.317 232.709 223.35 232.865 223.35C233.301 223.35 234.004 223.317 234.261 223.317C234.574 223.317 235.277 223.35 236.003 223.35C236.137 223.35 236.226 223.317 236.226 223.239C236.226 223.183 236.17 223.149 236.048 223.149C235.88 223.149 235.634 223.127 235.478 223.105C235.143 223.06 235.076 222.814 235.043 222.502C234.987 222.022 234.987 221.139 234.987 220.112V218.147C234.987 216.45 234.987 216.137 235.009 215.78C235.031 215.389 235.121 215.199 235.422 215.143C235.556 215.121 235.657 215.11 235.746 215.11C235.88 215.11 235.947 215.087 235.947 215.009C235.947 214.931 235.869 214.909 235.713 214.909C235.277 214.909 234.574 214.942 234.306 214.942C234.004 214.942 233.301 214.909 232.698 214.909C232.541 214.909 232.463 214.931 232.463 215.009C232.463 215.087 232.53 215.11 232.653 215.11C232.809 215.11 232.999 215.121 233.088 215.143C233.457 215.221 233.546 215.4 233.569 215.78C233.591 216.137 233.591 216.45 233.591 218.147V218.381C233.591 218.437 233.557 218.46 233.524 218.46H229.258Z" fill="white"/>
<path d="M244.374 220.436C244.43 220.436 244.463 220.458 244.486 220.514L245.379 222.881C245.435 223.015 245.357 223.116 245.278 223.138C245.167 223.149 245.122 223.172 245.122 223.239C245.122 223.317 245.256 223.317 245.457 223.328C246.35 223.35 247.165 223.35 247.567 223.35C247.981 223.35 248.081 223.328 248.081 223.239C248.081 223.16 248.025 223.149 247.936 223.149C247.802 223.149 247.634 223.138 247.467 223.105C247.232 223.049 246.909 222.893 246.484 221.888C245.77 220.19 243.983 215.634 243.715 215.02C243.603 214.764 243.536 214.663 243.436 214.663C243.324 214.663 243.257 214.786 243.123 215.11L240.321 222.122C240.097 222.68 239.885 223.06 239.371 223.127C239.282 223.138 239.126 223.149 239.025 223.149C238.936 223.149 238.891 223.172 238.891 223.239C238.891 223.328 238.958 223.35 239.103 223.35C239.684 223.35 240.298 223.317 240.421 223.317C240.767 223.317 241.247 223.35 241.605 223.35C241.728 223.35 241.795 223.328 241.795 223.239C241.795 223.172 241.761 223.149 241.627 223.149H241.46C241.113 223.149 241.013 223.004 241.013 222.803C241.013 222.669 241.069 222.401 241.18 222.122L241.783 220.525C241.806 220.458 241.828 220.436 241.884 220.436H244.374ZM242.107 219.878C242.063 219.878 242.051 219.844 242.063 219.799L243.09 217.053C243.101 217.008 243.123 216.952 243.157 216.952C243.19 216.952 243.201 217.008 243.213 217.053L244.218 219.811C244.229 219.844 244.218 219.878 244.162 219.878H242.107Z" fill="white"/>
<path d="M253.443 218.147C253.443 216.45 253.443 216.137 253.465 215.78C253.488 215.389 253.577 215.199 253.879 215.143C254.013 215.121 254.191 215.11 254.314 215.11C254.448 215.11 254.515 215.087 254.515 215.009C254.515 214.931 254.437 214.909 254.281 214.909C253.845 214.909 253.03 214.942 252.762 214.942C252.46 214.942 251.757 214.909 251.232 214.909C251.065 214.909 250.986 214.931 250.986 215.009C250.986 215.087 251.053 215.11 251.176 215.11C251.321 215.11 251.455 215.121 251.545 215.143C251.913 215.221 252.003 215.4 252.025 215.78C252.047 216.137 252.047 216.45 252.047 218.147V220.112C252.047 221.139 252.047 222.022 251.991 222.491C251.947 222.814 251.891 223.06 251.668 223.105C251.567 223.127 251.433 223.149 251.266 223.149C251.132 223.149 251.087 223.183 251.087 223.239C251.087 223.317 251.165 223.35 251.31 223.35C251.534 223.35 251.824 223.328 252.081 223.328C252.349 223.317 252.594 223.317 252.717 223.317C253.175 223.317 253.577 223.328 254.08 223.35C254.582 223.361 255.163 223.384 255.967 223.384C256.547 223.384 256.603 223.328 256.67 223.082C256.759 222.759 256.838 221.921 256.838 221.798C256.838 221.664 256.826 221.608 256.748 221.608C256.659 221.608 256.637 221.675 256.625 221.776C256.603 221.988 256.469 222.301 256.335 222.446C256.056 222.747 255.62 222.759 255.029 222.759C254.158 222.759 253.867 222.68 253.678 222.513C253.443 222.312 253.443 221.541 253.443 220.112V218.147Z" fill="white"/>
<path d="M262.995 218.147C262.995 216.45 262.995 216.137 263.018 215.78C263.04 215.389 263.129 215.199 263.431 215.143C263.565 215.121 263.743 215.11 263.866 215.11C264 215.11 264.067 215.087 264.067 215.009C264.067 214.931 263.989 214.909 263.833 214.909C263.397 214.909 262.582 214.942 262.314 214.942C262.013 214.942 261.309 214.909 260.784 214.909C260.617 214.909 260.539 214.931 260.539 215.009C260.539 215.087 260.606 215.11 260.729 215.11C260.874 215.11 261.008 215.121 261.097 215.143C261.466 215.221 261.555 215.4 261.577 215.78C261.6 216.137 261.6 216.45 261.6 218.147V220.112C261.6 221.139 261.6 222.022 261.544 222.491C261.499 222.814 261.443 223.06 261.22 223.105C261.119 223.127 260.985 223.149 260.818 223.149C260.684 223.149 260.639 223.183 260.639 223.239C260.639 223.317 260.717 223.35 260.863 223.35C261.086 223.35 261.376 223.328 261.633 223.328C261.901 223.317 262.147 223.317 262.27 223.317C262.727 223.317 263.129 223.328 263.632 223.35C264.134 223.361 264.715 223.384 265.519 223.384C266.1 223.384 266.155 223.328 266.222 223.082C266.312 222.759 266.39 221.921 266.39 221.798C266.39 221.664 266.379 221.608 266.301 221.608C266.211 221.608 266.189 221.675 266.178 221.776C266.155 221.988 266.021 222.301 265.887 222.446C265.608 222.747 265.173 222.759 264.581 222.759C263.71 222.759 263.42 222.68 263.23 222.513C262.995 222.312 262.995 221.541 262.995 220.112V218.147Z" fill="white"/>
<path d="M271.152 220.112C271.152 221.139 271.152 222.022 271.096 222.491C271.051 222.814 270.996 223.06 270.772 223.105C270.672 223.127 270.538 223.149 270.37 223.149C270.236 223.149 270.192 223.183 270.192 223.239C270.192 223.317 270.27 223.35 270.415 223.35C270.638 223.35 270.929 223.328 271.185 223.328C271.453 223.317 271.699 223.317 271.822 223.317C272.157 223.317 272.503 223.328 272.983 223.35C273.463 223.361 274.077 223.384 274.915 223.384C275.339 223.384 275.44 223.384 275.518 223.094C275.574 222.87 275.663 222.111 275.663 221.854C275.663 221.742 275.663 221.653 275.574 221.653C275.496 221.653 275.473 221.698 275.451 221.821C275.373 222.278 275.239 222.513 274.948 222.647C274.658 222.781 274.189 222.781 273.899 222.781C272.76 222.781 272.581 222.613 272.559 221.843C272.548 221.519 272.559 220.492 272.559 220.112V219.23C272.559 219.163 272.57 219.118 272.626 219.118C272.894 219.118 273.999 219.13 274.211 219.152C274.625 219.197 274.781 219.364 274.837 219.587C274.87 219.732 274.87 219.878 274.881 219.989C274.881 220.045 274.904 220.09 274.982 220.09C275.082 220.09 275.082 219.967 275.082 219.878C275.082 219.799 275.116 219.353 275.127 219.13C275.172 218.56 275.216 218.381 275.216 218.314C275.216 218.247 275.183 218.225 275.138 218.225C275.082 218.225 275.038 218.281 274.96 218.37C274.859 218.482 274.692 218.515 274.424 218.538C274.167 218.56 272.883 218.56 272.637 218.56C272.57 218.56 272.559 218.515 272.559 218.437V215.612C272.559 215.534 272.581 215.5 272.637 215.5C272.86 215.5 274.033 215.523 274.223 215.545C274.781 215.612 274.893 215.746 274.971 215.947C275.027 216.081 275.038 216.271 275.038 216.349C275.038 216.45 275.06 216.505 275.138 216.505C275.216 216.505 275.239 216.438 275.25 216.383C275.272 216.249 275.295 215.757 275.306 215.646C275.339 215.132 275.395 214.998 275.395 214.92C275.395 214.864 275.384 214.819 275.328 214.819C275.272 214.819 275.205 214.853 275.149 214.864C275.06 214.886 274.881 214.909 274.669 214.931C274.457 214.942 272.235 214.942 271.878 214.942C271.721 214.942 271.465 214.931 271.174 214.92C270.895 214.92 270.571 214.909 270.27 214.909C270.102 214.909 270.024 214.931 270.024 215.009C270.024 215.087 270.091 215.11 270.214 215.11C270.37 215.11 270.56 215.121 270.649 215.143C271.018 215.221 271.107 215.4 271.13 215.78C271.152 216.137 271.152 216.45 271.152 218.147V220.112Z" fill="white"/>
<path d="M281.501 217.142H281.535C281.736 217.354 282.975 218.75 284.192 219.956C285.353 221.106 286.783 222.569 287.486 223.239C287.609 223.361 287.743 223.484 287.866 223.484C287.966 223.484 288.011 223.384 288.011 223.138L288.134 216.092C288.145 215.467 288.234 215.233 288.547 215.143C288.681 215.11 288.77 215.11 288.882 215.11C289.016 215.11 289.083 215.076 289.083 215.009C289.083 214.92 288.971 214.909 288.826 214.909C288.279 214.909 287.855 214.942 287.732 214.942C287.497 214.942 286.961 214.909 286.381 214.909C286.213 214.909 286.09 214.92 286.09 215.009C286.09 215.076 286.135 215.11 286.269 215.11C286.425 215.11 286.693 215.11 286.861 215.177C287.129 215.288 287.229 215.501 287.241 216.182L287.352 221.195H287.296C287.107 221.017 285.599 219.409 284.84 218.649C283.21 217.03 281.512 215.21 281.378 215.065C281.188 214.864 281.088 214.719 280.965 214.719C280.854 214.719 280.82 214.875 280.82 215.099L280.72 221.709C280.708 222.68 280.664 223.004 280.373 223.094C280.217 223.138 280.016 223.149 279.871 223.149C279.759 223.149 279.692 223.172 279.692 223.239C279.692 223.339 279.793 223.35 279.938 223.35C280.519 223.35 281.043 223.317 281.144 223.317C281.356 223.317 281.803 223.35 282.528 223.35C282.685 223.35 282.785 223.328 282.785 223.239C282.785 223.172 282.718 223.149 282.595 223.149C282.417 223.149 282.205 223.138 282.015 223.071C281.791 222.993 281.646 222.703 281.624 221.832L281.501 217.142Z" fill="white"/>
<path d="M301.036 221.374C301.036 220.816 301.036 220.369 301.048 220.034C301.059 219.643 301.17 219.453 301.472 219.397C301.606 219.375 301.684 219.364 301.773 219.364C301.852 219.364 301.919 219.342 301.919 219.275C301.919 219.185 301.84 219.163 301.695 219.163C301.327 219.163 300.735 219.197 300.389 219.197C300.054 219.197 299.35 219.163 298.77 219.163C298.613 219.163 298.535 219.185 298.535 219.275C298.535 219.342 298.602 219.364 298.703 219.364C298.859 219.364 299.049 219.375 299.138 219.397C299.507 219.476 299.607 219.654 299.618 220.034C299.629 220.369 299.629 220.793 299.629 221.352V222.401C299.629 222.591 299.585 222.736 299.417 222.814C299.149 222.937 298.758 222.937 298.468 222.937C296.112 222.937 294.582 221.139 294.582 218.739C294.582 217.365 294.984 216.528 295.61 216.003C296.391 215.355 297.206 215.311 297.821 215.311C299.082 215.311 299.976 215.824 300.311 216.182C300.601 216.494 300.657 216.852 300.69 217.108C300.701 217.198 300.724 217.254 300.802 217.254C300.891 217.254 300.925 217.198 300.925 217.019C300.925 215.623 301.003 215.311 301.003 215.188C301.003 215.11 300.981 215.065 300.847 215.054C300.59 215.043 300.199 214.976 299.964 214.931C299.741 214.886 298.758 214.752 297.988 214.752C297.05 214.752 296.056 214.831 294.984 215.478C293.968 216.092 293.041 217.343 293.041 219.13C293.041 222.211 295.464 223.507 298.2 223.507C299.071 223.507 300.165 223.384 300.891 223.004C301.025 222.926 301.036 222.904 301.036 222.602V221.374Z" fill="white"/>
<path d="M306.94 220.112C306.94 221.139 306.94 222.022 306.885 222.491C306.84 222.814 306.784 223.06 306.561 223.105C306.46 223.127 306.326 223.149 306.159 223.149C306.025 223.149 305.98 223.183 305.98 223.239C305.98 223.317 306.058 223.35 306.203 223.35C306.427 223.35 306.717 223.328 306.974 223.328C307.242 223.317 307.488 223.317 307.61 223.317C307.945 223.317 308.292 223.328 308.772 223.35C309.252 223.361 309.866 223.384 310.703 223.384C311.128 223.384 311.228 223.384 311.306 223.094C311.362 222.87 311.452 222.111 311.452 221.854C311.452 221.742 311.452 221.653 311.362 221.653C311.284 221.653 311.262 221.698 311.239 221.821C311.161 222.278 311.027 222.513 310.737 222.647C310.447 222.781 309.978 222.781 309.687 222.781C308.548 222.781 308.37 222.613 308.347 221.843C308.336 221.519 308.347 220.492 308.347 220.112V219.23C308.347 219.163 308.359 219.118 308.414 219.118C308.682 219.118 309.788 219.13 310 219.152C310.413 219.197 310.569 219.364 310.625 219.587C310.659 219.732 310.659 219.878 310.67 219.989C310.67 220.045 310.692 220.09 310.77 220.09C310.871 220.09 310.871 219.967 310.871 219.878C310.871 219.799 310.904 219.353 310.916 219.13C310.96 218.56 311.005 218.381 311.005 218.314C311.005 218.247 310.971 218.225 310.927 218.225C310.871 218.225 310.826 218.281 310.748 218.37C310.648 218.482 310.48 218.515 310.212 218.538C309.955 218.56 308.671 218.56 308.426 218.56C308.359 218.56 308.347 218.515 308.347 218.437V215.612C308.347 215.534 308.37 215.5 308.426 215.5C308.649 215.5 309.821 215.523 310.011 215.545C310.569 215.612 310.681 215.746 310.759 215.947C310.815 216.081 310.826 216.271 310.826 216.349C310.826 216.45 310.849 216.505 310.927 216.505C311.005 216.505 311.027 216.438 311.038 216.383C311.061 216.249 311.083 215.757 311.094 215.646C311.128 215.132 311.184 214.998 311.184 214.92C311.184 214.864 311.172 214.819 311.117 214.819C311.061 214.819 310.994 214.853 310.938 214.864C310.849 214.886 310.67 214.909 310.458 214.931C310.246 214.942 308.024 214.942 307.666 214.942C307.51 214.942 307.253 214.931 306.963 214.92C306.684 214.92 306.36 214.909 306.058 214.909C305.891 214.909 305.813 214.931 305.813 215.009C305.813 215.087 305.88 215.11 306.002 215.11C306.159 215.11 306.349 215.121 306.438 215.143C306.806 215.221 306.896 215.4 306.918 215.78C306.94 216.137 306.94 216.45 306.94 218.147V220.112Z" fill="white"/>
<path d="M317.803 223.507C318.395 223.507 319.02 223.406 319.579 223.049C320.383 222.524 320.628 221.754 320.628 221.106C320.628 220.045 320.148 219.275 318.797 218.259L318.484 218.024C317.558 217.321 317.301 216.93 317.301 216.416C317.301 215.746 317.803 215.266 318.63 215.266C319.355 215.266 319.679 215.601 319.847 215.813C320.081 216.103 320.137 216.45 320.137 216.55C320.137 216.684 320.171 216.751 320.249 216.751C320.338 216.751 320.372 216.662 320.372 216.416C320.372 215.545 320.416 215.221 320.416 215.076C320.416 214.998 320.36 214.965 320.26 214.942C319.97 214.864 319.501 214.752 318.775 214.752C317.223 214.752 316.195 215.634 316.195 216.863C316.195 217.767 316.62 218.549 317.848 219.509L318.362 219.911C319.288 220.637 319.456 221.151 319.456 221.698C319.456 222.29 318.965 222.971 317.96 222.971C317.267 222.971 316.609 222.669 316.363 221.843C316.307 221.653 316.262 221.419 316.262 221.273C316.262 221.184 316.251 221.084 316.151 221.084C316.061 221.084 316.028 221.206 316.017 221.374C316.006 221.553 315.961 222.223 315.961 222.837C315.961 223.082 315.994 223.138 316.173 223.216C316.653 223.428 317.156 223.507 317.803 223.507Z" fill="white"/>
<path d="M3.16003 240.211C3.16003 241.239 3.16003 242.121 3.1042 242.59C3.0707 242.913 3.0037 243.159 2.78038 243.204C2.67989 243.226 2.54589 243.248 2.3784 243.248C2.2444 243.248 2.19974 243.282 2.19974 243.338C2.19974 243.416 2.2779 243.449 2.42306 243.449C2.86971 243.449 3.57318 243.416 3.83 243.416C4.14266 243.416 4.84613 243.449 5.58309 243.449C5.70592 243.449 5.79525 243.416 5.79525 243.338C5.79525 243.282 5.73942 243.248 5.61659 243.248C5.4491 243.248 5.20344 243.226 5.04712 243.204C4.71213 243.159 4.64513 242.913 4.61164 242.601C4.55581 242.121 4.55581 241.239 4.55581 240.211V235.633L5.96274 235.667C6.95654 235.689 7.25802 236.002 7.28035 236.292L7.29152 236.415C7.30269 236.582 7.32502 236.638 7.41435 236.638C7.48135 236.638 7.50368 236.571 7.51485 236.459C7.51485 236.169 7.54834 235.399 7.54834 235.164C7.54834 234.997 7.53718 234.93 7.45901 234.93C7.41435 234.93 7.32502 234.952 7.15753 234.985C6.99003 235.008 6.74438 235.041 6.38706 235.041H1.96525C1.59677 235.041 1.17245 235.019 0.84863 234.985C0.569476 234.963 0.457814 234.852 0.368484 234.852C0.301487 234.852 0.267989 234.918 0.23449 235.064C0.212158 235.153 0 236.169 0 236.348C0 236.471 0.0223324 236.526 0.100496 236.526C0.167493 236.526 0.200991 236.482 0.223324 236.392C0.245656 236.303 0.301487 236.169 0.413149 236.002C0.580642 235.756 0.84863 235.7 1.49627 235.678L3.16003 235.633V240.211Z" fill="white"/>
<path d="M13.8568 238.559C13.8233 238.559 13.7898 238.536 13.7898 238.481V238.246C13.7898 236.549 13.7898 236.236 13.8121 235.879C13.8345 235.488 13.9238 235.298 14.2253 235.242C14.3593 235.22 14.4598 235.209 14.5491 235.209C14.6831 235.209 14.7501 235.186 14.7501 235.108C14.7501 235.03 14.6719 235.008 14.5156 235.008C14.0801 235.008 13.3767 235.041 13.1087 235.041C12.8072 235.041 12.1037 235.008 11.5007 235.008C11.3444 235.008 11.2662 235.03 11.2662 235.108C11.2662 235.186 11.3332 235.209 11.4561 235.209C11.6124 235.209 11.8022 235.22 11.8916 235.242C12.26 235.32 12.3494 235.499 12.3717 235.879C12.394 236.236 12.394 236.549 12.394 238.246V240.211C12.394 241.239 12.394 242.121 12.3382 242.59C12.2935 242.913 12.2377 243.159 12.0144 243.204C11.9139 243.226 11.7799 243.248 11.6124 243.248C11.4784 243.248 11.4337 243.282 11.4337 243.338C11.4337 243.416 11.5119 243.449 11.6571 243.449C12.1037 243.449 12.8072 243.416 13.064 243.416C13.3767 243.416 14.0801 243.449 14.8059 243.449C14.9399 243.449 15.0293 243.416 15.0293 243.338C15.0293 243.282 14.9734 243.248 14.8506 243.248C14.6831 243.248 14.4374 243.226 14.2811 243.204C13.9461 243.159 13.8791 242.913 13.8456 242.601C13.7898 242.121 13.7898 241.239 13.7898 240.211V239.229C13.7898 239.173 13.8233 239.162 13.8568 239.162H18.1223C18.1558 239.162 18.1893 239.184 18.1893 239.229V240.211C18.1893 241.239 18.1893 242.121 18.1335 242.59C18.0888 242.913 18.033 243.159 17.8096 243.204C17.7091 243.226 17.5751 243.248 17.4077 243.248C17.2737 243.248 17.229 243.282 17.229 243.338C17.229 243.416 17.3072 243.449 17.4635 243.449C17.899 243.449 18.6024 243.416 18.8593 243.416C19.1719 243.416 19.8754 243.449 20.6012 243.449C20.7352 243.449 20.8245 243.416 20.8245 243.338C20.8245 243.282 20.7687 243.248 20.6458 243.248C20.4784 243.248 20.2327 243.226 20.0764 243.204C19.7414 243.159 19.6744 242.913 19.6409 242.601C19.5851 242.121 19.5851 241.239 19.5851 240.211V238.246C19.5851 236.549 19.5851 236.236 19.6074 235.879C19.6297 235.488 19.7191 235.298 20.0205 235.242C20.1545 235.22 20.255 235.209 20.3444 235.209C20.4784 235.209 20.5454 235.186 20.5454 235.108C20.5454 235.03 20.4672 235.008 20.3109 235.008C19.8754 235.008 19.1719 235.041 18.9039 235.041C18.6024 235.041 17.899 235.008 17.296 235.008C17.1397 235.008 17.0615 235.03 17.0615 235.108C17.0615 235.186 17.1285 235.209 17.2513 235.209C17.4077 235.209 17.5975 235.22 17.6868 235.242C18.0553 235.32 18.1446 235.499 18.167 235.879C18.1893 236.236 18.1893 236.549 18.1893 238.246V238.481C18.1893 238.536 18.1558 238.559 18.1223 238.559H13.8568Z" fill="white"/>
<path d="M26.0355 240.211C26.0355 241.239 26.0355 242.121 25.9797 242.59C25.935 242.913 25.8792 243.159 25.6559 243.204C25.5554 243.226 25.4214 243.248 25.2539 243.248C25.1199 243.248 25.0752 243.282 25.0752 243.338C25.0752 243.416 25.1534 243.449 25.2986 243.449C25.7452 243.449 26.4487 243.416 26.6608 243.416C26.8283 243.416 27.6546 243.449 28.3023 243.449C28.4474 243.449 28.5256 243.416 28.5256 243.338C28.5256 243.282 28.4809 243.248 28.3916 243.248C28.2576 243.248 28.012 243.226 27.8445 243.204C27.5095 243.159 27.4425 242.913 27.409 242.59C27.3531 242.121 27.3531 241.239 27.3531 240.2V240.044C27.3531 239.977 27.3866 239.954 27.4425 239.954L28.4139 239.977C28.4921 239.977 28.5591 239.988 28.6149 240.055C28.7601 240.222 29.2737 240.982 29.7204 241.596C30.3457 242.456 30.77 242.98 31.2501 243.237C31.5405 243.394 31.8196 243.449 32.4449 243.449H33.5057C33.6397 243.449 33.7179 243.427 33.7179 243.338C33.7179 243.282 33.6732 243.248 33.5839 243.248C33.4946 243.248 33.3941 243.237 33.2712 243.215C33.1037 243.181 32.6459 243.103 32.0206 242.456C31.3618 241.763 30.5913 240.77 29.5976 239.519C30.7253 238.603 31.0715 237.844 31.0715 237.018C31.0715 236.27 30.6248 235.7 30.3122 235.488C29.7092 235.075 28.9611 235.008 28.2576 235.008C27.9115 235.008 27.0628 235.041 26.6832 235.041C26.4487 235.041 25.7452 235.008 25.1534 235.008C24.9859 235.008 24.9078 235.03 24.9078 235.108C24.9078 235.186 24.9748 235.209 25.0976 235.209C25.2539 235.209 25.4437 235.22 25.5331 235.242C25.9015 235.32 25.9909 235.499 26.0132 235.879C26.0355 236.236 26.0355 236.549 26.0355 238.246V240.211ZM27.3531 235.734C27.3531 235.644 27.3755 235.6 27.4536 235.577C27.5653 235.544 27.7663 235.533 28.0455 235.533C28.7043 235.533 29.7539 235.99 29.7539 237.576C29.7539 238.492 29.4301 239.005 29.0951 239.251C28.8941 239.396 28.7489 239.441 28.3023 239.441C28.0231 239.441 27.6881 239.407 27.4536 239.329C27.3755 239.296 27.3531 239.251 27.3531 239.128V235.734Z" fill="white"/>
<path d="M40.4846 243.606C43.3208 243.606 45.1074 241.585 45.1074 239.028C45.1074 236.471 43.3766 234.852 40.5962 234.852C37.2464 234.852 35.9846 237.319 35.9846 239.229C35.9846 241.205 37.2799 243.606 40.4846 243.606ZM40.9536 243.047C38.8097 243.047 37.5255 241.205 37.5255 238.882C37.5255 236.102 38.9883 235.387 40.2724 235.387C42.1037 235.387 43.5441 236.94 43.5441 239.441C43.5441 242.668 41.7352 243.047 40.9536 243.047Z" fill="white"/>
<path d="M49.8615 239.876C49.8615 241.495 50.2858 242.322 50.8553 242.835C51.6704 243.572 52.7424 243.606 53.3342 243.606C54.06 243.606 54.8639 243.483 55.6567 242.802C56.5947 241.998 56.7175 240.68 56.7175 239.441V238.246C56.7175 236.549 56.7175 236.236 56.7399 235.879C56.7622 235.488 56.8515 235.298 57.153 235.242C57.287 235.22 57.354 235.209 57.4768 235.209C57.6108 235.209 57.6778 235.186 57.6778 235.108C57.6778 235.03 57.5997 235.008 57.4433 235.008C57.0078 235.008 56.3044 235.041 56.1704 235.041C56.1592 235.041 55.4557 235.008 54.8863 235.008C54.7299 235.008 54.6518 235.03 54.6518 235.108C54.6518 235.186 54.7188 235.209 54.8416 235.209C54.9644 235.209 55.1543 235.22 55.2436 235.242C55.6121 235.32 55.7014 235.499 55.7237 235.879C55.7461 236.236 55.7461 236.549 55.7461 238.246V239.642C55.7461 240.792 55.7126 241.797 55.0984 242.411C54.6518 242.858 54.0488 243.014 53.5575 243.014C53.1778 243.014 52.6642 242.969 52.1617 242.556C51.6146 242.11 51.2908 241.428 51.2908 239.809V238.246C51.2908 236.549 51.2908 236.236 51.3131 235.879C51.3354 235.488 51.4248 235.298 51.7262 235.242C51.8602 235.22 51.9272 235.209 52.0501 235.209C52.1617 235.209 52.2287 235.186 52.2287 235.108C52.2287 235.03 52.1506 235.008 51.9831 235.008C51.5811 235.008 50.8776 235.041 50.6096 235.041C50.2746 235.041 49.5712 235.008 48.9794 235.008C48.8119 235.008 48.7337 235.03 48.7337 235.108C48.7337 235.186 48.8007 235.209 48.9235 235.209C49.0798 235.209 49.2697 235.22 49.359 235.242C49.7275 235.32 49.8168 235.499 49.8391 235.879C49.8615 236.236 49.8615 236.549 49.8615 238.246V239.876Z" fill="white"/>
<path d="M69.4198 241.473C69.4198 240.915 69.4198 240.468 69.4309 240.133C69.4421 239.742 69.5537 239.552 69.8552 239.497C69.9892 239.474 70.0674 239.463 70.1567 239.463C70.2349 239.463 70.3019 239.441 70.3019 239.374C70.3019 239.284 70.2237 239.262 70.0786 239.262C69.7101 239.262 69.1183 239.296 68.7721 239.296C68.4371 239.296 67.7337 239.262 67.153 239.262C66.9967 239.262 66.9185 239.284 66.9185 239.374C66.9185 239.441 66.9855 239.463 67.086 239.463C67.2424 239.463 67.4322 239.474 67.5215 239.497C67.89 239.575 67.9905 239.753 68.0017 240.133C68.0128 240.468 68.0128 240.892 68.0128 241.451V242.5C68.0128 242.69 67.9682 242.835 67.8007 242.913C67.5327 243.036 67.1419 243.036 66.8515 243.036C64.4955 243.036 62.9657 241.239 62.9657 238.838C62.9657 237.464 63.3677 236.627 63.993 236.102C64.7746 235.454 65.5898 235.41 66.2039 235.41C67.4657 235.41 68.359 235.923 68.694 236.281C68.9843 236.593 69.0401 236.951 69.0736 237.208C69.0848 237.297 69.1071 237.353 69.1853 237.353C69.2746 237.353 69.3081 237.297 69.3081 237.118C69.3081 235.722 69.3863 235.41 69.3863 235.287C69.3863 235.209 69.3639 235.164 69.2299 235.153C68.9731 235.142 68.5823 235.075 68.3478 235.03C68.1245 234.986 67.1419 234.852 66.3714 234.852C65.4334 234.852 64.4396 234.93 63.3677 235.577C62.3516 236.191 61.4248 237.442 61.4248 239.229C61.4248 242.311 63.8478 243.606 66.5835 243.606C67.4545 243.606 68.5488 243.483 69.2746 243.103C69.4086 243.025 69.4198 243.003 69.4198 242.701V241.473Z" fill="white"/>
<path d="M76.7866 238.559C76.7531 238.559 76.7196 238.536 76.7196 238.481V238.246C76.7196 236.549 76.7196 236.236 76.7419 235.879C76.7642 235.488 76.8536 235.298 77.1551 235.242C77.289 235.22 77.3895 235.209 77.4789 235.209C77.6129 235.209 77.6799 235.186 77.6799 235.108C77.6799 235.03 77.6017 235.008 77.4454 235.008C77.0099 235.008 76.3064 235.041 76.0384 235.041C75.7369 235.041 75.0335 235.008 74.4305 235.008C74.2742 235.008 74.196 235.03 74.196 235.108C74.196 235.186 74.263 235.209 74.3858 235.209C74.5422 235.209 74.732 235.22 74.8213 235.242C75.1898 235.32 75.2791 235.499 75.3015 235.879C75.3238 236.236 75.3238 236.549 75.3238 238.246V240.211C75.3238 241.239 75.3238 242.121 75.268 242.59C75.2233 242.913 75.1675 243.159 74.9441 243.204C74.8437 243.226 74.7097 243.248 74.5422 243.248C74.4082 243.248 74.3635 243.282 74.3635 243.338C74.3635 243.416 74.4417 243.449 74.5868 243.449C75.0335 243.449 75.7369 243.416 75.9938 243.416C76.3064 243.416 77.0099 243.449 77.7357 243.449C77.8697 243.449 77.959 243.416 77.959 243.338C77.959 243.282 77.9032 243.248 77.7803 243.248C77.6129 243.248 77.3672 243.226 77.2109 243.204C76.8759 243.159 76.8089 242.913 76.7754 242.601C76.7196 242.121 76.7196 241.239 76.7196 240.211V239.229C76.7196 239.173 76.7531 239.162 76.7866 239.162H81.052C81.0855 239.162 81.119 239.184 81.119 239.229V240.211C81.119 241.239 81.119 242.121 81.0632 242.59C81.0185 242.913 80.9627 243.159 80.7394 243.204C80.6389 243.226 80.5049 243.248 80.3374 243.248C80.2034 243.248 80.1588 243.282 80.1588 243.338C80.1588 243.416 80.2369 243.449 80.3932 243.449C80.8287 243.449 81.5322 243.416 81.789 243.416C82.1017 243.416 82.8051 243.449 83.5309 243.449C83.6649 243.449 83.7543 243.416 83.7543 243.338C83.7543 243.282 83.6984 243.248 83.5756 243.248C83.4081 243.248 83.1625 243.226 83.0061 243.204C82.6711 243.159 82.6041 242.913 82.5706 242.601C82.5148 242.121 82.5148 241.239 82.5148 240.211V238.246C82.5148 236.549 82.5148 236.236 82.5371 235.879C82.5595 235.488 82.6488 235.298 82.9503 235.242C83.0843 235.22 83.1848 235.209 83.2741 235.209C83.4081 235.209 83.4751 235.186 83.4751 235.108C83.4751 235.03 83.3969 235.008 83.2406 235.008C82.8051 235.008 82.1017 235.041 81.8337 235.041C81.5322 235.041 80.8287 235.008 80.2258 235.008C80.0694 235.008 79.9913 235.03 79.9913 235.108C79.9913 235.186 80.0583 235.209 80.1811 235.209C80.3374 235.209 80.5272 235.22 80.6166 235.242C80.985 235.32 81.0744 235.499 81.0967 235.879C81.119 236.236 81.119 236.549 81.119 238.246V238.481C81.119 238.536 81.0855 238.559 81.052 238.559H76.7866Z" fill="white"/>
<path d="M95.1045 240.211C95.1045 241.239 95.1045 242.121 95.0487 242.59C95.004 242.913 94.9482 243.159 94.7249 243.204C94.6244 243.226 94.4904 243.248 94.3229 243.248C94.1889 243.248 94.1442 243.282 94.1442 243.338C94.1442 243.416 94.2224 243.449 94.3676 243.449C94.8142 243.449 95.5177 243.416 95.7745 243.416C96.0648 243.416 96.7683 243.449 97.5053 243.449C97.6281 243.449 97.7174 243.416 97.7174 243.338C97.7174 243.282 97.6616 243.248 97.5387 243.248C97.3713 243.248 97.1256 243.226 96.9693 243.204C96.6343 243.159 96.5673 242.913 96.5338 242.601C96.478 242.121 96.478 241.239 96.478 240.211V235.745C96.478 235.622 96.5115 235.555 96.5673 235.533C96.6678 235.499 96.8353 235.488 97.0028 235.488C97.2596 235.488 97.7174 235.555 98.1194 235.923C98.7447 236.482 98.7782 237.23 98.7782 237.598C98.7782 238.737 97.9072 239.441 97.2819 239.441C97.0474 239.441 96.9693 239.474 96.9693 239.564C96.9693 239.642 97.0474 239.653 97.1033 239.664C97.1591 239.675 97.2819 239.675 97.3378 239.675C98.9234 239.675 100.085 238.559 100.085 236.973C100.085 236.381 99.772 235.879 99.5263 235.644C99.3477 235.477 98.8452 235.008 97.4494 235.008C96.9358 235.008 96.2881 235.041 95.8303 235.041C95.5177 235.041 94.8142 235.008 94.2224 235.008C94.0549 235.008 93.9767 235.03 93.9767 235.108C93.9767 235.186 94.0437 235.209 94.1666 235.209C94.3229 235.209 94.5127 235.22 94.6021 235.242C94.9705 235.32 95.0599 235.499 95.0822 235.879C95.1045 236.236 95.1045 236.549 95.1045 238.246V240.211Z" fill="white"/>
<path d="M105.213 240.211C105.213 241.239 105.213 242.121 105.157 242.59C105.112 242.913 105.057 243.159 104.833 243.204C104.733 243.226 104.599 243.248 104.431 243.248C104.297 243.248 104.253 243.282 104.253 243.338C104.253 243.416 104.331 243.449 104.476 243.449C104.699 243.449 104.99 243.427 105.246 243.427C105.514 243.416 105.76 243.416 105.883 243.416C106.218 243.416 106.564 243.427 107.044 243.449C107.524 243.461 108.139 243.483 108.976 243.483C109.4 243.483 109.501 243.483 109.579 243.193C109.635 242.969 109.724 242.21 109.724 241.953C109.724 241.842 109.724 241.752 109.635 241.752C109.557 241.752 109.534 241.797 109.512 241.92C109.434 242.378 109.3 242.612 109.009 242.746C108.719 242.88 108.25 242.88 107.96 242.88C106.821 242.88 106.642 242.712 106.62 241.942C106.609 241.618 106.62 240.591 106.62 240.211V239.329C106.62 239.262 106.631 239.217 106.687 239.217C106.955 239.217 108.06 239.229 108.273 239.251C108.686 239.296 108.842 239.463 108.898 239.686C108.931 239.832 108.931 239.977 108.942 240.088C108.942 240.144 108.965 240.189 109.043 240.189C109.143 240.189 109.143 240.066 109.143 239.977C109.143 239.899 109.177 239.452 109.188 239.229C109.233 238.659 109.277 238.481 109.277 238.414C109.277 238.347 109.244 238.324 109.199 238.324C109.143 238.324 109.099 238.38 109.021 238.469C108.92 238.581 108.753 238.615 108.485 238.637C108.228 238.659 106.944 238.659 106.698 238.659C106.631 238.659 106.62 238.615 106.62 238.536V235.711C106.62 235.633 106.642 235.6 106.698 235.6C106.921 235.6 108.094 235.622 108.284 235.644C108.842 235.711 108.954 235.845 109.032 236.046C109.088 236.18 109.099 236.37 109.099 236.448C109.099 236.549 109.121 236.605 109.199 236.605C109.277 236.605 109.3 236.538 109.311 236.482C109.333 236.348 109.356 235.856 109.367 235.745C109.4 235.231 109.456 235.097 109.456 235.019C109.456 234.963 109.445 234.919 109.389 234.919C109.333 234.919 109.266 234.952 109.21 234.963C109.121 234.985 108.942 235.008 108.73 235.03C108.518 235.041 106.296 235.041 105.939 235.041C105.782 235.041 105.526 235.03 105.235 235.019C104.956 235.019 104.632 235.008 104.331 235.008C104.163 235.008 104.085 235.03 104.085 235.108C104.085 235.186 104.152 235.209 104.275 235.209C104.431 235.209 104.621 235.22 104.711 235.242C105.079 235.32 105.168 235.499 105.191 235.879C105.213 236.236 105.213 236.549 105.213 238.246V240.211Z" fill="white"/>
<path d="M115.06 240.211C115.06 241.239 115.06 242.121 115.004 242.59C114.959 242.913 114.903 243.159 114.68 243.204C114.58 243.226 114.446 243.248 114.278 243.248C114.144 243.248 114.099 243.282 114.099 243.338C114.099 243.416 114.178 243.449 114.323 243.449C114.769 243.449 115.473 243.416 115.685 243.416C115.853 243.416 116.679 243.449 117.326 243.449C117.472 243.449 117.55 243.416 117.55 243.338C117.55 243.282 117.505 243.248 117.416 243.248C117.282 243.248 117.036 243.226 116.869 243.204C116.534 243.159 116.467 242.913 116.433 242.59C116.377 242.121 116.377 241.239 116.377 240.2V240.044C116.377 239.977 116.411 239.954 116.467 239.954L117.438 239.977C117.516 239.977 117.583 239.988 117.639 240.055C117.784 240.222 118.298 240.982 118.745 241.596C119.37 242.456 119.794 242.98 120.274 243.237C120.565 243.394 120.844 243.449 121.469 243.449H122.53C122.664 243.449 122.742 243.427 122.742 243.338C122.742 243.282 122.697 243.248 122.608 243.248C122.519 243.248 122.418 243.237 122.295 243.215C122.128 243.181 121.67 243.103 121.045 242.456C120.386 241.763 119.616 240.77 118.622 239.519C119.75 238.603 120.096 237.844 120.096 237.018C120.096 236.27 119.649 235.7 119.336 235.488C118.733 235.075 117.985 235.008 117.282 235.008C116.936 235.008 116.087 235.041 115.707 235.041C115.473 235.041 114.769 235.008 114.178 235.008C114.01 235.008 113.932 235.03 113.932 235.108C113.932 235.186 113.999 235.209 114.122 235.209C114.278 235.209 114.468 235.22 114.557 235.242C114.926 235.32 115.015 235.499 115.037 235.879C115.06 236.236 115.06 236.549 115.06 238.246V240.211ZM116.377 235.734C116.377 235.644 116.4 235.6 116.478 235.577C116.589 235.544 116.79 235.533 117.07 235.533C117.728 235.533 118.778 235.99 118.778 237.576C118.778 238.492 118.454 239.005 118.119 239.251C117.918 239.396 117.773 239.441 117.326 239.441C117.047 239.441 116.712 239.407 116.478 239.329C116.4 239.296 116.377 239.251 116.377 239.128V235.734Z" fill="white"/>
<path d="M127.133 243.606C127.725 243.606 128.35 243.505 128.908 243.148C129.712 242.623 129.958 241.853 129.958 241.205C129.958 240.144 129.478 239.374 128.127 238.358L127.814 238.123C126.887 237.42 126.631 237.029 126.631 236.515C126.631 235.845 127.133 235.365 127.959 235.365C128.685 235.365 129.009 235.7 129.176 235.912C129.411 236.203 129.467 236.549 129.467 236.649C129.467 236.783 129.5 236.85 129.578 236.85C129.668 236.85 129.701 236.761 129.701 236.515C129.701 235.644 129.746 235.32 129.746 235.175C129.746 235.097 129.69 235.064 129.59 235.041C129.299 234.963 128.83 234.852 128.104 234.852C126.552 234.852 125.525 235.734 125.525 236.962C125.525 237.866 125.949 238.648 127.178 239.608L127.691 240.01C128.618 240.736 128.786 241.25 128.786 241.797C128.786 242.389 128.294 243.07 127.289 243.07C126.597 243.07 125.938 242.768 125.693 241.942C125.637 241.752 125.592 241.518 125.592 241.373C125.592 241.283 125.581 241.183 125.48 241.183C125.391 241.183 125.358 241.306 125.346 241.473C125.335 241.652 125.291 242.322 125.291 242.936C125.291 243.181 125.324 243.237 125.503 243.315C125.983 243.528 126.485 243.606 127.133 243.606Z" fill="white"/>
<path d="M135.407 240.211C135.407 241.294 135.407 242.177 135.352 242.646C135.318 242.969 135.251 243.159 135.028 243.204C134.927 243.226 134.793 243.248 134.626 243.248C134.492 243.248 134.447 243.282 134.447 243.338C134.447 243.416 134.525 243.449 134.671 243.449C135.117 243.449 135.821 243.416 136.077 243.416C136.379 243.416 137.082 243.449 137.819 243.449C137.942 243.449 138.032 243.416 138.032 243.338C138.032 243.282 137.976 243.248 137.853 243.248C137.685 243.248 137.44 243.226 137.283 243.204C136.948 243.159 136.87 242.958 136.837 242.657C136.792 242.177 136.792 241.294 136.792 240.211V238.246C136.792 236.549 136.792 236.236 136.814 235.879C136.837 235.488 136.926 235.298 137.228 235.242C137.362 235.22 137.451 235.209 137.563 235.209C137.674 235.209 137.741 235.186 137.741 235.097C137.741 235.03 137.652 235.008 137.507 235.008C137.082 235.008 136.424 235.041 136.144 235.041C135.821 235.041 135.117 235.008 134.693 235.008C134.514 235.008 134.425 235.03 134.425 235.097C134.425 235.186 134.492 235.209 134.604 235.209C134.738 235.209 134.883 235.22 135.006 235.253C135.251 235.309 135.363 235.499 135.385 235.879C135.407 236.236 135.407 236.549 135.407 238.246V240.211Z" fill="white"/>
<path d="M144.264 243.606C144.856 243.606 145.481 243.505 146.039 243.148C146.843 242.623 147.089 241.853 147.089 241.205C147.089 240.144 146.609 239.374 145.258 238.358L144.945 238.123C144.018 237.42 143.761 237.029 143.761 236.515C143.761 235.845 144.264 235.365 145.09 235.365C145.816 235.365 146.14 235.7 146.307 235.912C146.542 236.203 146.598 236.549 146.598 236.649C146.598 236.783 146.631 236.85 146.709 236.85C146.799 236.85 146.832 236.761 146.832 236.515C146.832 235.644 146.877 235.32 146.877 235.175C146.877 235.097 146.821 235.064 146.72 235.041C146.43 234.963 145.961 234.852 145.235 234.852C143.683 234.852 142.656 235.734 142.656 236.962C142.656 237.866 143.08 238.648 144.309 239.608L144.822 240.01C145.749 240.736 145.917 241.25 145.917 241.797C145.917 242.389 145.425 243.07 144.42 243.07C143.728 243.07 143.069 242.768 142.824 241.942C142.768 241.752 142.723 241.518 142.723 241.373C142.723 241.283 142.712 241.183 142.611 241.183C142.522 241.183 142.489 241.306 142.477 241.473C142.466 241.652 142.422 242.322 142.422 242.936C142.422 243.181 142.455 243.237 142.634 243.315C143.114 243.528 143.616 243.606 144.264 243.606Z" fill="white"/>
<path d="M154.024 240.211C154.024 241.239 154.024 242.121 153.968 242.59C153.934 242.913 153.867 243.159 153.644 243.204C153.543 243.226 153.409 243.248 153.242 243.248C153.108 243.248 153.063 243.282 153.063 243.338C153.063 243.416 153.141 243.449 153.287 243.449C153.733 243.449 154.437 243.416 154.693 243.416C155.006 243.416 155.71 243.449 156.447 243.449C156.569 243.449 156.659 243.416 156.659 243.338C156.659 243.282 156.603 243.248 156.48 243.248C156.313 243.248 156.067 243.226 155.911 243.204C155.576 243.159 155.509 242.913 155.475 242.601C155.419 242.121 155.419 241.239 155.419 240.211V235.633L156.826 235.667C157.82 235.689 158.122 236.002 158.144 236.292L158.155 236.415C158.166 236.582 158.189 236.638 158.278 236.638C158.345 236.638 158.367 236.571 158.378 236.459C158.378 236.169 158.412 235.399 158.412 235.164C158.412 234.997 158.401 234.93 158.323 234.93C158.278 234.93 158.189 234.952 158.021 234.985C157.854 235.008 157.608 235.041 157.251 235.041H152.829C152.46 235.041 152.036 235.019 151.712 234.985C151.433 234.963 151.321 234.852 151.232 234.852C151.165 234.852 151.132 234.918 151.098 235.064C151.076 235.153 150.863 236.169 150.863 236.348C150.863 236.471 150.886 236.526 150.964 236.526C151.031 236.526 151.064 236.482 151.087 236.392C151.109 236.303 151.165 236.169 151.277 236.002C151.444 235.756 151.712 235.7 152.36 235.678L154.024 235.633V240.211Z" fill="white"/>
<path d="M163.258 240.211C163.258 241.239 163.258 242.121 163.202 242.59C163.157 242.913 163.101 243.159 162.878 243.204C162.777 243.226 162.643 243.248 162.476 243.248C162.342 243.248 162.297 243.282 162.297 243.338C162.297 243.416 162.375 243.449 162.521 243.449C162.744 243.449 163.034 243.427 163.291 243.427C163.559 243.416 163.805 243.416 163.928 243.416C164.262 243.416 164.609 243.427 165.089 243.449C165.569 243.461 166.183 243.483 167.021 243.483C167.445 243.483 167.545 243.483 167.624 243.193C167.679 242.969 167.769 242.21 167.769 241.953C167.769 241.842 167.769 241.752 167.679 241.752C167.601 241.752 167.579 241.797 167.557 241.92C167.478 242.378 167.344 242.612 167.054 242.746C166.764 242.88 166.295 242.88 166.004 242.88C164.865 242.88 164.687 242.712 164.664 241.942C164.653 241.618 164.664 240.591 164.664 240.211V239.329C164.664 239.262 164.676 239.217 164.731 239.217C164.999 239.217 166.105 239.229 166.317 239.251C166.73 239.296 166.887 239.463 166.942 239.686C166.976 239.832 166.976 239.977 166.987 240.088C166.987 240.144 167.009 240.189 167.088 240.189C167.188 240.189 167.188 240.066 167.188 239.977C167.188 239.899 167.222 239.452 167.233 239.229C167.277 238.659 167.322 238.481 167.322 238.414C167.322 238.347 167.289 238.324 167.244 238.324C167.188 238.324 167.143 238.38 167.065 238.469C166.965 238.581 166.797 238.615 166.529 238.637C166.272 238.659 164.988 238.659 164.743 238.659C164.676 238.659 164.664 238.615 164.664 238.536V235.711C164.664 235.633 164.687 235.6 164.743 235.6C164.966 235.6 166.138 235.622 166.328 235.644C166.887 235.711 166.998 235.845 167.076 236.046C167.132 236.18 167.143 236.37 167.143 236.448C167.143 236.549 167.166 236.605 167.244 236.605C167.322 236.605 167.344 236.538 167.356 236.482C167.378 236.348 167.4 235.856 167.411 235.745C167.445 235.231 167.501 235.097 167.501 235.019C167.501 234.963 167.49 234.919 167.434 234.919C167.378 234.919 167.311 234.952 167.255 234.963C167.166 234.985 166.987 235.008 166.775 235.03C166.563 235.041 164.341 235.041 163.983 235.041C163.827 235.041 163.57 235.03 163.28 235.019C163.001 235.019 162.677 235.008 162.375 235.008C162.208 235.008 162.13 235.03 162.13 235.108C162.13 235.186 162.197 235.209 162.32 235.209C162.476 235.209 162.666 235.22 162.755 235.242C163.124 235.32 163.213 235.499 163.235 235.879C163.258 236.236 163.258 236.549 163.258 238.246V240.211Z" fill="white"/>
<path d="M173.607 237.241H173.64C173.841 237.453 175.081 238.849 176.298 240.055C177.459 241.205 178.888 242.668 179.592 243.338C179.715 243.461 179.849 243.583 179.971 243.583C180.072 243.583 180.117 243.483 180.117 243.237L180.239 236.191C180.251 235.566 180.34 235.332 180.653 235.242C180.787 235.209 180.876 235.209 180.988 235.209C181.122 235.209 181.189 235.175 181.189 235.108C181.189 235.019 181.077 235.008 180.932 235.008C180.385 235.008 179.96 235.041 179.837 235.041C179.603 235.041 179.067 235.008 178.486 235.008C178.319 235.008 178.196 235.019 178.196 235.108C178.196 235.175 178.241 235.209 178.375 235.209C178.531 235.209 178.799 235.209 178.967 235.276C179.235 235.387 179.335 235.6 179.346 236.281L179.458 241.294H179.402C179.212 241.116 177.705 239.508 176.945 238.749C175.315 237.129 173.618 235.309 173.484 235.164C173.294 234.963 173.194 234.818 173.071 234.818C172.959 234.818 172.926 234.974 172.926 235.198L172.825 241.808C172.814 242.78 172.769 243.103 172.479 243.193C172.323 243.237 172.122 243.248 171.977 243.248C171.865 243.248 171.798 243.271 171.798 243.338C171.798 243.438 171.898 243.449 172.043 243.449C172.624 243.449 173.149 243.416 173.249 243.416C173.462 243.416 173.908 243.449 174.634 243.449C174.79 243.449 174.891 243.427 174.891 243.338C174.891 243.271 174.824 243.248 174.701 243.248C174.522 243.248 174.31 243.237 174.12 243.17C173.897 243.092 173.752 242.802 173.73 241.931L173.607 237.241Z" fill="white"/>
<path d="M190.362 243.606C191.076 243.606 191.925 243.528 192.372 243.349C192.561 243.271 192.606 243.215 192.662 243.025C192.774 242.645 192.908 241.674 192.908 241.54C192.908 241.451 192.885 241.373 192.807 241.373C192.718 241.373 192.695 241.417 192.662 241.596C192.617 241.797 192.472 242.121 192.282 242.333C191.836 242.846 191.233 242.958 190.239 242.958C188.743 242.958 186.721 241.641 186.721 238.983C186.721 237.9 186.934 236.839 187.749 236.091C188.24 235.644 188.877 235.399 189.848 235.399C190.875 235.399 191.746 235.7 192.115 236.091C192.394 236.381 192.539 236.772 192.55 237.118C192.55 237.275 192.573 237.364 192.662 237.364C192.762 237.364 192.785 237.275 192.796 237.107C192.818 236.884 192.807 236.27 192.829 235.901C192.852 235.51 192.885 235.376 192.885 235.287C192.885 235.22 192.841 235.164 192.718 235.153C192.383 235.119 192.025 235.019 191.601 234.963C191.087 234.896 190.674 234.852 189.982 234.852C188.318 234.852 187.257 235.298 186.453 236.035C185.382 237.018 185.147 238.335 185.147 239.095C185.147 240.178 185.437 241.428 186.532 242.389C187.548 243.271 188.832 243.606 190.362 243.606Z" fill="white"/>
<path d="M198.086 240.211C198.086 241.239 198.086 242.121 198.031 242.59C197.986 242.913 197.93 243.159 197.707 243.204C197.606 243.226 197.472 243.248 197.305 243.248C197.171 243.248 197.126 243.282 197.126 243.338C197.126 243.416 197.204 243.449 197.349 243.449C197.573 243.449 197.863 243.427 198.12 243.427C198.388 243.416 198.634 243.416 198.756 243.416C199.091 243.416 199.438 243.427 199.918 243.449C200.398 243.461 201.012 243.483 201.849 243.483C202.274 243.483 202.374 243.483 202.452 243.193C202.508 242.969 202.598 242.21 202.598 241.953C202.598 241.842 202.598 241.752 202.508 241.752C202.43 241.752 202.408 241.797 202.385 241.92C202.307 242.378 202.173 242.612 201.883 242.746C201.593 242.88 201.124 242.88 200.833 242.88C199.694 242.88 199.516 242.712 199.493 241.942C199.482 241.618 199.493 240.591 199.493 240.211V239.329C199.493 239.262 199.505 239.217 199.56 239.217C199.828 239.217 200.934 239.229 201.146 239.251C201.559 239.296 201.715 239.463 201.771 239.686C201.805 239.832 201.805 239.977 201.816 240.088C201.816 240.144 201.838 240.189 201.916 240.189C202.017 240.189 202.017 240.066 202.017 239.977C202.017 239.899 202.05 239.452 202.062 239.229C202.106 238.659 202.151 238.481 202.151 238.414C202.151 238.347 202.117 238.324 202.073 238.324C202.017 238.324 201.972 238.38 201.894 238.469C201.794 238.581 201.626 238.615 201.358 238.637C201.101 238.659 199.817 238.659 199.572 238.659C199.505 238.659 199.493 238.615 199.493 238.536V235.711C199.493 235.633 199.516 235.6 199.572 235.6C199.795 235.6 200.967 235.622 201.157 235.644C201.715 235.711 201.827 235.845 201.905 236.046C201.961 236.18 201.972 236.37 201.972 236.448C201.972 236.549 201.995 236.605 202.073 236.605C202.151 236.605 202.173 236.538 202.184 236.482C202.207 236.348 202.229 235.856 202.24 235.745C202.274 235.231 202.33 235.097 202.33 235.019C202.33 234.963 202.318 234.919 202.263 234.919C202.207 234.919 202.14 234.952 202.084 234.963C201.995 234.985 201.816 235.008 201.604 235.03C201.392 235.041 199.17 235.041 198.812 235.041C198.656 235.041 198.399 235.03 198.109 235.019C197.83 235.019 197.506 235.008 197.204 235.008C197.037 235.008 196.959 235.03 196.959 235.108C196.959 235.186 197.026 235.209 197.148 235.209C197.305 235.209 197.495 235.22 197.584 235.242C197.952 235.32 198.042 235.499 198.064 235.879C198.086 236.236 198.086 236.549 198.086 238.246V240.211Z" fill="white"/>
<path d="M206.817 242.623C206.817 242.779 207.286 242.958 207.286 243.595C207.286 243.851 207.196 244.164 206.962 244.566C206.939 244.622 206.872 244.7 206.872 244.756C206.872 244.812 206.928 244.868 206.962 244.868C207.029 244.868 207.073 244.801 207.152 244.734C207.531 244.298 207.889 243.583 208.034 243.248C208.112 243.07 208.179 242.824 208.179 242.712C208.179 242.59 208.123 242.411 207.933 242.132C207.788 241.909 207.755 241.853 207.654 241.853C207.319 241.853 206.817 242.232 206.817 242.623Z" fill="white"/>
<path d="M219.656 240.211C219.656 241.239 219.656 242.121 219.6 242.59C219.555 242.913 219.499 243.159 219.276 243.204C219.175 243.226 219.041 243.248 218.874 243.248C218.74 243.248 218.695 243.282 218.695 243.338C218.695 243.416 218.773 243.449 218.919 243.449C219.365 243.449 220.069 243.416 220.325 243.416C220.616 243.416 221.319 243.449 222.056 243.449C222.179 243.449 222.268 243.416 222.268 243.338C222.268 243.282 222.213 243.248 222.09 243.248C221.922 243.248 221.677 243.226 221.52 243.204C221.185 243.159 221.118 242.913 221.085 242.601C221.029 242.121 221.029 241.239 221.029 240.211V235.745C221.029 235.622 221.062 235.555 221.118 235.533C221.219 235.499 221.386 235.488 221.554 235.488C221.811 235.488 222.268 235.555 222.67 235.923C223.296 236.482 223.329 237.23 223.329 237.598C223.329 238.737 222.458 239.441 221.833 239.441C221.598 239.441 221.52 239.474 221.52 239.564C221.52 239.642 221.598 239.653 221.654 239.664C221.71 239.675 221.833 239.675 221.889 239.675C223.474 239.675 224.636 238.559 224.636 236.973C224.636 236.381 224.323 235.879 224.077 235.644C223.899 235.477 223.396 235.008 222 235.008C221.487 235.008 220.839 235.041 220.381 235.041C220.069 235.041 219.365 235.008 218.773 235.008C218.606 235.008 218.528 235.03 218.528 235.108C218.528 235.186 218.595 235.209 218.718 235.209C218.874 235.209 219.064 235.22 219.153 235.242C219.522 235.32 219.611 235.499 219.633 235.879C219.656 236.236 219.656 236.549 219.656 238.246V240.211Z" fill="white"/>
<path d="M229.764 240.211C229.764 241.239 229.764 242.121 229.708 242.59C229.663 242.913 229.608 243.159 229.384 243.204C229.284 243.226 229.15 243.248 228.982 243.248C228.848 243.248 228.804 243.282 228.804 243.338C228.804 243.416 228.882 243.449 229.027 243.449C229.474 243.449 230.177 243.416 230.389 243.416C230.557 243.416 231.383 243.449 232.031 243.449C232.176 243.449 232.254 243.416 232.254 243.338C232.254 243.282 232.209 243.248 232.12 243.248C231.986 243.248 231.74 243.226 231.573 243.204C231.238 243.159 231.171 242.913 231.137 242.59C231.082 242.121 231.082 241.239 231.082 240.2V240.044C231.082 239.977 231.115 239.954 231.171 239.954L232.142 239.977C232.221 239.977 232.288 239.988 232.343 240.055C232.489 240.222 233.002 240.982 233.449 241.596C234.074 242.456 234.498 242.98 234.979 243.237C235.269 243.394 235.548 243.449 236.173 243.449H237.234C237.368 243.449 237.446 243.427 237.446 243.338C237.446 243.282 237.402 243.248 237.312 243.248C237.223 243.248 237.122 243.237 237 243.215C236.832 243.181 236.374 243.103 235.749 242.456C235.09 241.763 234.32 240.77 233.326 239.519C234.454 238.603 234.8 237.844 234.8 237.018C234.8 236.27 234.353 235.7 234.041 235.488C233.438 235.075 232.69 235.008 231.986 235.008C231.64 235.008 230.791 235.041 230.412 235.041C230.177 235.041 229.474 235.008 228.882 235.008C228.714 235.008 228.636 235.03 228.636 235.108C228.636 235.186 228.703 235.209 228.826 235.209C228.982 235.209 229.172 235.22 229.261 235.242C229.63 235.32 229.719 235.499 229.742 235.879C229.764 236.236 229.764 236.549 229.764 238.246V240.211ZM231.082 235.734C231.082 235.644 231.104 235.6 231.182 235.577C231.294 235.544 231.495 235.533 231.774 235.533C232.433 235.533 233.482 235.99 233.482 237.576C233.482 238.492 233.158 239.005 232.824 239.251C232.623 239.396 232.477 239.441 232.031 239.441C231.752 239.441 231.417 239.407 231.182 239.329C231.104 239.296 231.082 239.251 231.082 239.128V235.734Z" fill="white"/>
<path d="M243.921 240.535C243.977 240.535 244.011 240.557 244.033 240.613L244.926 242.98C244.982 243.114 244.904 243.215 244.826 243.237C244.714 243.248 244.67 243.271 244.67 243.338C244.67 243.416 244.804 243.416 245.005 243.427C245.898 243.449 246.713 243.449 247.115 243.449C247.528 243.449 247.629 243.427 247.629 243.338C247.629 243.26 247.573 243.248 247.483 243.248C247.349 243.248 247.182 243.237 247.014 243.204C246.78 243.148 246.456 242.992 246.032 241.987C245.317 240.289 243.531 235.734 243.263 235.119C243.151 234.863 243.084 234.762 242.983 234.762C242.872 234.762 242.805 234.885 242.671 235.209L239.868 242.221C239.645 242.78 239.433 243.159 238.919 243.226C238.83 243.237 238.673 243.248 238.573 243.248C238.483 243.248 238.439 243.271 238.439 243.338C238.439 243.427 238.506 243.449 238.651 243.449C239.232 243.449 239.846 243.416 239.969 243.416C240.315 243.416 240.795 243.449 241.152 243.449C241.275 243.449 241.342 243.427 241.342 243.338C241.342 243.271 241.308 243.248 241.174 243.248H241.007C240.661 243.248 240.56 243.103 240.56 242.902C240.56 242.768 240.616 242.5 240.728 242.221L241.331 240.624C241.353 240.557 241.375 240.535 241.431 240.535H243.921ZM241.655 239.977C241.61 239.977 241.599 239.943 241.61 239.899L242.637 237.152C242.648 237.107 242.671 237.051 242.704 237.051C242.738 237.051 242.749 237.107 242.76 237.152L243.765 239.91C243.776 239.943 243.765 239.977 243.709 239.977H241.655Z" fill="white"/>
<path d="M252.453 241.473C252.453 241.652 252.453 242.121 252.419 242.59C252.397 242.913 252.296 243.159 252.073 243.204C251.973 243.226 251.839 243.248 251.682 243.248C251.559 243.248 251.504 243.282 251.504 243.338C251.504 243.427 251.593 243.449 251.749 243.449C252.162 243.449 252.866 243.416 253.145 243.416C253.447 243.416 254.15 243.449 254.854 243.449C254.999 243.449 255.088 243.416 255.088 243.338C255.088 243.282 255.032 243.248 254.909 243.248C254.753 243.248 254.507 243.226 254.351 243.204C254.016 243.159 253.916 242.913 253.893 242.59C253.86 242.121 253.86 241.652 253.86 241.473V240.557C253.86 240.189 253.86 239.843 254.027 239.441C254.228 238.961 255.791 236.337 256.16 235.89C256.406 235.588 256.528 235.454 256.763 235.343C256.93 235.253 257.143 235.209 257.254 235.209C257.377 235.209 257.466 235.175 257.466 235.097C257.466 235.03 257.388 235.008 257.265 235.008C257.053 235.008 256.316 235.041 256.071 235.041C255.747 235.041 255.389 235.008 255.021 235.008C254.887 235.008 254.831 235.03 254.831 235.108C254.831 235.175 254.932 235.198 255.032 235.22C255.222 235.265 255.267 235.387 255.267 235.499C255.267 235.644 255.222 235.834 255.11 236.08C254.954 236.426 253.547 238.882 253.435 239.15C253.257 238.838 251.693 236.147 251.537 235.812C251.459 235.655 251.403 235.521 251.403 235.432C251.403 235.343 251.459 235.253 251.559 235.231C251.727 235.186 251.805 235.175 251.805 235.108C251.805 235.041 251.749 235.008 251.638 235.008C251.135 235.008 250.677 235.041 250.443 235.041C250.074 235.041 249.237 235.008 249.036 235.008C248.902 235.008 248.824 235.041 248.824 235.108C248.824 235.186 248.902 235.209 248.991 235.209C249.125 235.209 249.315 235.276 249.46 235.354C249.672 235.477 249.952 235.756 250.231 236.169C250.622 236.75 252.118 239.206 252.196 239.385C252.341 239.709 252.453 239.954 252.453 240.557V241.473Z" fill="white"/>
<path d="M261.474 240.211C261.474 241.239 261.474 242.121 261.418 242.59C261.374 242.913 261.318 243.159 261.095 243.204C260.994 243.226 260.86 243.248 260.693 243.248C260.559 243.248 260.514 243.282 260.514 243.338C260.514 243.416 260.592 243.449 260.737 243.449C260.961 243.449 261.251 243.427 261.508 243.427C261.776 243.416 262.021 243.416 262.144 243.416C262.479 243.416 262.825 243.427 263.305 243.449C263.786 243.461 264.4 243.483 265.237 243.483C265.661 243.483 265.762 243.483 265.84 243.193C265.896 242.969 265.985 242.21 265.985 241.953C265.985 241.842 265.985 241.752 265.896 241.752C265.818 241.752 265.796 241.797 265.773 241.92C265.695 242.378 265.561 242.612 265.271 242.746C264.98 242.88 264.511 242.88 264.221 242.88C263.082 242.88 262.903 242.712 262.881 241.942C262.87 241.618 262.881 240.591 262.881 240.211V239.329C262.881 239.262 262.892 239.217 262.948 239.217C263.216 239.217 264.322 239.229 264.534 239.251C264.947 239.296 265.103 239.463 265.159 239.686C265.193 239.832 265.193 239.977 265.204 240.088C265.204 240.144 265.226 240.189 265.304 240.189C265.405 240.189 265.405 240.066 265.405 239.977C265.405 239.899 265.438 239.452 265.449 239.229C265.494 238.659 265.539 238.481 265.539 238.414C265.539 238.347 265.505 238.324 265.461 238.324C265.405 238.324 265.36 238.38 265.282 238.469C265.181 238.581 265.014 238.615 264.746 238.637C264.489 238.659 263.205 238.659 262.959 238.659C262.892 238.659 262.881 238.615 262.881 238.536V235.711C262.881 235.633 262.903 235.6 262.959 235.6C263.183 235.6 264.355 235.622 264.545 235.644C265.103 235.711 265.215 235.845 265.293 236.046C265.349 236.18 265.36 236.37 265.36 236.448C265.36 236.549 265.382 236.605 265.461 236.605C265.539 236.605 265.561 236.538 265.572 236.482C265.595 236.348 265.617 235.856 265.628 235.745C265.662 235.231 265.717 235.097 265.717 235.019C265.717 234.963 265.706 234.919 265.65 234.919C265.595 234.919 265.528 234.952 265.472 234.963C265.382 234.985 265.204 235.008 264.992 235.03C264.779 235.041 262.557 235.041 262.2 235.041C262.044 235.041 261.787 235.03 261.497 235.019C261.217 235.019 260.894 235.008 260.592 235.008C260.425 235.008 260.346 235.03 260.346 235.108C260.346 235.186 260.413 235.209 260.536 235.209C260.693 235.209 260.882 235.22 260.972 235.242C261.34 235.32 261.43 235.499 261.452 235.879C261.474 236.236 261.474 236.549 261.474 238.246V240.211Z" fill="white"/>
<path d="M271.321 240.211C271.321 241.239 271.321 242.121 271.265 242.59C271.22 242.913 271.165 243.159 270.941 243.204C270.841 243.226 270.707 243.248 270.539 243.248C270.405 243.248 270.361 243.282 270.361 243.338C270.361 243.416 270.439 243.449 270.584 243.449C271.031 243.449 271.734 243.416 271.946 243.416C272.114 243.416 272.94 243.449 273.588 243.449C273.733 243.449 273.811 243.416 273.811 243.338C273.811 243.282 273.766 243.248 273.677 243.248C273.543 243.248 273.297 243.226 273.13 243.204C272.795 243.159 272.728 242.913 272.694 242.59C272.639 242.121 272.639 241.239 272.639 240.2V240.044C272.639 239.977 272.672 239.954 272.728 239.954L273.699 239.977C273.777 239.977 273.844 239.988 273.9 240.055C274.045 240.222 274.559 240.982 275.006 241.596C275.631 242.456 276.055 242.98 276.536 243.237C276.826 243.394 277.105 243.449 277.73 243.449H278.791C278.925 243.449 279.003 243.427 279.003 243.338C279.003 243.282 278.959 243.248 278.869 243.248C278.78 243.248 278.679 243.237 278.557 243.215C278.389 243.181 277.931 243.103 277.306 242.456C276.647 241.763 275.877 240.77 274.883 239.519C276.011 238.603 276.357 237.844 276.357 237.018C276.357 236.27 275.91 235.7 275.598 235.488C274.995 235.075 274.246 235.008 273.543 235.008C273.197 235.008 272.348 235.041 271.969 235.041C271.734 235.041 271.031 235.008 270.439 235.008C270.271 235.008 270.193 235.03 270.193 235.108C270.193 235.186 270.26 235.209 270.383 235.209C270.539 235.209 270.729 235.22 270.818 235.242C271.187 235.32 271.276 235.499 271.299 235.879C271.321 236.236 271.321 236.549 271.321 238.246V240.211ZM272.639 235.734C272.639 235.644 272.661 235.6 272.739 235.577C272.851 235.544 273.052 235.533 273.331 235.533C273.99 235.533 275.039 235.99 275.039 237.576C275.039 238.492 274.715 239.005 274.38 239.251C274.179 239.396 274.034 239.441 273.588 239.441C273.309 239.441 272.974 239.407 272.739 239.329C272.661 239.296 272.639 239.251 272.639 239.128V235.734Z" fill="white"/>
<path d="M287.497 241.138C287.497 242.11 288.212 243.606 290.601 243.606C292.131 243.606 292.879 242.925 293.248 242.59C294.208 243.327 294.61 243.449 295.883 243.449H296.743C296.989 243.449 297.078 243.416 297.078 243.349C297.078 243.26 297.022 243.248 296.922 243.248C296.698 243.248 296.084 243.07 295.727 242.858C295.425 242.679 294.923 242.378 294.175 241.763C294.811 241.015 295.269 239.977 295.269 239.117C295.269 238.983 295.101 238.916 294.889 238.894C294.264 238.827 293.817 238.815 293.549 238.815C293.46 238.815 293.371 238.838 293.371 238.927C293.371 238.994 293.438 239.016 293.505 239.016C293.672 239.016 293.907 239.05 294.052 239.184C294.219 239.329 294.264 239.53 294.264 239.698C294.264 240.379 293.951 241.105 293.728 241.417C293.516 241.227 292.142 239.988 291.763 239.552C290.869 238.559 289.909 237.665 289.909 236.616C289.909 235.667 290.635 235.343 291.104 235.343C291.729 235.343 292.12 235.577 292.343 235.845C292.589 236.136 292.667 236.493 292.667 236.783C292.667 236.951 292.678 236.995 292.745 236.995C292.812 236.995 292.857 236.973 292.879 236.806C292.913 236.638 293.002 235.745 293.002 235.376C293.002 235.242 293.002 235.153 292.812 235.086C292.511 234.963 292.008 234.852 291.461 234.852C289.518 234.852 288.737 236.024 288.748 236.906C288.759 237.409 288.848 237.866 289.317 238.492C288.647 238.816 287.497 239.832 287.497 241.138ZM290.981 242.902C289.82 242.902 288.837 242.009 288.837 240.613C288.837 239.72 289.228 239.195 289.608 238.916C289.797 239.195 290.512 239.999 290.802 240.312C291.093 240.624 292.165 241.674 292.812 242.232C292.578 242.456 291.841 242.902 290.981 242.902Z" fill="white"/>
<path d="M308.287 239.307C308.287 239.229 308.31 239.206 308.366 239.206C308.555 239.206 309.739 239.206 310.018 239.24C310.364 239.284 310.532 239.485 310.588 239.642C310.632 239.776 310.655 239.91 310.655 239.988C310.655 240.066 310.677 240.144 310.744 240.144C310.856 240.144 310.856 240.033 310.856 239.932C310.856 239.854 310.878 239.34 310.9 239.117C310.934 238.771 310.99 238.492 310.99 238.425C310.99 238.358 310.967 238.324 310.923 238.324C310.856 238.324 310.833 238.369 310.777 238.436C310.666 238.581 310.509 238.626 310.297 238.637C310.141 238.648 309.985 238.648 309.795 238.648L308.366 238.659C308.299 238.659 308.287 238.626 308.287 238.559V235.767C308.287 235.644 308.321 235.611 308.388 235.611L310.107 235.644C310.532 235.655 310.766 235.823 310.844 235.979C310.911 236.136 310.911 236.314 310.911 236.404C310.923 236.526 310.945 236.582 311.023 236.582C311.101 236.582 311.124 236.515 311.135 236.426C311.157 236.292 311.179 235.633 311.191 235.521C311.224 235.231 311.28 235.097 311.28 235.019C311.28 234.963 311.246 234.919 311.202 234.919C311.146 234.919 311.09 234.963 311.023 234.985C310.911 235.019 310.777 235.019 310.565 235.03C310.308 235.041 308.042 235.041 307.617 235.041C307.461 235.041 307.204 235.03 306.914 235.019C306.624 235.019 306.3 235.008 306.009 235.008C305.842 235.008 305.753 235.03 305.753 235.119C305.753 235.186 305.831 235.209 305.943 235.209C306.099 235.209 306.289 235.22 306.378 235.242C306.746 235.32 306.836 235.499 306.858 235.879C306.88 236.236 306.88 236.549 306.88 238.246V240.211C306.88 241.283 306.88 242.121 306.825 242.59C306.78 242.913 306.724 243.159 306.501 243.204C306.4 243.226 306.266 243.248 306.099 243.248C305.976 243.248 305.931 243.282 305.931 243.338C305.931 243.427 306.009 243.449 306.166 243.449C306.59 243.449 307.294 243.416 307.584 243.416C307.874 243.416 308.578 243.449 309.281 243.449C309.449 243.449 309.527 243.416 309.527 243.338C309.527 243.282 309.482 243.248 309.337 243.248C309.181 243.248 308.935 243.226 308.779 243.204C308.444 243.159 308.377 242.913 308.343 242.59C308.287 242.121 308.287 241.283 308.287 240.211V239.307Z" fill="white"/>
<path d="M319.337 240.535C319.393 240.535 319.426 240.557 319.448 240.613L320.342 242.98C320.398 243.114 320.319 243.215 320.241 243.237C320.13 243.248 320.085 243.271 320.085 243.338C320.085 243.416 320.219 243.416 320.42 243.427C321.313 243.449 322.128 243.449 322.53 243.449C322.943 243.449 323.044 243.427 323.044 243.338C323.044 243.26 322.988 243.248 322.899 243.248C322.765 243.248 322.597 243.237 322.43 243.204C322.195 243.148 321.871 242.992 321.447 241.987C320.733 240.289 318.946 235.734 318.678 235.119C318.566 234.863 318.499 234.762 318.399 234.762C318.287 234.762 318.22 234.885 318.086 235.209L315.283 242.221C315.06 242.78 314.848 243.159 314.334 243.226C314.245 243.237 314.089 243.248 313.988 243.248C313.899 243.248 313.854 243.271 313.854 243.338C313.854 243.427 313.921 243.449 314.066 243.449C314.647 243.449 315.261 243.416 315.384 243.416C315.73 243.416 316.21 243.449 316.568 243.449C316.69 243.449 316.757 243.427 316.757 243.338C316.757 243.271 316.724 243.248 316.59 243.248H316.422C316.076 243.248 315.976 243.103 315.976 242.902C315.976 242.768 316.032 242.5 316.143 242.221L316.746 240.624C316.769 240.557 316.791 240.535 316.847 240.535H319.337ZM317.07 239.977C317.025 239.977 317.014 239.943 317.025 239.899L318.053 237.152C318.064 237.107 318.086 237.051 318.12 237.051C318.153 237.051 318.164 237.107 318.175 237.152L319.18 239.91C319.192 239.943 319.18 239.977 319.125 239.977H317.07Z" fill="white"/>
<path d="M327.01 240.211C327.01 241.294 327.01 242.177 326.954 242.646C326.921 242.969 326.854 243.159 326.63 243.204C326.53 243.226 326.396 243.248 326.228 243.248C326.094 243.248 326.05 243.282 326.05 243.338C326.05 243.416 326.128 243.449 326.273 243.449C326.72 243.449 327.423 243.416 327.68 243.416C327.982 243.416 328.685 243.449 329.422 243.449C329.545 243.449 329.634 243.416 329.634 243.338C329.634 243.282 329.578 243.248 329.456 243.248C329.288 243.248 329.042 243.226 328.886 243.204C328.551 243.159 328.473 242.958 328.439 242.657C328.395 242.177 328.395 241.294 328.395 240.211V238.246C328.395 236.549 328.395 236.236 328.417 235.879C328.439 235.488 328.529 235.298 328.83 235.242C328.964 235.22 329.054 235.209 329.165 235.209C329.277 235.209 329.344 235.186 329.344 235.097C329.344 235.03 329.255 235.008 329.109 235.008C328.685 235.008 328.026 235.041 327.747 235.041C327.423 235.041 326.72 235.008 326.295 235.008C326.117 235.008 326.027 235.03 326.027 235.097C326.027 235.186 326.094 235.209 326.206 235.209C326.34 235.209 326.485 235.22 326.608 235.253C326.854 235.309 326.965 235.499 326.988 235.879C327.01 236.236 327.01 236.549 327.01 238.246V240.211Z" fill="white"/>
<path d="M336.336 240.211C336.336 241.239 336.336 242.121 336.28 242.59C336.246 242.913 336.179 243.159 335.956 243.204C335.855 243.226 335.721 243.248 335.554 243.248C335.42 243.248 335.375 243.282 335.375 243.338C335.375 243.416 335.453 243.449 335.599 243.449C336.045 243.449 336.749 243.416 337.006 243.416C337.318 243.416 338.022 243.449 338.759 243.449C338.881 243.449 338.971 243.416 338.971 243.338C338.971 243.282 338.915 243.248 338.792 243.248C338.625 243.248 338.379 243.226 338.223 243.204C337.888 243.159 337.821 242.913 337.787 242.601C337.731 242.121 337.731 241.239 337.731 240.211V235.633L339.138 235.667C340.132 235.689 340.434 236.002 340.456 236.292L340.467 236.415C340.478 236.582 340.501 236.638 340.59 236.638C340.657 236.638 340.679 236.571 340.69 236.459C340.69 236.169 340.724 235.399 340.724 235.164C340.724 234.997 340.713 234.93 340.635 234.93C340.59 234.93 340.501 234.952 340.333 234.985C340.166 235.008 339.92 235.041 339.563 235.041H335.141C334.772 235.041 334.348 235.019 334.024 234.985C333.745 234.963 333.633 234.852 333.544 234.852C333.477 234.852 333.443 234.918 333.41 235.064C333.388 235.153 333.176 236.169 333.176 236.348C333.176 236.471 333.198 236.526 333.276 236.526C333.343 236.526 333.377 236.482 333.399 236.392C333.421 236.303 333.477 236.169 333.589 236.002C333.756 235.756 334.024 235.7 334.672 235.678L336.336 235.633V240.211Z" fill="white"/>
<path d="M347.032 238.559C346.999 238.559 346.965 238.536 346.965 238.481V238.246C346.965 236.549 346.965 236.236 346.988 235.879C347.01 235.488 347.099 235.298 347.401 235.242C347.535 235.22 347.635 235.209 347.725 235.209C347.859 235.209 347.926 235.186 347.926 235.108C347.926 235.03 347.847 235.008 347.691 235.008C347.256 235.008 346.552 235.041 346.284 235.041C345.983 235.041 345.279 235.008 344.676 235.008C344.52 235.008 344.442 235.03 344.442 235.108C344.442 235.186 344.509 235.209 344.632 235.209C344.788 235.209 344.978 235.22 345.067 235.242C345.436 235.32 345.525 235.499 345.547 235.879C345.57 236.236 345.57 236.549 345.57 238.246V240.211C345.57 241.239 345.57 242.121 345.514 242.59C345.469 242.913 345.413 243.159 345.19 243.204C345.089 243.226 344.955 243.248 344.788 243.248C344.654 243.248 344.609 243.282 344.609 243.338C344.609 243.416 344.687 243.449 344.833 243.449C345.279 243.449 345.983 243.416 346.24 243.416C346.552 243.416 347.256 243.449 347.981 243.449C348.115 243.449 348.205 243.416 348.205 243.338C348.205 243.282 348.149 243.248 348.026 243.248C347.859 243.248 347.613 243.226 347.457 243.204C347.122 243.159 347.055 242.913 347.021 242.601C346.965 242.121 346.965 241.239 346.965 240.211V239.229C346.965 239.173 346.999 239.162 347.032 239.162H351.298C351.331 239.162 351.365 239.184 351.365 239.229V240.211C351.365 241.239 351.365 242.121 351.309 242.59C351.264 242.913 351.208 243.159 350.985 243.204C350.885 243.226 350.751 243.248 350.583 243.248C350.449 243.248 350.405 243.282 350.405 243.338C350.405 243.416 350.483 243.449 350.639 243.449C351.074 243.449 351.778 243.416 352.035 243.416C352.347 243.416 353.051 243.449 353.777 243.449C353.911 243.449 354 243.416 354 243.338C354 243.282 353.944 243.248 353.821 243.248C353.654 243.248 353.408 243.226 353.252 243.204C352.917 243.159 352.85 242.913 352.816 242.601C352.761 242.121 352.761 241.239 352.761 240.211V238.246C352.761 236.549 352.761 236.236 352.783 235.879C352.805 235.488 352.895 235.298 353.196 235.242C353.33 235.22 353.431 235.209 353.52 235.209C353.654 235.209 353.721 235.186 353.721 235.108C353.721 235.03 353.643 235.008 353.486 235.008C353.051 235.008 352.347 235.041 352.079 235.041C351.778 235.041 351.074 235.008 350.472 235.008C350.315 235.008 350.237 235.03 350.237 235.108C350.237 235.186 350.304 235.209 350.427 235.209C350.583 235.209 350.773 235.22 350.862 235.242C351.231 235.32 351.32 235.499 351.342 235.879C351.365 236.236 351.365 236.549 351.365 238.246V238.481C351.365 238.536 351.331 238.559 351.298 238.559H347.032Z" fill="white"/>
</svg>
