<svg width="354" height="245" fill="none" xmlns="http://www.w3.org/2000/svg"><path d="M116.886 0v11.578h.311c.81-6.411 4.731-11.267 12.201-11.267h3.299v42.952h-5.664v.311h17.305v-.31h-5.665V.31h3.299c7.47 0 11.454 4.856 12.201 11.267h.312V0h-37.599zm83.635.311V0h-17.305v.311h5.665v20.73H167.28V.31h5.665V0h-17.243v.311h5.602v42.952h-5.602v.311h17.243v-.31h-5.665V21.35h21.601v21.912h-5.665v.311h17.305v-.31h-5.664V.31h5.664zm35.032 29.88c-.374 7.096-3.735 13.072-10.956 13.072H213.33V20.73h3.735c6.412 0 8.59 3.361 8.901 8.84h.312V11.515h-.312c-.311 5.54-2.489 8.902-8.901 8.902h-3.735V.31h8.839c7.221 0 10.458 4.295 11.018 10.645h.312V0h-31.747v.311h5.602v42.952h-5.602v.311h34.112V30.191h-.311zM34.83 89.964c7.158-.623 12.014-3.548 12.014-9.649 0-7.843-6.1-10.458-15.874-10.458H15.408v.312h5.665v42.951h-5.665v.312h17.43c11.267 0 16.87-4.98 16.87-12.014 0-7.346-6.101-10.956-14.878-11.454zm-3.86-19.795c8.342 0 9.898 4.357 9.898 10.146 0 5.042-2.179 9.649-9.587 9.649H27.05V70.169h3.921zm1.619 42.951h-5.54V90.213h5.54c8.403 0 10.52 5.353 10.52 11.205 0 5.042-.685 11.702-10.52 11.702zm52.761-13.072c-.373 7.097-3.735 13.072-10.956 13.072H63.127V90.586h3.735c6.412 0 8.59 3.362 8.902 8.84h.311V81.373h-.311c-.311 5.54-2.49 8.902-8.902 8.902h-3.735V70.17h8.84c7.22 0 10.457 4.295 11.018 10.644h.31V69.857H51.55v.312h5.602v42.951H51.55v.312H85.66v-13.384h-.31zm36.69 0c-.374 7.097-3.798 13.072-11.018 13.072H99.817V70.169h5.602v-.312H88.176v.312h5.665v42.951h-5.665v.312h34.175v-13.384h-.311zm19.399-29.88v-.31h-17.243v.31h5.664v42.952h-5.664v.312h17.243v-.312h-5.603V70.169h5.603zm35.07 29.88c-.374 7.097-3.735 13.072-10.956 13.072h-11.267V90.586h3.735c6.411 0 8.59 3.362 8.901 8.84h.311V81.373h-.311c-.311 5.54-2.49 8.902-8.901 8.902h-3.735V70.17h8.839c7.221 0 10.458 4.295 11.018 10.644h.311V69.857h-31.747v.312h5.603v42.951h-5.603v.312h34.113v-13.384h-.311zm43.35-30.19h-8.902v.31h4.669l-13.197 35.669-13.321-35.668h5.602v-.312h-17.243v.312h5.665l16.247 43.636h.436l16.122-43.636h3.922v-.312z" fill="#fff"/><path d="M253.046 100.048c-.374 7.097-3.735 13.072-10.956 13.072h-11.267V90.586h3.735c6.412 0 8.59 3.362 8.901 8.84h.312V81.373h-.312c-.311 5.54-2.489 8.902-8.901 8.902h-3.735V70.17h8.839c7.221 0 10.458 4.295 11.018 10.644h.312V69.857h-31.747v.312h5.602v42.951h-5.602v.312h34.112v-13.384h-.311zm45.342 11.454c-.311.436-1.805 2.116-3.859 2.116-3.486 0-4.109-2.987-4.109-9.71 0-9.026-5.229-12.326-13.819-12.948 6.909-.56 11.889-3.673 11.889-10.022 0-7.906-6.349-11.08-15.375-11.08h-17.243v.31h5.664v42.952h-5.664v.312h17.243v-.312h-5.665V91.146h5.229c6.723 0 11.143.934 11.143 9.898 0 11.143 3.05 13.259 9.337 13.259 3.735 0 5.229-2.303 5.416-2.552l-.187-.249zM267.45 90.835V70.17h5.727c7.594 0 9.026 4.917 9.026 10.769 0 5.042-1.494 9.897-8.154 9.897h-6.599zm34.131-23.53c-1.681 0-2.988 1.307-2.988 2.926 0 1.618 1.307 2.925 2.988 2.925 1.12 0 2.054-.497 2.552-1.244 0 2.49-1.992 6.598-5.416 8.528l.125.249c3.735-2.054 5.851-6.225 5.851-9.711 0-2.366-1.245-3.673-3.112-3.673zm21.115 19.733c-8.902-3.424-10.52-6.536-10.52-9.96 0-3.86 2.988-7.532 9.399-7.532 6.661 0 10.583 4.544 12.326 11.516h.249V70.106h-.312c-.498 1.059-.871 1.681-2.49 1.681-2.427 0-4.357-2.552-9.773-2.552-7.594 0-13.57 4.73-13.57 11.142 0 6.288 3.735 9.213 12.076 12.824 7.47 3.299 13.571 5.104 13.571 11.205 0 6.1-4.358 9.337-11.143 9.337-8.902 0-13.321-6.972-15.002-13.944h-.311v13.882h.311c.436-1.059 1.183-2.241 2.801-2.241 2.864 0 7.034 2.614 12.201 2.614 9.835 0 15.811-5.104 15.811-12.45 0-5.851-2.801-9.524-15.624-14.566zm-285.969 95.94L20.48 139.279h-.436L3.922 182.978H0v.311h8.902v-.311H4.295l5.354-14.629h15.686l5.416 14.629H25.15v.311h17.243v-.311h-5.665zm-26.954-14.94l7.657-20.791 7.78 20.791H9.774zm71.765-28.323H69.959v.311h5.603v29.382c0 8.901-4.918 14.13-13.508 14.13-7.595 0-10.52-5.104-10.52-14.379v-29.133h5.602v-.311H39.893v.311h5.665v29.133c0 11.08 6.224 14.753 15.873 14.753 8.59 0 14.442-4.669 14.442-14.504v-29.382h5.665v-.311zm1.852 0v11.578h.31c.81-6.412 4.732-11.267 12.202-11.267H99.2v42.952h-5.665v.311h17.305v-.311h-5.664v-42.952h3.299c7.47 0 11.454 4.855 12.201 11.267h.311v-11.578H83.389zm83.635.311v-.311h-17.306v.311h5.665v20.729h-21.6v-20.729h5.664v-.311h-17.243v.311h5.603v42.952h-5.603v.311h17.243v-.311h-5.664v-21.912h21.6v21.912h-5.665v.311h17.306v-.311h-5.665v-42.952h5.665zm23.453-.934c-12.948 0-21.601 10.52-21.601 22.41 0 11.827 8.653 22.41 21.601 22.41 12.948 0 21.6-10.583 21.6-22.41 0-11.89-8.652-22.41-21.6-22.41zm0 44.508c-12.201 0-15.251-13.134-15.251-22.098 0-9.026 3.05-22.099 15.251-22.099 12.263 0 15.313 13.073 15.313 22.099 0 8.964-3.05 22.098-15.313 22.098zm65.978-2.241c-.311.436-1.805 2.117-3.859 2.117-3.486 0-4.109-2.988-4.109-9.711 0-9.026-5.229-12.325-13.819-12.948 6.91-.56 11.89-3.673 11.89-10.022 0-7.906-6.35-11.08-15.376-11.08H213.94v.311h5.665v42.952h-5.665v.311h17.243v-.311h-5.665v-21.974h5.229c6.723 0 11.143.934 11.143 9.897 0 11.143 3.05 13.26 9.337 13.26 3.735 0 5.229-2.304 5.416-2.553l-.187-.249zm-30.938-20.666v-20.667h5.727c7.595 0 9.026 4.918 9.026 10.769 0 5.042-1.494 9.898-8.154 9.898h-6.599z" fill="#fff"/><path d="M273.281 140.026v-.311h-17.243v.311h5.665v42.952h-5.665v.311h17.243v-.311h-5.602v-42.952h5.602zm1.269-.311v11.578h.311c.81-6.412 4.731-11.267 12.201-11.267h3.299v42.952h-5.664v.311h17.305v-.311h-5.665v-42.952h3.3c7.469 0 11.453 4.855 12.2 11.267h.312v-11.578H274.55z" fill="#fff"/><path d="M343.418 139.715v.311h5.415l-11.951 22.534-12.824-22.534h5.354v-.311h-17.306v.311h4.98l14.069 24.651v18.301h-5.665v.311h17.243v-.311h-5.665v-20.231l12.077-22.721H354v-.311h-10.582zM38.091 223.507c2.836 0 4.623-2.021 4.623-4.578 0-2.558-1.73-4.177-4.511-4.177-3.35 0-4.612 2.468-4.612 4.378 0 1.976 1.295 4.377 4.5 4.377zm.469-.559c-2.144 0-3.428-1.842-3.428-4.165 0-2.78 1.463-3.495 2.747-3.495 1.831 0 3.272 1.552 3.272 4.054 0 3.227-1.81 3.606-2.591 3.606zm11.175-.122c.212.524.279.681.424.681.156 0 .223-.179.514-.827.245-.558.77-1.775 1.485-3.405.603-1.374.904-1.977 1.34-3.026.301-.715.469-.905.614-1.005.2-.134.435-.134.547-.134.112 0 .179-.023.179-.101 0-.078-.09-.1-.235-.1-.335 0-.86.033-1.05.033-.145 0-.614-.033-1.172-.033-.212 0-.313.022-.313.111 0 .079.09.09.19.09.145 0 .313.011.447.056.1.033.145.122.145.212 0 .1-.045.268-.1.413-.268.737-1.72 4.332-2.2 5.561h-.045l-1.92-5.07c-.157-.402-.257-.715-.257-.86 0-.1.033-.178.111-.234.09-.067.257-.078.436-.078.1 0 .167-.023.167-.101 0-.078-.122-.1-.256-.1-.559 0-1.095.033-1.374.033-.39 0-1.027-.033-1.619-.033-.167 0-.29.011-.29.1 0 .067.033.101.134.101.089 0 .268 0 .435.044.402.112.592.235.849.849l2.814 6.823zm9.085-2.714c0 1.027 0 1.91-.056 2.379-.045.323-.1.569-.324.614-.1.022-.234.044-.402.044-.134 0-.178.034-.178.09 0 .078.078.111.223.111.223 0 .514-.022.77-.022.268-.011.514-.011.637-.011.335 0 .681.011 1.161.033.48.011 1.094.034 1.932.034.424 0 .525 0 .603-.29.056-.224.145-.983.145-1.24 0-.112 0-.201-.09-.201-.078 0-.1.045-.122.168-.078.457-.212.692-.503.826-.29.134-.759.134-1.05.134-1.138 0-1.317-.168-1.34-.938-.01-.324 0-1.351 0-1.731v-.882c0-.067.012-.112.068-.112.268 0 1.373.012 1.585.034.413.045.57.212.626.435.033.145.033.291.044.402 0 .056.023.101.1.101.101 0 .101-.123.101-.212 0-.079.034-.525.045-.748.045-.57.09-.749.09-.816 0-.067-.034-.089-.079-.089-.056 0-.1.056-.178.145-.101.112-.269.145-.536.168-.257.022-1.541.022-1.787.022-.067 0-.078-.045-.078-.123v-2.825c0-.078.022-.112.078-.112.223 0 1.396.023 1.586.045.558.067.67.201.748.402a1.2 1.2 0 0 1 .067.402c0 .101.022.156.1.156.078 0 .1-.067.112-.122.022-.134.044-.626.056-.737.033-.514.089-.648.089-.726 0-.056-.011-.101-.067-.101-.056 0-.123.034-.179.045-.089.022-.268.045-.48.067-.212.011-2.434.011-2.791.011-.157 0-.413-.011-.704-.022-.279 0-.603-.011-.904-.011-.168 0-.246.022-.246.1 0 .078.067.101.19.101.156 0 .346.011.435.033.369.078.458.257.48.637.023.357.023.67.023 2.367v1.965zm9.847 0c0 1.027 0 1.91-.056 2.379-.045.323-.1.569-.324.614-.1.022-.235.044-.402.044-.134 0-.179.034-.179.09 0 .078.078.111.224.111.446 0 1.15-.033 1.362-.033.167 0 .994.033 1.641.033.145 0 .224-.033.224-.111 0-.056-.045-.09-.134-.09-.134 0-.38-.022-.547-.044-.335-.045-.403-.291-.436-.614-.056-.469-.056-1.352-.056-2.39v-.156c0-.067.034-.09.09-.09l.971.023c.078 0 .145.011.201.078.145.167.659.927 1.106 1.541.625.86 1.05 1.384 1.53 1.641.29.156.569.212 1.194.212h1.06c.135 0 .213-.022.213-.111 0-.056-.045-.09-.134-.09-.09 0-.19-.011-.313-.033-.167-.034-.625-.112-1.25-.759-.66-.693-1.43-1.687-2.423-2.937 1.127-.916 1.474-1.675 1.474-2.501 0-.749-.447-1.318-.76-1.53-.603-.413-1.35-.48-2.054-.48-.346 0-1.195.033-1.575.033-.234 0-.938-.033-1.53-.033-.167 0-.245.022-.245.1 0 .078.067.101.19.101.156 0 .346.011.435.033.369.078.458.257.48.637.023.357.023.67.023 2.367v1.965zm1.317-4.478c0-.089.023-.134.1-.156.112-.033.313-.044.593-.044.658 0 1.708.457 1.708 2.043 0 .916-.324 1.429-.659 1.675-.2.145-.346.19-.793.19-.279 0-.614-.034-.848-.112-.078-.033-.1-.078-.1-.201v-3.395zm13.846 7.873c.715 0 1.564-.079 2.01-.257.19-.078.235-.134.29-.324.112-.38.246-1.351.246-1.485 0-.089-.022-.168-.1-.168-.09 0-.112.045-.145.224-.045.201-.19.525-.38.737-.447.513-1.05.625-2.044.625-1.496 0-3.517-1.318-3.517-3.975 0-1.083.212-2.144 1.027-2.892.492-.447 1.128-.693 2.1-.693 1.027 0 1.898.302 2.266.693.28.29.425.681.436 1.027 0 .156.022.246.111.246.101 0 .123-.09.135-.257.022-.223.01-.838.033-1.206.022-.391.056-.525.056-.614 0-.067-.045-.123-.168-.134-.335-.034-.692-.134-1.116-.19a11.033 11.033 0 0 0-1.62-.112c-1.663 0-2.724.447-3.528 1.184-1.072.983-1.306 2.3-1.306 3.06 0 1.083.29 2.333 1.384 3.294 1.016.882 2.3 1.217 3.83 1.217zm11.008 0c2.836 0 4.623-2.021 4.623-4.578 0-2.558-1.731-4.177-4.511-4.177-3.35 0-4.612 2.468-4.612 4.378 0 1.976 1.295 4.377 4.5 4.377zm.469-.559c-2.144 0-3.428-1.842-3.428-4.165 0-2.78 1.463-3.495 2.747-3.495 1.831 0 3.271 1.552 3.271 4.054 0 3.227-1.808 3.606-2.59 3.606zm8.641-.714c-.056.379-.145.815-.458.882-.167.033-.245.033-.335.033-.111 0-.178.023-.178.078 0 .101.089.123.201.123.357 0 .893-.033 1.105-.033.201 0 .704.033 1.173.033.167 0 .268-.022.268-.123 0-.055-.079-.078-.168-.078-.112 0-.268-.011-.469-.055-.19-.045-.335-.146-.335-.358 0-.178.011-.324.034-.525l.58-4.444h.045c.391.838 1.061 2.245 1.161 2.479.134.313 1.016 2.021 1.284 2.535.179.335.291.558.391.558.101 0 .156-.1.413-.625l2.435-5.07h.044l.67 4.914c.045.312.011.457-.056.48-.078.033-.122.067-.122.123 0 .067.067.1.323.122a58.9 58.9 0 0 0 2.267.067c.156 0 .29-.033.29-.123 0-.067-.078-.078-.178-.078-.145 0-.369-.011-.693-.111-.335-.101-.446-.425-.547-1.128l-1.016-6.901c-.033-.234-.1-.346-.201-.346-.1 0-.156.089-.245.268l-3.038 6.376-3.048-6.298c-.145-.29-.212-.346-.302-.346-.089 0-.156.101-.189.29l-1.106 7.281zm15.13-2.122c0 1.083 0 1.965-.056 2.434-.033.324-.1.514-.324.559-.1.022-.234.044-.402.044-.134 0-.178.034-.178.09 0 .078.078.111.223.111.447 0 1.15-.033 1.407-.033.301 0 1.005.033 1.742.033.123 0 .212-.033.212-.111 0-.056-.056-.09-.179-.09-.167 0-.413-.022-.569-.044-.335-.045-.413-.246-.447-.547-.044-.481-.044-1.363-.044-2.446v-1.965c0-1.697 0-2.01.022-2.367.022-.391.112-.581.413-.637.134-.022.223-.033.335-.033.112 0 .179-.023.179-.112 0-.067-.09-.089-.235-.089-.424 0-1.083.033-1.362.033-.324 0-1.027-.033-1.452-.033-.178 0-.268.022-.268.089 0 .089.067.112.179.112.134 0 .279.011.402.044.246.056.357.246.38.626.022.357.022.67.022 2.367v1.965zm8.343-2.97h.033c.201.212 1.441 1.608 2.658 2.814 1.161 1.15 2.59 2.613 3.294 3.283.123.122.257.245.38.245.1 0 .145-.1.145-.346l.123-7.046c.011-.625.1-.859.413-.949.134-.033.223-.033.335-.033.134 0 .201-.034.201-.101 0-.089-.112-.1-.257-.1-.547 0-.972.033-1.094.033-.235 0-.771-.033-1.352-.033-.167 0-.29.011-.29.1 0 .067.045.101.179.101.156 0 .424 0 .592.067.268.111.368.324.379 1.005l.112 5.013h-.056c-.19-.178-1.697-1.786-2.456-2.546a141.56 141.56 0 0 1-3.462-3.584c-.19-.201-.29-.346-.413-.346-.112 0-.145.156-.145.38l-.101 6.61c-.011.971-.056 1.295-.346 1.385a2.005 2.005 0 0 1-.502.055c-.112 0-.179.023-.179.09 0 .1.1.111.246.111.58 0 1.105-.033 1.206-.033.212 0 .658.033 1.384.033.156 0 .257-.022.257-.111 0-.067-.067-.09-.19-.09-.179 0-.391-.011-.581-.078-.223-.078-.368-.368-.39-1.239l-.123-4.69zm19.535 4.232c0-.558 0-1.005.011-1.34.011-.391.123-.581.425-.637a1.78 1.78 0 0 1 .301-.033c.078 0 .145-.022.145-.089 0-.09-.078-.112-.223-.112-.369 0-.96.034-1.307.034-.335 0-1.038-.034-1.619-.034-.156 0-.234.022-.234.112 0 .067.067.089.167.089.157 0 .346.011.436.033.368.079.469.257.48.637.011.335.011.759.011 1.318v1.049c0 .19-.045.335-.212.413-.268.123-.659.123-.949.123-2.356 0-3.886-1.798-3.886-4.198 0-1.374.402-2.211 1.027-2.736.782-.648 1.597-.692 2.211-.692 1.262 0 2.155.513 2.49.871.291.312.346.67.38.926.011.09.033.146.112.146.089 0 .122-.056.122-.235 0-1.396.079-1.708.079-1.831 0-.078-.023-.123-.157-.134a7.206 7.206 0 0 1-.882-.123 13.372 13.372 0 0 0-1.976-.179c-.938 0-1.932.079-3.004.726-1.016.614-1.943 1.865-1.943 3.652 0 3.081 2.423 4.377 5.159 4.377.871 0 1.965-.123 2.691-.503.134-.078.145-.1.145-.402v-1.228zm13.439-3.227c0-1.697 0-2.01.022-2.367.023-.391.112-.581.414-.637.134-.022.312-.033.435-.033.134 0 .201-.023.201-.101 0-.078-.078-.1-.234-.1-.436 0-1.251.033-1.519.033-.302 0-1.005-.033-1.53-.033-.167 0-.245.022-.245.1 0 .078.067.101.189.101.146 0 .28.011.369.033.368.078.458.257.48.637.022.357.022.67.022 2.367v1.965c0 1.027 0 1.91-.056 2.379-.044.323-.1.569-.323.614a1.856 1.856 0 0 1-.402.044c-.134 0-.179.034-.179.09 0 .078.078.111.223.111.224 0 .514-.022.771-.022.268-.011.513-.011.636-.011.458 0 .86.011 1.363.033.502.011 1.083.034 1.887.034.58 0 .636-.056.703-.302.089-.323.168-1.161.168-1.284 0-.134-.012-.19-.09-.19-.089 0-.111.067-.123.168-.022.212-.156.525-.29.67-.279.301-.714.313-1.306.313-.871 0-1.162-.079-1.351-.246-.235-.201-.235-.972-.235-2.401v-1.965zm8.157 1.965c0 1.083 0 1.965-.056 2.434-.034.324-.101.514-.324.559-.1.022-.234.044-.402.044-.134 0-.179.034-.179.09 0 .078.079.111.224.111.446 0 1.15-.033 1.407-.033.301 0 1.005.033 1.742.033.122 0 .212-.033.212-.111 0-.056-.056-.09-.179-.09-.167 0-.413-.022-.569-.044-.335-.045-.414-.246-.447-.547-.045-.481-.045-1.363-.045-2.446v-1.965c0-1.697 0-2.01.023-2.367.022-.391.111-.581.413-.637.134-.022.223-.033.335-.033.111 0 .178-.023.178-.112 0-.067-.089-.089-.234-.089-.424 0-1.083.033-1.362.033-.324 0-1.028-.033-1.452-.033-.179 0-.268.022-.268.089 0 .089.067.112.179.112.134 0 .279.011.402.044.245.056.357.246.379.626.023.357.023.67.023 2.367v1.965zm9.247-.904c0-.078.022-.101.078-.101.19 0 1.374 0 1.653.034.346.044.513.245.569.402.045.134.067.268.067.346 0 .078.022.156.089.156.112 0 .112-.112.112-.212 0-.078.022-.592.045-.815.033-.346.089-.625.089-.692 0-.067-.022-.101-.067-.101-.067 0-.089.045-.145.112-.112.145-.268.19-.48.201-.157.011-.313.011-.503.011l-1.429.011c-.067 0-.078-.033-.078-.1v-2.792c0-.123.033-.156.1-.156l1.72.033c.424.011.659.179.737.335.067.156.067.335.067.424.011.123.033.179.112.179.078 0 .1-.067.111-.156.023-.134.045-.793.056-.905.034-.29.089-.424.089-.502 0-.056-.033-.101-.078-.101-.056 0-.111.045-.178.067-.112.034-.246.034-.458.045-.257.011-2.524.011-2.948.011-.156 0-.413-.011-.704-.022-.29 0-.614-.011-.904-.011-.167 0-.257.022-.257.111 0 .067.078.09.19.09.156 0 .346.011.435.033.369.078.458.257.481.637.022.357.022.67.022 2.367v1.965c0 1.072 0 1.91-.056 2.379-.045.323-.1.569-.324.614-.1.022-.234.044-.402.044-.122 0-.167.034-.167.09 0 .089.078.111.234.111.425 0 1.128-.033 1.418-.033.291 0 .994.033 1.698.033.167 0 .245-.033.245-.111 0-.056-.044-.09-.189-.09-.157 0-.402-.022-.559-.044-.335-.045-.402-.291-.435-.614-.056-.469-.056-1.307-.056-2.379v-.904zm8.331.904c0 1.027 0 1.91-.056 2.379-.045.323-.101.569-.324.614-.1.022-.234.044-.402.044-.134 0-.179.034-.179.09 0 .078.079.111.224.111.223 0 .513-.022.77-.022.268-.011.514-.011.637-.011.335 0 .681.011 1.161.033.48.011 1.094.034 1.932.034.424 0 .524 0 .603-.29.055-.224.145-.983.145-1.24 0-.112 0-.201-.09-.201-.078 0-.1.045-.122.168-.078.457-.213.692-.503.826-.29.134-.759.134-1.049.134-1.139 0-1.318-.168-1.34-.938-.012-.324 0-1.351 0-1.731v-.882c0-.067.011-.112.067-.112.268 0 1.373.012 1.585.034.413.045.57.212.626.435.033.145.033.291.044.402 0 .056.023.101.101.101.1 0 .1-.123.1-.212 0-.079.034-.525.045-.748.045-.57.089-.749.089-.816 0-.067-.033-.089-.078-.089-.056 0-.1.056-.179.145-.1.112-.268.145-.536.168-.256.022-1.541.022-1.786.022-.067 0-.078-.045-.078-.123v-2.825c0-.078.022-.112.078-.112.223 0 1.396.023 1.585.045.559.067.67.201.749.402.055.134.067.324.067.402 0 .101.022.156.1.156.078 0 .101-.067.112-.122.022-.134.044-.626.056-.737.033-.514.089-.648.089-.726 0-.056-.011-.101-.067-.101-.056 0-.123.034-.179.045a4.444 4.444 0 0 1-.48.067c-.212.011-2.434.011-2.792.011-.156 0-.413-.011-.703-.022-.279 0-.603-.011-.904-.011-.168 0-.246.022-.246.1 0 .078.067.101.19.101.156 0 .346.011.435.033.369.078.458.257.48.637.023.357.023.67.023 2.367v1.965zm8.987-4.891c0 .693-.235 1.351-.436 1.742-.045.09-.056.123-.056.145 0 .045.034.067.067.067.067 0 .112-.022.179-.089.502-.514 1.228-1.708 1.228-2.389 0-.168-.044-.246-.324-.324-.212-.067-.703-.212-.926-.212-.056 0-.123.055-.123.089 0 .056.011.089.123.201.1.1.268.402.268.77zm6.543 8.286c.591 0 1.217-.101 1.775-.458.804-.525 1.05-1.295 1.05-1.943 0-1.061-.48-1.831-1.832-2.847l-.312-.235c-.927-.703-1.184-1.094-1.184-1.608 0-.67.503-1.15 1.329-1.15.726 0 1.05.335 1.217.547.235.29.29.637.29.737 0 .134.034.201.112.201.089 0 .123-.089.123-.335 0-.871.045-1.195.045-1.34 0-.078-.056-.111-.157-.134a5.405 5.405 0 0 0-1.485-.19c-1.552 0-2.579.882-2.579 2.111 0 .904.424 1.686 1.652 2.646l.514.402c.927.726 1.094 1.24 1.094 1.787 0 .592-.491 1.273-1.496 1.273-.692 0-1.351-.302-1.597-1.128-.056-.19-.1-.424-.1-.57 0-.089-.011-.189-.112-.189-.089 0-.123.122-.134.29-.011.179-.056.849-.056 1.463 0 .245.034.301.212.379.481.212.983.291 1.631.291zm18.411 0c.715 0 1.563-.079 2.01-.257.19-.078.234-.134.29-.324.112-.38.246-1.351.246-1.485 0-.089-.023-.168-.101-.168-.089 0-.111.045-.145.224-.045.201-.19.525-.38.737-.446.513-1.049.625-2.043.625-1.496 0-3.517-1.318-3.517-3.975 0-1.083.212-2.144 1.027-2.892.491-.447 1.128-.693 2.099-.693 1.028 0 1.898.302 2.267.693.279.29.424.681.435 1.027 0 .156.023.246.112.246.101 0 .123-.09.134-.257.022-.223.011-.838.034-1.206.022-.391.055-.525.055-.614 0-.067-.044-.123-.167-.134-.335-.034-.692-.134-1.117-.19a11.019 11.019 0 0 0-1.619-.112c-1.664 0-2.724.447-3.528 1.184-1.072.983-1.307 2.3-1.307 3.06 0 1.083.291 2.333 1.385 3.294 1.016.882 2.3 1.217 3.83 1.217zm9.187-5.047c-.033 0-.067-.023-.067-.079v-.234c0-1.697 0-2.01.023-2.367.022-.391.111-.581.413-.637a2.01 2.01 0 0 1 .324-.033c.134 0 .201-.023.201-.101 0-.078-.078-.1-.235-.1-.435 0-1.139.033-1.407.033-.301 0-1.005-.033-1.608-.033-.156 0-.234.022-.234.1 0 .078.067.101.19.101.156 0 .346.011.435.033.369.078.458.257.48.637.023.357.023.67.023 2.367v1.965c0 1.027 0 1.91-.056 2.379-.045.323-.101.569-.324.614-.1.022-.234.044-.402.044-.134 0-.179.034-.179.09 0 .078.079.111.224.111.446 0 1.15-.033 1.407-.033.312 0 1.016.033 1.742.033.134 0 .223-.033.223-.111 0-.056-.056-.09-.179-.09-.167 0-.413-.022-.569-.044-.335-.045-.402-.291-.436-.603-.056-.48-.056-1.363-.056-2.39v-.982c0-.056.034-.067.067-.067h4.266c.033 0 .067.022.067.067v.982c0 1.027 0 1.91-.056 2.379-.045.323-.1.569-.324.614-.1.022-.234.044-.402.044-.134 0-.178.034-.178.09 0 .078.078.111.234.111.436 0 1.139-.033 1.396-.033.313 0 1.016.033 1.742.033.134 0 .223-.033.223-.111 0-.056-.056-.09-.178-.09a4.77 4.77 0 0 1-.57-.044c-.335-.045-.402-.291-.435-.603-.056-.48-.056-1.363-.056-2.39v-1.965c0-1.697 0-2.01.022-2.367.022-.391.112-.581.413-.637a2.02 2.02 0 0 1 .324-.033c.134 0 .201-.023.201-.101 0-.078-.078-.1-.234-.1-.436 0-1.139.033-1.407.033-.302 0-1.005-.033-1.608-.033-.157 0-.235.022-.235.1 0 .078.067.101.19.101.156 0 .346.011.435.033.369.078.458.257.481.637.022.357.022.67.022 2.367v.234c0 .056-.034.079-.067.079h-4.266zm15.116 1.976c.056 0 .089.022.112.078l.893 2.367c.056.134-.022.235-.101.257-.111.011-.156.034-.156.101 0 .078.134.078.335.089.893.022 1.708.022 2.11.022.414 0 .514-.022.514-.111 0-.079-.056-.09-.145-.09-.134 0-.302-.011-.469-.044-.235-.056-.558-.212-.983-1.217-.714-1.698-2.501-6.254-2.769-6.868-.112-.256-.179-.357-.279-.357-.112 0-.179.123-.313.447l-2.802 7.012c-.224.558-.436.938-.95 1.005a3.413 3.413 0 0 1-.346.022c-.089 0-.134.023-.134.09 0 .089.067.111.212.111.581 0 1.195-.033 1.318-.033.346 0 .826.033 1.184.033.123 0 .19-.022.19-.111 0-.067-.034-.09-.168-.09h-.167c-.347 0-.447-.145-.447-.346 0-.134.056-.402.167-.681l.603-1.597c.023-.067.045-.089.101-.089h2.49zm-2.267-.558c-.044 0-.056-.034-.044-.079l1.027-2.746c.011-.045.033-.101.067-.101.033 0 .044.056.056.101l1.005 2.758c.011.033 0 .067-.056.067h-2.055zm11.336-1.731c0-1.697 0-2.01.022-2.367.023-.391.112-.581.414-.637.134-.022.312-.033.435-.033.134 0 .201-.023.201-.101 0-.078-.078-.1-.234-.1-.436 0-1.251.033-1.519.033-.302 0-1.005-.033-1.53-.033-.167 0-.246.022-.246.1 0 .078.067.101.19.101.145 0 .279.011.369.033.368.078.458.257.48.637.022.357.022.67.022 2.367v1.965c0 1.027 0 1.91-.056 2.379-.044.323-.1.569-.323.614a1.856 1.856 0 0 1-.402.044c-.134 0-.179.034-.179.09 0 .078.078.111.223.111.224 0 .514-.022.771-.022.268-.011.513-.011.636-.011.458 0 .86.011 1.363.033.502.011 1.083.034 1.887.034.58 0 .636-.056.703-.302.089-.323.168-1.161.168-1.284 0-.134-.012-.19-.09-.19-.089 0-.111.067-.123.168-.022.212-.156.525-.29.67-.279.301-.715.313-1.306.313-.871 0-1.162-.079-1.351-.246-.235-.201-.235-.972-.235-2.401v-1.965zm9.552 0c0-1.697 0-2.01.023-2.367.022-.391.111-.581.413-.637.134-.022.312-.033.435-.033.134 0 .201-.023.201-.101 0-.078-.078-.1-.234-.1-.436 0-1.251.033-1.519.033-.301 0-1.005-.033-1.53-.033-.167 0-.245.022-.245.1 0 .078.067.101.19.101.145 0 .279.011.368.033.369.078.458.257.48.637.023.357.023.67.023 2.367v1.965c0 1.027 0 1.91-.056 2.379-.045.323-.101.569-.324.614a1.856 1.856 0 0 1-.402.044c-.134 0-.179.034-.179.09 0 .078.078.111.224.111.223 0 .513-.022.77-.022.268-.011.514-.011.637-.011.457 0 .859.011 1.362.033.502.011 1.083.034 1.887.034.581 0 .636-.056.703-.302.09-.323.168-1.161.168-1.284 0-.134-.011-.19-.089-.19-.09 0-.112.067-.123.168-.023.212-.157.525-.291.67-.279.301-.714.313-1.306.313-.871 0-1.161-.079-1.351-.246-.235-.201-.235-.972-.235-2.401v-1.965zm8.157 1.965c0 1.027 0 1.91-.056 2.379-.045.323-.1.569-.324.614-.1.022-.234.044-.402.044-.134 0-.178.034-.178.09 0 .078.078.111.223.111.223 0 .514-.022.77-.022.268-.011.514-.011.637-.011.335 0 .681.011 1.161.033.48.011 1.094.034 1.932.034.424 0 .525 0 .603-.29.056-.224.145-.983.145-1.24 0-.112 0-.201-.089-.201-.078 0-.101.045-.123.168-.078.457-.212.692-.503.826-.29.134-.759.134-1.049.134-1.139 0-1.318-.168-1.34-.938-.011-.324 0-1.351 0-1.731v-.882c0-.067.011-.112.067-.112.268 0 1.373.012 1.585.034.414.045.57.212.626.435.033.145.033.291.044.402 0 .056.023.101.101.101.1 0 .1-.123.1-.212 0-.079.034-.525.045-.748.045-.57.089-.749.089-.816 0-.067-.033-.089-.078-.089-.056 0-.1.056-.178.145-.101.112-.268.145-.536.168-.257.022-1.541.022-1.787.022-.067 0-.078-.045-.078-.123v-2.825c0-.078.022-.112.078-.112.223 0 1.396.023 1.586.045.558.067.67.201.748.402.056.134.067.324.067.402 0 .101.022.156.1.156.078 0 .101-.067.112-.122.022-.134.045-.626.056-.737.033-.514.089-.648.089-.726 0-.056-.011-.101-.067-.101-.056 0-.123.034-.179.045a4.444 4.444 0 0 1-.48.067c-.212.011-2.434.011-2.791.011-.157 0-.413-.011-.704-.022-.279 0-.603-.011-.904-.011-.168 0-.246.022-.246.1 0 .078.067.101.19.101.156 0 .346.011.435.033.369.078.458.257.481.637.022.357.022.67.022 2.367v1.965zm10.349-2.97h.034c.201.212 1.44 1.608 2.657 2.814 1.161 1.15 2.591 2.613 3.294 3.283.123.122.257.245.38.245.1 0 .145-.1.145-.346l.123-7.046c.011-.625.1-.859.413-.949.134-.033.223-.033.335-.033.134 0 .201-.034.201-.101 0-.089-.112-.1-.257-.1-.547 0-.971.033-1.094.033-.235 0-.771-.033-1.351-.033-.168 0-.291.011-.291.1 0 .067.045.101.179.101.156 0 .424 0 .592.067.268.111.368.324.38 1.005l.111 5.013h-.056c-.189-.178-1.697-1.786-2.456-2.546a143.532 143.532 0 0 1-3.462-3.584c-.19-.201-.29-.346-.413-.346-.111 0-.145.156-.145.38l-.1 6.61c-.012.971-.056 1.295-.347 1.385a2.005 2.005 0 0 1-.502.055c-.112 0-.179.023-.179.09 0 .1.101.111.246.111.581 0 1.105-.033 1.206-.033.212 0 .659.033 1.384.033.157 0 .257-.022.257-.111 0-.067-.067-.09-.19-.09-.178 0-.39-.011-.58-.078-.224-.078-.369-.368-.391-1.239l-.123-4.69zm19.535 4.232c0-.558 0-1.005.012-1.34.011-.391.122-.581.424-.637a1.78 1.78 0 0 1 .301-.033c.079 0 .146-.022.146-.089 0-.09-.079-.112-.224-.112-.368 0-.96.034-1.306.034-.335 0-1.039-.034-1.619-.034-.157 0-.235.022-.235.112 0 .067.067.089.168.089.156 0 .346.011.435.033.369.079.469.257.48.637.011.335.011.759.011 1.318v1.049c0 .19-.044.335-.212.413-.268.123-.659.123-.949.123-2.356 0-3.886-1.798-3.886-4.198 0-1.374.402-2.211 1.028-2.736.781-.648 1.596-.692 2.211-.692 1.261 0 2.155.513 2.49.871.29.312.346.67.379.926.011.09.034.146.112.146.089 0 .123-.056.123-.235 0-1.396.078-1.708.078-1.831 0-.078-.022-.123-.156-.134a7.222 7.222 0 0 1-.883-.123 13.372 13.372 0 0 0-1.976-.179c-.938 0-1.932.079-3.004.726-1.016.614-1.943 1.865-1.943 3.652 0 3.081 2.423 4.377 5.159 4.377.871 0 1.965-.123 2.691-.503.134-.078.145-.1.145-.402v-1.228zm5.904-1.262c0 1.027 0 1.91-.055 2.379-.045.323-.101.569-.324.614a1.856 1.856 0 0 1-.402.044c-.134 0-.179.034-.179.09 0 .078.078.111.223.111.224 0 .514-.022.771-.022.268-.011.514-.011.636-.011.335 0 .682.011 1.162.033.48.011 1.094.034 1.931.034.425 0 .525 0 .603-.29.056-.224.146-.983.146-1.24 0-.112 0-.201-.09-.201-.078 0-.1.045-.123.168-.078.457-.212.692-.502.826-.29.134-.759.134-1.05.134-1.139 0-1.317-.168-1.34-.938-.011-.324 0-1.351 0-1.731v-.882c0-.067.012-.112.067-.112.268 0 1.374.012 1.586.034.413.045.569.212.625.435.034.145.034.291.045.402 0 .056.022.101.1.101.101 0 .101-.123.101-.212 0-.079.033-.525.045-.748.044-.57.089-.749.089-.816 0-.067-.034-.089-.078-.089-.056 0-.101.056-.179.145-.1.112-.268.145-.536.168-.257.022-1.541.022-1.786.022-.067 0-.079-.045-.079-.123v-2.825c0-.078.023-.112.079-.112.223 0 1.395.023 1.585.045.558.067.67.201.748.402.056.134.067.324.067.402 0 .101.023.156.101.156.078 0 .1-.067.111-.122.023-.134.045-.626.056-.737.034-.514.09-.648.09-.726 0-.056-.012-.101-.067-.101-.056 0-.123.034-.179.045a4.444 4.444 0 0 1-.48.067c-.212.011-2.434.011-2.792.011-.156 0-.413-.011-.703-.022-.279 0-.603-.011-.905-.011-.167 0-.245.022-.245.1 0 .078.067.101.189.101.157 0 .347.011.436.033.368.078.458.257.48.637.022.357.022.67.022 2.367v1.965zm10.863 3.395c.592 0 1.217-.101 1.776-.458.804-.525 1.049-1.295 1.049-1.943 0-1.061-.48-1.831-1.831-2.847l-.313-.235c-.926-.703-1.183-1.094-1.183-1.608 0-.67.502-1.15 1.329-1.15.725 0 1.049.335 1.217.547.234.29.29.637.29.737 0 .134.034.201.112.201.089 0 .123-.089.123-.335 0-.871.044-1.195.044-1.34 0-.078-.056-.111-.156-.134a5.405 5.405 0 0 0-1.485-.19c-1.552 0-2.58.882-2.58 2.111 0 .904.425 1.686 1.653 2.646l.514.402c.926.726 1.094 1.24 1.094 1.787 0 .592-.491 1.273-1.496 1.273-.693 0-1.351-.302-1.597-1.128a2.351 2.351 0 0 1-.101-.57c0-.089-.011-.189-.111-.189-.09 0-.123.122-.134.29-.011.179-.056.849-.056 1.463 0 .245.033.301.212.379.48.212.983.291 1.63.291zM3.16 240.211c0 1.028 0 1.91-.056 2.379-.033.323-.1.569-.324.614-.1.022-.234.044-.402.044-.134 0-.178.034-.178.09 0 .078.078.111.223.111.447 0 1.15-.033 1.407-.033.313 0 1.016.033 1.753.033.123 0 .212-.033.212-.111 0-.056-.056-.09-.178-.09-.168 0-.414-.022-.57-.044-.335-.045-.402-.291-.435-.603-.056-.48-.056-1.362-.056-2.39v-4.578l1.407.034c.994.022 1.295.335 1.317.625l.012.123c.01.167.033.223.122.223.067 0 .09-.067.1-.179 0-.29.034-1.06.034-1.295 0-.167-.01-.234-.089-.234-.045 0-.134.022-.301.055a5.248 5.248 0 0 1-.77.056H1.964c-.368 0-.793-.022-1.116-.056-.28-.022-.391-.133-.48-.133-.068 0-.101.066-.135.212-.022.089-.234 1.105-.234 1.284 0 .123.022.178.1.178.067 0 .101-.044.123-.134.023-.089.078-.223.19-.39.168-.246.436-.302 1.083-.324l1.664-.045v4.578zm10.697-1.652c-.034 0-.067-.023-.067-.078v-.235c0-1.697 0-2.01.022-2.367.023-.391.112-.581.413-.637.134-.022.235-.033.324-.033.134 0 .201-.023.201-.101 0-.078-.078-.1-.234-.1-.436 0-1.14.033-1.407.033-.302 0-1.005-.033-1.608-.033-.157 0-.235.022-.235.1 0 .078.067.101.19.101.156 0 .346.011.436.033.368.078.457.257.48.637.022.357.022.67.022 2.367v1.965c0 1.028 0 1.91-.056 2.379-.044.323-.1.569-.324.614-.1.022-.234.044-.402.044-.134 0-.178.034-.178.09 0 .078.078.111.223.111.447 0 1.15-.033 1.407-.033.313 0 1.016.033 1.742.033.134 0 .223-.033.223-.111 0-.056-.056-.09-.178-.09-.168 0-.414-.022-.57-.044-.335-.045-.402-.291-.435-.603-.056-.48-.056-1.362-.056-2.39v-.982c0-.056.033-.067.067-.067h4.265c.034 0 .067.022.067.067v.982c0 1.028 0 1.91-.055 2.379-.045.323-.101.569-.324.614-.1.022-.235.044-.402.044-.134 0-.179.034-.179.09 0 .078.078.111.235.111.435 0 1.138-.033 1.395-.033.313 0 1.016.033 1.742.033.134 0 .224-.033.224-.111 0-.056-.056-.09-.18-.09-.167 0-.412-.022-.569-.044-.335-.045-.402-.291-.435-.603-.056-.48-.056-1.362-.056-2.39v-1.965c0-1.697 0-2.01.022-2.367.023-.391.112-.581.413-.637.134-.022.235-.033.324-.033.134 0 .201-.023.201-.101 0-.078-.078-.1-.234-.1-.436 0-1.14.033-1.407.033-.302 0-1.005-.033-1.608-.033-.156 0-.235.022-.235.1 0 .078.067.101.19.101.157 0 .346.011.436.033.368.078.458.257.48.637.022.357.022.67.022 2.367v.235c0 .055-.033.078-.067.078h-4.265zm12.178 1.652c0 1.028 0 1.91-.055 2.379-.045.323-.1.569-.324.614-.1.022-.235.044-.402.044-.134 0-.179.034-.179.09 0 .078.078.111.224.111.446 0 1.15-.033 1.362-.033.167 0 .994.033 1.641.033.145 0 .224-.033.224-.111 0-.056-.045-.09-.134-.09a5.21 5.21 0 0 1-.547-.044c-.335-.045-.402-.291-.436-.614-.056-.469-.056-1.351-.056-2.39v-.156c0-.067.034-.09.09-.09l.97.023c.08 0 .146.011.202.078.145.167.659.927 1.105 1.541.626.86 1.05 1.384 1.53 1.641.29.157.57.212 1.195.212h1.06c.135 0 .213-.022.213-.111 0-.056-.045-.09-.134-.09-.09 0-.19-.011-.313-.033-.167-.034-.625-.112-1.25-.759-.66-.693-1.43-1.686-2.423-2.937 1.127-.916 1.474-1.675 1.474-2.501 0-.748-.447-1.318-.76-1.53-.603-.413-1.35-.48-2.054-.48-.346 0-1.195.033-1.575.033-.234 0-.938-.033-1.53-.033-.167 0-.245.022-.245.1 0 .078.067.101.19.101.156 0 .346.011.435.033.368.078.458.257.48.637.022.357.022.67.022 2.367v1.965zm1.318-4.477c0-.09.022-.134.1-.157.112-.033.313-.044.593-.044.658 0 1.708.457 1.708 2.043 0 .916-.324 1.429-.659 1.675-.2.145-.346.19-.793.19-.279 0-.614-.034-.848-.112-.079-.033-.1-.078-.1-.201v-3.394zm13.132 7.872c2.836 0 4.622-2.021 4.622-4.578 0-2.557-1.73-4.176-4.51-4.176-3.35 0-4.612 2.467-4.612 4.377 0 1.976 1.295 4.377 4.5 4.377zm.469-.559c-2.144 0-3.428-1.842-3.428-4.165 0-2.78 1.462-3.495 2.746-3.495 1.832 0 3.272 1.553 3.272 4.054 0 3.227-1.809 3.606-2.59 3.606zm8.907-3.171c0 1.619.425 2.446.994 2.959.815.737 1.887.771 2.48.771.725 0 1.529-.123 2.322-.804.938-.804 1.06-2.122 1.06-3.361v-1.195c0-1.697 0-2.01.023-2.367.022-.391.111-.581.413-.637.134-.022.201-.033.324-.033.134 0 .2-.023.2-.101 0-.078-.077-.1-.234-.1-.435 0-1.139.033-1.273.033-.01 0-.714-.033-1.284-.033-.156 0-.234.022-.234.1 0 .078.067.101.19.101.122 0 .312.011.402.033.368.078.457.257.48.637.022.357.022.67.022 2.367v1.396c0 1.15-.033 2.155-.648 2.769-.446.447-1.05.603-1.54.603-.38 0-.894-.045-1.396-.458-.547-.446-.871-1.128-.871-2.747v-1.563c0-1.697 0-2.01.022-2.367.022-.391.112-.581.413-.637.134-.022.201-.033.324-.033.112 0 .179-.023.179-.101 0-.078-.078-.1-.246-.1-.402 0-1.105.033-1.373.033-.335 0-1.039-.033-1.63-.033-.168 0-.246.022-.246.1 0 .078.067.101.19.101.156 0 .346.011.435.033.368.078.458.257.48.637.023.357.023.67.023 2.367v1.63zm19.559 1.597c0-.558 0-1.005.01-1.34.012-.391.124-.581.425-.636a1.7 1.7 0 0 1 .302-.034c.078 0 .145-.022.145-.089 0-.09-.078-.112-.223-.112-.369 0-.96.034-1.307.034-.335 0-1.038-.034-1.619-.034-.156 0-.235.022-.235.112 0 .067.067.089.168.089.156 0 .346.011.436.034.368.078.468.256.48.636.01.335.01.759.01 1.318v1.049c0 .19-.044.335-.211.413-.268.123-.66.123-.95.123-2.355 0-3.885-1.797-3.885-4.198 0-1.374.402-2.211 1.027-2.736.782-.648 1.597-.692 2.21-.692 1.263 0 2.156.513 2.491.871.29.312.346.67.38.927.01.089.033.145.111.145.09 0 .123-.056.123-.235 0-1.396.078-1.708.078-1.831 0-.078-.022-.123-.156-.134a7.2 7.2 0 0 1-.882-.123 13.557 13.557 0 0 0-1.977-.178c-.938 0-1.931.078-3.003.725-1.016.614-1.943 1.865-1.943 3.652 0 3.082 2.423 4.377 5.159 4.377.87 0 1.965-.123 2.69-.503.135-.078.146-.1.146-.402v-1.228zm7.367-2.914c-.034 0-.067-.023-.067-.078v-.235c0-1.697 0-2.01.022-2.367.022-.391.112-.581.413-.637.134-.022.234-.033.324-.033.134 0 .2-.023.2-.101 0-.078-.077-.1-.234-.1-.435 0-1.139.033-1.407.033-.301 0-1.004-.033-1.608-.033-.156 0-.234.022-.234.1 0 .078.067.101.19.101.156 0 .346.011.435.033.369.078.458.257.48.637.023.357.023.67.023 2.367v1.965c0 1.028 0 1.91-.056 2.379-.045.323-.1.569-.324.614-.1.022-.234.044-.402.044-.134 0-.178.034-.178.09 0 .078.078.111.223.111.447 0 1.15-.033 1.407-.033.312 0 1.016.033 1.742.033.134 0 .223-.033.223-.111 0-.056-.056-.09-.179-.09-.167 0-.413-.022-.57-.044-.334-.045-.401-.291-.435-.603-.055-.48-.055-1.362-.055-2.39v-.982c0-.056.033-.067.067-.067h4.265c.033 0 .067.022.067.067v.982c0 1.028 0 1.91-.056 2.379-.044.323-.1.569-.324.614-.1.022-.234.044-.402.044-.134 0-.178.034-.178.09 0 .078.078.111.234.111.436 0 1.14-.033 1.396-.033.313 0 1.016.033 1.742.033.134 0 .223-.033.223-.111 0-.056-.056-.09-.178-.09-.168 0-.413-.022-.57-.044-.335-.045-.402-.291-.435-.603-.056-.48-.056-1.362-.056-2.39v-1.965c0-1.697 0-2.01.022-2.367.022-.391.112-.581.413-.637.134-.022.235-.033.324-.033.134 0 .201-.023.201-.101 0-.078-.078-.1-.234-.1-.436 0-1.14.033-1.407.033-.302 0-1.005-.033-1.608-.033-.157 0-.235.022-.235.1 0 .078.067.101.19.101.156 0 .346.011.436.033.368.078.457.257.48.637.022.357.022.67.022 2.367v.235c0 .055-.034.078-.067.078h-4.265zm18.317 1.652c0 1.028 0 1.91-.055 2.379-.045.323-.1.569-.324.614-.1.022-.235.044-.402.044-.134 0-.179.034-.179.09 0 .078.078.111.224.111.446 0 1.15-.033 1.407-.033.29 0 .993.033 1.73.033.123 0 .212-.033.212-.111 0-.056-.055-.09-.178-.09-.168 0-.413-.022-.57-.044-.335-.045-.402-.291-.435-.603-.056-.48-.056-1.362-.056-2.39v-4.466c0-.123.034-.19.09-.212.1-.034.267-.045.435-.045.257 0 .714.067 1.116.435.626.559.66 1.307.66 1.675 0 1.139-.872 1.843-1.497 1.843-.235 0-.313.033-.313.123 0 .078.078.089.134.1.056.011.179.011.235.011 1.585 0 2.747-1.116 2.747-2.702 0-.592-.313-1.094-.559-1.329-.178-.167-.68-.636-2.077-.636-.513 0-1.16.033-1.619.033-.312 0-1.016-.033-1.608-.033-.167 0-.245.022-.245.1 0 .078.067.101.19.101.156 0 .346.011.435.033.368.078.458.257.48.637.023.357.023.67.023 2.367v1.965zm10.109 0c0 1.028 0 1.91-.056 2.379-.045.323-.1.569-.324.614-.1.022-.234.044-.402.044-.134 0-.178.034-.178.09 0 .078.078.111.223.111.223 0 .514-.022.77-.022.268-.011.514-.011.637-.011.335 0 .681.011 1.161.033.48.012 1.095.034 1.932.034.424 0 .525 0 .603-.29.056-.224.145-.983.145-1.24 0-.111 0-.201-.089-.201-.078 0-.101.045-.123.168-.078.458-.212.692-.503.826-.29.134-.759.134-1.049.134-1.139 0-1.318-.168-1.34-.938-.011-.324 0-1.351 0-1.731v-.882c0-.067.011-.112.067-.112.268 0 1.373.012 1.586.034.413.045.569.212.625.435.033.146.033.291.044.402 0 .056.023.101.101.101.1 0 .1-.123.1-.212 0-.078.034-.525.045-.748.045-.57.089-.748.089-.815 0-.067-.033-.09-.078-.09-.056 0-.1.056-.178.145-.101.112-.268.146-.536.168-.257.022-1.541.022-1.787.022-.067 0-.078-.044-.078-.123v-2.825c0-.078.022-.111.078-.111.223 0 1.396.022 1.586.044.558.067.67.201.748.402.056.134.067.324.067.402 0 .101.022.157.1.157.078 0 .101-.067.112-.123.022-.134.045-.626.056-.737.033-.514.089-.648.089-.726 0-.056-.011-.1-.067-.1-.056 0-.123.033-.179.044a4.444 4.444 0 0 1-.48.067c-.212.011-2.434.011-2.791.011-.157 0-.413-.011-.704-.022-.279 0-.603-.011-.904-.011-.168 0-.246.022-.246.1 0 .078.067.101.19.101.156 0 .346.011.436.033.368.078.457.257.48.637.022.357.022.67.022 2.367v1.965zm9.847 0c0 1.028 0 1.91-.056 2.379-.045.323-.101.569-.324.614-.1.022-.234.044-.402.044-.134 0-.179.034-.179.09 0 .078.079.111.224.111.446 0 1.15-.033 1.362-.033.168 0 .994.033 1.641.033.146 0 .224-.033.224-.111 0-.056-.045-.09-.134-.09-.134 0-.38-.022-.547-.044-.335-.045-.402-.291-.436-.614-.056-.469-.056-1.351-.056-2.39v-.156c0-.067.034-.09.09-.09l.971.023c.078 0 .145.011.201.078.145.167.659.927 1.106 1.541.625.86 1.049 1.384 1.529 1.641.291.157.57.212 1.195.212h1.061c.134 0 .212-.022.212-.111 0-.056-.045-.09-.134-.09-.089 0-.19-.011-.313-.033-.167-.034-.625-.112-1.25-.759-.659-.693-1.429-1.686-2.423-2.937 1.128-.916 1.474-1.675 1.474-2.501 0-.748-.447-1.318-.76-1.53-.603-.413-1.351-.48-2.054-.48-.346 0-1.195.033-1.575.033-.234 0-.938-.033-1.529-.033-.168 0-.246.022-.246.1 0 .078.067.101.19.101.156 0 .346.011.435.033.369.078.458.257.48.637.023.357.023.67.023 2.367v1.965zm1.317-4.477c0-.09.023-.134.101-.157.111-.033.312-.044.592-.044.658 0 1.708.457 1.708 2.043 0 .916-.324 1.429-.659 1.675-.201.145-.346.19-.793.19-.279 0-.614-.034-.848-.112-.078-.033-.101-.078-.101-.201v-3.394zm10.756 7.872c.592 0 1.217-.101 1.775-.458.804-.525 1.05-1.295 1.05-1.943 0-1.061-.48-1.831-1.831-2.847l-.313-.235c-.927-.703-1.183-1.094-1.183-1.608 0-.67.502-1.15 1.328-1.15.726 0 1.05.335 1.217.547.235.291.291.637.291.737 0 .134.033.201.111.201.09 0 .123-.089.123-.335 0-.871.045-1.195.045-1.34 0-.078-.056-.111-.156-.134a5.43 5.43 0 0 0-1.486-.189c-1.552 0-2.579.882-2.579 2.11 0 .904.424 1.686 1.653 2.646l.513.402c.927.726 1.095 1.24 1.095 1.787 0 .592-.492 1.273-1.497 1.273-.692 0-1.351-.302-1.596-1.128a2.352 2.352 0 0 1-.101-.569c0-.09-.011-.19-.112-.19-.089 0-.122.123-.134.29-.011.179-.055.849-.055 1.463 0 .245.033.301.212.379.48.213.982.291 1.63.291zm8.274-3.395c0 1.083 0 1.966-.055 2.435-.034.323-.101.513-.324.558a1.856 1.856 0 0 1-.402.044c-.134 0-.179.034-.179.09 0 .078.078.111.224.111.446 0 1.15-.033 1.406-.033.302 0 1.005.033 1.742.033.123 0 .213-.033.213-.111 0-.056-.056-.09-.179-.09-.168 0-.413-.022-.57-.044-.335-.045-.413-.246-.446-.547-.045-.48-.045-1.363-.045-2.446v-1.965c0-1.697 0-2.01.022-2.367.023-.391.112-.581.414-.637.134-.022.223-.033.335-.033.111 0 .178-.023.178-.112 0-.067-.089-.089-.234-.089-.425 0-1.083.033-1.363.033-.323 0-1.027-.033-1.451-.033-.179 0-.268.022-.268.089 0 .089.067.112.179.112.134 0 .279.011.402.044.245.056.357.246.379.626.022.357.022.67.022 2.367v1.965zm8.857 3.395c.592 0 1.217-.101 1.775-.458.804-.525 1.05-1.295 1.05-1.943 0-1.061-.48-1.831-1.831-2.847l-.313-.235c-.927-.703-1.184-1.094-1.184-1.608 0-.67.503-1.15 1.329-1.15.726 0 1.05.335 1.217.547.235.291.291.637.291.737 0 .134.033.201.111.201.09 0 .123-.089.123-.335 0-.871.045-1.195.045-1.34 0-.078-.056-.111-.157-.134a5.415 5.415 0 0 0-1.485-.189c-1.552 0-2.579.882-2.579 2.11 0 .904.424 1.686 1.653 2.646l.513.402c.927.726 1.095 1.24 1.095 1.787 0 .592-.492 1.273-1.497 1.273-.692 0-1.351-.302-1.596-1.128a2.352 2.352 0 0 1-.101-.569c0-.09-.011-.19-.112-.19-.089 0-.122.123-.134.29-.011.179-.055.849-.055 1.463 0 .245.033.301.212.379.48.213.982.291 1.63.291zm9.76-3.395c0 1.028 0 1.91-.056 2.379-.034.323-.101.569-.324.614a1.856 1.856 0 0 1-.402.044c-.134 0-.179.034-.179.09 0 .078.078.111.224.111.446 0 1.15-.033 1.406-.033.313 0 1.017.033 1.754.033.122 0 .212-.033.212-.111 0-.056-.056-.09-.179-.09-.167 0-.413-.022-.569-.044-.335-.045-.402-.291-.436-.603-.056-.48-.056-1.362-.056-2.39v-4.578l1.407.034c.994.022 1.296.335 1.318.625l.011.123c.011.167.034.223.123.223.067 0 .089-.067.1-.179 0-.29.034-1.06.034-1.295 0-.167-.011-.234-.089-.234-.045 0-.134.022-.302.055a5.238 5.238 0 0 1-.77.056h-4.422c-.369 0-.793-.022-1.117-.056-.279-.022-.391-.133-.48-.133-.067 0-.1.066-.134.212-.022.089-.235 1.105-.235 1.284 0 .123.023.178.101.178.067 0 .1-.044.123-.134.022-.089.078-.223.19-.39.167-.246.435-.302 1.083-.324l1.664-.045v4.578zm9.234 0c0 1.028 0 1.91-.056 2.379-.045.323-.101.569-.324.614a1.856 1.856 0 0 1-.402.044c-.134 0-.179.034-.179.09 0 .078.078.111.224.111.223 0 .513-.022.77-.022.268-.011.514-.011.637-.011.334 0 .681.011 1.161.033.48.012 1.094.034 1.932.034.424 0 .524 0 .603-.29.055-.224.145-.983.145-1.24 0-.111 0-.201-.09-.201-.078 0-.1.045-.122.168-.079.458-.213.692-.503.826-.29.134-.759.134-1.05.134-1.139 0-1.317-.168-1.34-.938-.011-.324 0-1.351 0-1.731v-.882c0-.067.012-.112.067-.112.268 0 1.374.012 1.586.034.413.045.57.212.625.435.034.146.034.291.045.402 0 .056.022.101.101.101.1 0 .1-.123.1-.212 0-.078.034-.525.045-.748.044-.57.089-.748.089-.815 0-.067-.033-.09-.078-.09-.056 0-.101.056-.179.145-.1.112-.268.146-.536.168-.257.022-1.541.022-1.786.022-.067 0-.079-.044-.079-.123v-2.825c0-.078.023-.111.079-.111.223 0 1.395.022 1.585.044.559.067.67.201.748.402.056.134.067.324.067.402 0 .101.023.157.101.157.078 0 .1-.067.112-.123.022-.134.044-.626.055-.737.034-.514.09-.648.09-.726 0-.056-.011-.1-.067-.1-.056 0-.123.033-.179.044a4.444 4.444 0 0 1-.48.067c-.212.011-2.434.011-2.792.011-.156 0-.413-.011-.703-.022-.279 0-.603-.011-.905-.011-.167 0-.245.022-.245.1 0 .078.067.101.19.101.156 0 .346.011.435.033.369.078.458.257.48.637.023.357.023.67.023 2.367v1.965zm10.349-2.97h.033c.201.212 1.441 1.608 2.658 2.814 1.161 1.15 2.59 2.613 3.294 3.283.123.123.257.245.379.245.101 0 .146-.1.146-.346l.122-7.046c.012-.625.101-.859.414-.949.134-.033.223-.033.335-.033.134 0 .201-.034.201-.101 0-.089-.112-.1-.257-.1-.547 0-.972.033-1.095.033-.234 0-.77-.033-1.351-.033-.167 0-.29.011-.29.1 0 .067.045.101.179.101.156 0 .424 0 .592.067.268.111.368.324.379 1.005l.112 5.013h-.056c-.19-.178-1.697-1.786-2.457-2.545-1.63-1.62-3.327-3.44-3.461-3.585-.19-.201-.29-.346-.413-.346-.112 0-.145.156-.145.38l-.101 6.61c-.011.972-.056 1.295-.346 1.385a2.005 2.005 0 0 1-.502.055c-.112 0-.179.023-.179.09 0 .1.1.111.245.111.581 0 1.106-.033 1.206-.033.213 0 .659.033 1.385.033.156 0 .257-.022.257-.111 0-.067-.067-.09-.19-.09-.179 0-.391-.011-.581-.078-.223-.078-.368-.368-.39-1.239l-.123-4.69zm16.755 6.365c.714 0 1.563-.078 2.01-.257.189-.078.234-.134.29-.324.112-.38.246-1.351.246-1.485 0-.089-.023-.167-.101-.167-.089 0-.112.044-.145.223-.045.201-.19.525-.38.737-.446.513-1.049.625-2.043.625-1.496 0-3.518-1.317-3.518-3.975 0-1.083.213-2.144 1.028-2.892.491-.447 1.128-.692 2.099-.692 1.027 0 1.898.301 2.267.692.279.29.424.681.435 1.027 0 .157.023.246.112.246.1 0 .123-.089.134-.257.022-.223.011-.837.033-1.206.023-.391.056-.525.056-.614 0-.067-.044-.123-.167-.134-.335-.034-.693-.134-1.117-.19a11.053 11.053 0 0 0-1.619-.111c-1.664 0-2.725.446-3.529 1.183-1.071.983-1.306 2.3-1.306 3.06 0 1.083.29 2.333 1.385 3.294 1.016.882 2.3 1.217 3.83 1.217zm7.724-3.395c0 1.028 0 1.91-.055 2.379-.045.323-.101.569-.324.614a1.856 1.856 0 0 1-.402.044c-.134 0-.179.034-.179.09 0 .078.078.111.223.111.224 0 .514-.022.771-.022.268-.011.514-.011.636-.011.335 0 .682.011 1.162.033.48.012 1.094.034 1.931.034.425 0 .525 0 .603-.29.056-.224.146-.983.146-1.24 0-.111 0-.201-.09-.201-.078 0-.1.045-.123.168-.078.458-.212.692-.502.826-.29.134-.759.134-1.05.134-1.139 0-1.317-.168-1.34-.938-.011-.324 0-1.351 0-1.731v-.882c0-.067.012-.112.067-.112.268 0 1.374.012 1.586.034.413.045.569.212.625.435.034.146.034.291.045.402 0 .056.022.101.1.101.101 0 .101-.123.101-.212 0-.078.033-.525.045-.748.044-.57.089-.748.089-.815 0-.067-.034-.09-.078-.09-.056 0-.101.056-.179.145-.1.112-.268.146-.536.168-.257.022-1.541.022-1.786.022-.067 0-.079-.044-.079-.123v-2.825c0-.078.023-.111.079-.111.223 0 1.395.022 1.585.044.558.067.67.201.748.402.056.134.067.324.067.402 0 .101.023.157.101.157.078 0 .1-.067.111-.123.023-.134.045-.626.056-.737.034-.514.09-.648.09-.726 0-.056-.012-.1-.067-.1-.056 0-.123.033-.179.044a4.444 4.444 0 0 1-.48.067c-.212.011-2.434.011-2.792.011-.156 0-.413-.011-.703-.022-.279 0-.603-.011-.905-.011-.167 0-.245.022-.245.1 0 .078.067.101.189.101.157 0 .347.011.436.033.368.078.458.257.48.637.022.357.022.67.022 2.367v1.965zm8.731 2.412c0 .156.469.335.469.972 0 .256-.09.569-.324.971-.023.056-.09.134-.09.19 0 .056.056.112.09.112.067 0 .111-.067.19-.134.379-.436.737-1.151.882-1.486.078-.178.145-.424.145-.536 0-.122-.056-.301-.246-.58-.145-.223-.178-.279-.279-.279-.335 0-.837.379-.837.77zm12.839-2.412c0 1.028 0 1.91-.056 2.379-.045.323-.101.569-.324.614a1.856 1.856 0 0 1-.402.044c-.134 0-.179.034-.179.09 0 .078.078.111.224.111.446 0 1.15-.033 1.406-.033.291 0 .994.033 1.731.033.123 0 .212-.033.212-.111 0-.056-.055-.09-.178-.09-.168 0-.413-.022-.57-.044-.335-.045-.402-.291-.435-.603-.056-.48-.056-1.362-.056-2.39v-4.466c0-.123.033-.19.089-.212.101-.034.268-.045.436-.045.257 0 .714.067 1.116.435.626.559.659 1.307.659 1.675 0 1.139-.871 1.843-1.496 1.843-.235 0-.313.033-.313.123 0 .078.078.089.134.1.056.011.179.011.235.011 1.585 0 2.747-1.116 2.747-2.702a1.94 1.94 0 0 0-.559-1.329c-.178-.167-.681-.636-2.077-.636-.513 0-1.161.033-1.619.033-.312 0-1.016-.033-1.608-.033-.167 0-.245.022-.245.1 0 .078.067.101.19.101.156 0 .346.011.435.033.369.078.458.257.48.637.023.357.023.67.023 2.367v1.965zm10.108 0c0 1.028 0 1.91-.056 2.379-.045.323-.1.569-.324.614-.1.022-.234.044-.402.044-.134 0-.178.034-.178.09 0 .078.078.111.223.111.447 0 1.15-.033 1.362-.033.168 0 .994.033 1.642.033.145 0 .223-.033.223-.111 0-.056-.045-.09-.134-.09-.134 0-.38-.022-.547-.044-.335-.045-.402-.291-.436-.614-.055-.469-.055-1.351-.055-2.39v-.156c0-.067.033-.09.089-.09l.971.023c.079 0 .146.011.201.078.146.167.659.927 1.106 1.541.625.86 1.049 1.384 1.53 1.641.29.157.569.212 1.194.212h1.061c.134 0 .212-.022.212-.111 0-.056-.044-.09-.134-.09-.089 0-.19-.011-.312-.033-.168-.034-.626-.112-1.251-.759-.659-.693-1.429-1.686-2.423-2.937 1.128-.916 1.474-1.675 1.474-2.501 0-.748-.447-1.318-.759-1.53-.603-.413-1.351-.48-2.055-.48-.346 0-1.195.033-1.574.033-.235 0-.938-.033-1.53-.033-.168 0-.246.022-.246.1 0 .078.067.101.19.101.156 0 .346.011.435.033.369.078.458.257.481.637.022.357.022.67.022 2.367v1.965zm1.318-4.477c0-.09.022-.134.1-.157.112-.033.313-.044.592-.044.659 0 1.708.457 1.708 2.043 0 .916-.324 1.429-.658 1.675-.201.145-.347.19-.793.19-.279 0-.614-.034-.849-.112-.078-.033-.1-.078-.1-.201v-3.394zm12.839 4.801c.056 0 .09.022.112.078l.893 2.367c.056.134-.022.235-.1.257-.112.011-.156.034-.156.101 0 .078.134.078.335.089.893.022 1.708.022 2.11.022.413 0 .514-.022.514-.111 0-.078-.056-.09-.146-.09a2.49 2.49 0 0 1-.469-.044c-.234-.056-.558-.212-.982-1.217-.715-1.698-2.501-6.253-2.769-6.868-.112-.256-.179-.357-.28-.357-.111 0-.178.123-.312.447l-2.803 7.012c-.223.559-.435.938-.949 1.005a3.432 3.432 0 0 1-.346.022c-.09 0-.134.023-.134.09 0 .089.067.111.212.111.581 0 1.195-.033 1.318-.033.346 0 .826.033 1.183.033.123 0 .19-.022.19-.111 0-.067-.034-.09-.168-.09h-.167c-.346 0-.447-.145-.447-.346 0-.134.056-.402.168-.681l.603-1.597c.022-.067.044-.089.1-.089h2.49zm-2.266-.558c-.045 0-.056-.034-.045-.078l1.027-2.747c.011-.045.034-.101.067-.101.034 0 .045.056.056.101l1.005 2.758c.011.033 0 .067-.056.067h-2.054zm10.798 1.496c0 .179 0 .648-.034 1.117-.022.323-.123.569-.346.614-.1.022-.234.044-.391.044-.123 0-.178.034-.178.09 0 .089.089.111.245.111.413 0 1.117-.033 1.396-.033.302 0 1.005.033 1.709.033.145 0 .234-.033.234-.111 0-.056-.056-.09-.179-.09-.156 0-.402-.022-.558-.044-.335-.045-.435-.291-.458-.614-.033-.469-.033-.938-.033-1.117v-.916c0-.368 0-.714.167-1.116.201-.48 1.764-3.104 2.133-3.551.246-.302.368-.436.603-.547.167-.09.38-.134.491-.134.123 0 .212-.034.212-.112 0-.067-.078-.089-.201-.089-.212 0-.949.033-1.194.033-.324 0-.682-.033-1.05-.033-.134 0-.19.022-.19.1 0 .067.101.09.201.112.19.045.235.167.235.279 0 .145-.045.335-.157.581-.156.346-1.563 2.802-1.675 3.07-.178-.312-1.742-3.003-1.898-3.338-.078-.157-.134-.291-.134-.38 0-.089.056-.179.156-.201.168-.045.246-.056.246-.123s-.056-.1-.167-.1c-.503 0-.961.033-1.195.033-.369 0-1.206-.033-1.407-.033-.134 0-.212.033-.212.1 0 .078.078.101.167.101.134 0 .324.067.469.145.212.123.492.402.771.815.391.581 1.887 3.037 1.965 3.216.145.324.257.569.257 1.172v.916zm9.021-1.262c0 1.028 0 1.91-.056 2.379-.044.323-.1.569-.323.614a1.856 1.856 0 0 1-.402.044c-.134 0-.179.034-.179.09 0 .078.078.111.223.111.224 0 .514-.022.771-.022.268-.011.513-.011.636-.011.335 0 .681.011 1.161.033.481.012 1.095.034 1.932.034.424 0 .525 0 .603-.29.056-.224.145-.983.145-1.24 0-.111 0-.201-.089-.201-.078 0-.1.045-.123.168-.078.458-.212.692-.502.826-.291.134-.76.134-1.05.134-1.139 0-1.318-.168-1.34-.938-.011-.324 0-1.351 0-1.731v-.882c0-.067.011-.112.067-.112.268 0 1.374.012 1.586.034.413.045.569.212.625.435.034.146.034.291.045.402 0 .056.022.101.1.101.101 0 .101-.123.101-.212 0-.078.033-.525.044-.748.045-.57.09-.748.09-.815 0-.067-.034-.09-.078-.09-.056 0-.101.056-.179.145-.101.112-.268.146-.536.168-.257.022-1.541.022-1.787.022-.067 0-.078-.044-.078-.123v-2.825c0-.078.022-.111.078-.111.224 0 1.396.022 1.586.044.558.067.67.201.748.402.056.134.067.324.067.402 0 .101.022.157.101.157.078 0 .1-.067.111-.123.023-.134.045-.626.056-.737.034-.514.089-.648.089-.726 0-.056-.011-.1-.067-.1-.055 0-.122.033-.178.044-.09.022-.268.045-.48.067-.213.011-2.435.011-2.792.011-.156 0-.413-.011-.703-.022-.28 0-.603-.011-.905-.011-.167 0-.246.022-.246.1 0 .078.067.101.19.101.157 0 .346.011.436.033.368.078.458.257.48.637.022.357.022.67.022 2.367v1.965zm9.847 0c0 1.028 0 1.91-.056 2.379-.045.323-.1.569-.324.614-.1.022-.234.044-.402.044-.134 0-.178.034-.178.09 0 .078.078.111.223.111.447 0 1.15-.033 1.362-.033.168 0 .994.033 1.642.033.145 0 .223-.033.223-.111 0-.056-.045-.09-.134-.09-.134 0-.38-.022-.547-.044-.335-.045-.402-.291-.436-.614-.055-.469-.055-1.351-.055-2.39v-.156c0-.067.033-.09.089-.09l.971.023c.078 0 .145.011.201.078.145.167.659.927 1.106 1.541.625.86 1.049 1.384 1.53 1.641.29.157.569.212 1.194.212h1.061c.134 0 .212-.022.212-.111 0-.056-.044-.09-.134-.09-.089 0-.19-.011-.312-.033-.168-.034-.626-.112-1.251-.759-.659-.693-1.429-1.686-2.423-2.937 1.128-.916 1.474-1.675 1.474-2.501 0-.748-.447-1.318-.759-1.53-.603-.413-1.352-.48-2.055-.48-.346 0-1.195.033-1.574.033-.235 0-.938-.033-1.53-.033-.168 0-.246.022-.246.1 0 .078.067.101.19.101.156 0 .346.011.435.033.369.078.458.257.481.637.022.357.022.67.022 2.367v1.965zm1.318-4.477c0-.09.022-.134.1-.157.112-.033.313-.044.592-.044.659 0 1.708.457 1.708 2.043 0 .916-.324 1.429-.659 1.675-.201.145-.346.19-.792.19-.279 0-.614-.034-.849-.112-.078-.033-.1-.078-.1-.201v-3.394zm14.858 5.404c0 .972.715 2.468 3.104 2.468 1.53 0 2.278-.681 2.647-1.016.96.737 1.362.859 2.635.859h.86c.246 0 .335-.033.335-.1 0-.089-.056-.101-.156-.101-.224 0-.838-.178-1.195-.39-.302-.179-.804-.48-1.552-1.095.636-.748 1.094-1.786 1.094-2.646 0-.134-.168-.201-.38-.223a12.572 12.572 0 0 0-1.34-.079c-.089 0-.178.023-.178.112 0 .067.067.089.134.089.167 0 .402.034.547.168a.66.66 0 0 1 .212.514c0 .681-.313 1.407-.536 1.719-.212-.19-1.586-1.429-1.965-1.865-.894-.993-1.854-1.887-1.854-2.936 0-.949.726-1.273 1.195-1.273.625 0 1.016.234 1.239.502.246.291.324.648.324.938 0 .168.011.212.078.212s.112-.022.134-.189c.034-.168.123-1.061.123-1.43 0-.134 0-.223-.19-.29-.301-.123-.804-.234-1.351-.234-1.943 0-2.724 1.172-2.713 2.054.011.503.1.96.569 1.586-.67.324-1.82 1.34-1.82 2.646zm3.484 1.764c-1.161 0-2.144-.893-2.144-2.289 0-.893.391-1.418.771-1.697.189.279.904 1.083 1.194 1.396a37.376 37.376 0 0 0 2.01 1.92c-.234.224-.971.67-1.831.67zm17.306-3.595c0-.078.023-.101.079-.101.189 0 1.373 0 1.652.034.346.044.514.245.57.402.044.134.067.268.067.346 0 .078.022.156.089.156.112 0 .112-.111.112-.212 0-.078.022-.592.044-.815.034-.346.09-.625.09-.692 0-.067-.023-.101-.067-.101-.067 0-.09.045-.146.112-.111.145-.268.19-.48.201-.156.011-.312.011-.502.011l-1.429.011c-.067 0-.079-.033-.079-.1v-2.792c0-.123.034-.156.101-.156l1.719.033c.425.011.659.179.737.335.067.157.067.335.067.425.012.122.034.178.112.178s.101-.067.112-.156c.022-.134.044-.793.056-.905.033-.29.089-.424.089-.502 0-.056-.034-.1-.078-.1-.056 0-.112.044-.179.066-.112.034-.246.034-.458.045-.257.011-2.523.011-2.948.011-.156 0-.413-.011-.703-.022-.29 0-.614-.011-.905-.011-.167 0-.256.022-.256.111 0 .067.078.09.19.09.156 0 .346.011.435.033.368.078.458.257.48.637.022.357.022.67.022 2.367v1.965c0 1.072 0 1.91-.055 2.379-.045.323-.101.569-.324.614a1.856 1.856 0 0 1-.402.044c-.123 0-.168.034-.168.09 0 .089.078.111.235.111.424 0 1.128-.033 1.418-.033.29 0 .994.033 1.697.033.168 0 .246-.033.246-.111 0-.056-.045-.09-.19-.09-.156 0-.402-.022-.558-.044-.335-.045-.402-.291-.436-.614-.056-.469-.056-1.307-.056-2.379v-.904zm11.05 1.228c.056 0 .089.022.111.078l.894 2.367c.056.134-.023.235-.101.257-.111.011-.156.034-.156.101 0 .078.134.078.335.089.893.022 1.708.022 2.11.022.413 0 .514-.022.514-.111 0-.078-.056-.09-.145-.09-.134 0-.302-.011-.469-.044-.235-.056-.559-.212-.983-1.217-.714-1.698-2.501-6.253-2.769-6.868-.112-.256-.179-.357-.279-.357-.112 0-.179.123-.313.447l-2.803 7.012c-.223.559-.435.938-.949 1.005a3.413 3.413 0 0 1-.346.022c-.089 0-.134.023-.134.09 0 .089.067.111.212.111.581 0 1.195-.033 1.318-.033.346 0 .826.033 1.184.033.122 0 .189-.022.189-.111 0-.067-.033-.09-.167-.09h-.168c-.346 0-.446-.145-.446-.346 0-.134.056-.402.167-.681l.603-1.597c.023-.067.045-.089.101-.089h2.49zm-2.267-.558c-.045 0-.056-.034-.045-.078l1.028-2.747c.011-.045.033-.101.067-.101.033 0 .044.056.055.101l1.005 2.758c.012.033 0 .067-.055.067h-2.055zm9.94.234c0 1.083 0 1.966-.056 2.435-.033.323-.1.513-.324.558-.1.022-.234.044-.402.044-.134 0-.178.034-.178.09 0 .078.078.111.223.111.447 0 1.15-.033 1.407-.033.302 0 1.005.033 1.742.033.123 0 .212-.033.212-.111 0-.056-.056-.09-.178-.09a4.77 4.77 0 0 1-.57-.044c-.335-.045-.413-.246-.447-.547-.044-.48-.044-1.363-.044-2.446v-1.965c0-1.697 0-2.01.022-2.367.022-.391.112-.581.413-.637.134-.022.224-.033.335-.033.112 0 .179-.023.179-.112 0-.067-.089-.089-.235-.089-.424 0-1.083.033-1.362.033-.324 0-1.027-.033-1.452-.033-.178 0-.268.022-.268.089 0 .089.067.112.179.112.134 0 .279.011.402.044.246.056.357.246.38.626.022.357.022.67.022 2.367v1.965zm9.326 0c0 1.028 0 1.91-.056 2.379-.034.323-.101.569-.324.614a1.856 1.856 0 0 1-.402.044c-.134 0-.179.034-.179.09 0 .078.078.111.224.111.446 0 1.15-.033 1.407-.033.312 0 1.016.033 1.753.033.122 0 .212-.033.212-.111 0-.056-.056-.09-.179-.09-.167 0-.413-.022-.569-.044-.335-.045-.402-.291-.436-.603-.056-.48-.056-1.362-.056-2.39v-4.578l1.407.034c.994.022 1.296.335 1.318.625l.011.123c.011.167.034.223.123.223.067 0 .089-.067.1-.179 0-.29.034-1.06.034-1.295 0-.167-.011-.234-.089-.234-.045 0-.134.022-.302.055a5.238 5.238 0 0 1-.77.056h-4.422c-.369 0-.793-.022-1.117-.056-.279-.022-.391-.133-.48-.133-.067 0-.101.066-.134.212-.022.089-.234 1.105-.234 1.284 0 .123.022.178.1.178.067 0 .101-.044.123-.134.022-.089.078-.223.19-.39.167-.246.435-.302 1.083-.324l1.664-.045v4.578zm10.696-1.652c-.033 0-.067-.023-.067-.078v-.235c0-1.697 0-2.01.023-2.367.022-.391.111-.581.413-.637a2.01 2.01 0 0 1 .324-.033c.134 0 .201-.023.201-.101 0-.078-.079-.1-.235-.1-.435 0-1.139.033-1.407.033-.301 0-1.005-.033-1.608-.033-.156 0-.234.022-.234.1 0 .078.067.101.19.101.156 0 .346.011.435.033.369.078.458.257.48.637.023.357.023.67.023 2.367v1.965c0 1.028 0 1.91-.056 2.379-.045.323-.101.569-.324.614a1.856 1.856 0 0 1-.402.044c-.134 0-.179.034-.179.09 0 .078.078.111.224.111.446 0 1.15-.033 1.407-.033.312 0 1.016.033 1.741.033.134 0 .224-.033.224-.111 0-.056-.056-.09-.179-.09-.167 0-.413-.022-.569-.044-.335-.045-.402-.291-.436-.603-.056-.48-.056-1.362-.056-2.39v-.982c0-.056.034-.067.067-.067h4.266c.033 0 .067.022.067.067v.982c0 1.028 0 1.91-.056 2.379-.045.323-.101.569-.324.614-.1.022-.234.044-.402.044-.134 0-.178.034-.178.09 0 .078.078.111.234.111.435 0 1.139-.033 1.396-.033.312 0 1.016.033 1.742.033.134 0 .223-.033.223-.111 0-.056-.056-.09-.179-.09-.167 0-.413-.022-.569-.044-.335-.045-.402-.291-.436-.603-.055-.48-.055-1.362-.055-2.39v-1.965c0-1.697 0-2.01.022-2.367.022-.391.112-.581.413-.637a2.02 2.02 0 0 1 .324-.033c.134 0 .201-.023.201-.101 0-.078-.078-.1-.235-.1-.435 0-1.139.033-1.407.033-.301 0-1.005-.033-1.607-.033-.157 0-.235.022-.235.1 0 .078.067.101.19.101.156 0 .346.011.435.033.369.078.458.257.48.637.023.357.023.67.023 2.367v.235c0 .055-.034.078-.067.078h-4.266z" fill="#fff"/></svg>