<svg width="25" height="25" fill="none" xmlns="http://www.w3.org/2000/svg"><path d="M12.5 6.542c.628 0 1.136.51 1.136 1.137v3.685h3.685a1.136 1.136 0 0 1 0 2.272h-3.685v3.685a1.136 1.136 0 0 1-2.272 0v-3.685H7.679a1.136 1.136 0 0 1 0-2.272h3.685V7.679c0-.628.508-1.137 1.136-1.137z" fill="#fff"/><path fill-rule="evenodd" clip-rule="evenodd" d="M3.661 21.339c-4.881-4.882-4.881-12.796 0-17.678 4.882-4.881 12.796-4.881 17.678 0 4.881 4.882 4.881 12.796 0 17.678-4.882 4.881-12.796 4.881-17.678 0zm1.607-16.07c-3.994 3.993-3.994 10.469 0 14.463 3.994 3.994 10.47 3.994 14.464 0 3.994-3.994 3.994-10.47 0-14.464-3.994-3.994-10.47-3.994-14.464 0z" fill="#fff"/></svg>