<svg width="18" height="17" fill="none" xmlns="http://www.w3.org/2000/svg"><path fill-rule="evenodd" clip-rule="evenodd" d="M1.175.5a.804.804 0 1 0 0 1.609h2.2l.58 2.897a.801.801 0 0 0 .013.065l1.194 5.965a2.236 2.236 0 0 0 2.226 1.8h6.937a2.235 2.235 0 0 0 2.226-1.8l.002-.006 1.144-6a.805.805 0 0 0-.79-.955H5.41l-.586-2.928A.804.804 0 0 0 4.034.5h-2.86zm4.557 5.184h10.202l-.961 5.041a.626.626 0 0 1-.626.501H7.367a.626.626 0 0 1-.626-.503L5.732 5.684z" fill="#222"/><path d="M5.644 15.427a1.073 1.073 0 1 1 2.145 0 1.073 1.073 0 0 1-2.145 0zm7.866 0a1.073 1.073 0 1 1 2.145 0 1.073 1.073 0 0 1-2.145 0z" fill="#222"/></svg>