<svg width="18" height="16" fill="none" xmlns="http://www.w3.org/2000/svg"><path opacity=".5" d="M13.777.5h-4c-1.93 0-3.5 1.57-3.5 3.5a3.505 3.505 0 0 0 3 3.464V9a.5.5 0 0 0 .853.354L11.984 7.5h1.793c1.93 0 3.533-1.57 3.533-3.5S15.706.5 13.777.5zm-4 4a.5.5 0 1 1 0-1 .5.5 0 0 1 0 1zm2 0a.5.5 0 1 1 0-1 .5.5 0 0 1 0 1zm2 0a.5.5 0 1 1 0-1 .5.5 0 0 1 0 1z" fill="#444"/><path d="M11.477 15.5c.827 0 1.5-.673 1.5-1.5v-2a.5.5 0 0 0-.342-.474l-2.993-1a.5.5 0 0 0-.436.058l-1.272.848c-1.348-.643-2.947-2.242-3.59-3.59l.849-1.272a.5.5 0 0 0 .058-.435l-1-2.993a.5.5 0 0 0-.474-.342H1.743c-.827 0-1.5.666-1.5 1.493 0 5.76 5.473 11.207 11.234 11.207z" fill="#444"/></svg>