<svg width="15" height="15" fill="none" xmlns="http://www.w3.org/2000/svg"><path d="M6.25 6.406c.259 0 .469.21.469.469v3.75a.469.469 0 1 1-.938 0v-3.75c0-.259.21-.469.469-.469zm2.969.469a.469.469 0 0 0-.938 0v3.75a.469.469 0 1 0 .938 0v-3.75z" fill="#6A6A6A"/><path fill-rule="evenodd" clip-rule="evenodd" d="M9.965 1.285c.323.322.504.76.504 1.215v.781h2.656a.469.469 0 1 1 0 .938h-.781V12.5a1.718 1.718 0 0 1-1.719 1.719h-6.25A1.719 1.719 0 0 1 2.656 12.5V4.219h-.781a.469.469 0 0 1 0-.938h2.656V2.5A1.719 1.719 0 0 1 6.25.781h2.5c.456 0 .893.181 1.215.504zm-4.267.663a.781.781 0 0 1 .552-.23h2.5a.781.781 0 0 1 .781.782v.781H5.47V2.5c0-.207.082-.406.229-.552zM3.823 13.052a.781.781 0 0 1-.23-.552V4.219h7.813V12.5a.781.781 0 0 1-.781.781h-6.25a.781.781 0 0 1-.552-.229z" fill="#6A6A6A"/></svg>