<svg viewBox="0 0 36 36" fill="none" xmlns="http://www.w3.org/2000/svg"><path d="M23.55 13.889l9.418-9.35-.034 5.309c0 .205.08.394.24.565.16.171.342.257.548.257h.582c.228-.023.416-.097.565-.223a.73.73 0 0 0 .257-.496V2.04l-.035-.035.069-.41c0-.229-.069-.412-.205-.549a.754.754 0 0 0-.548-.24l-.411.035h-.035L26.12.807a.843.843 0 0 0-.582.24.844.844 0 0 0-.24.582v.548c.023.25.125.45.308.599a.953.953 0 0 0 .617.222h5.17l-9.383 9.35a.993.993 0 0 0-.342.77c0 .309.114.565.342.77.388.412.834.469 1.336.172.068-.068.137-.125.205-.171zm-11.883 8.835l-9.418 9.35.034-5.308a.812.812 0 0 0-.24-.565.732.732 0 0 0-.547-.257H.879a3.973 3.973 0 0 0-.291.085c-.103.035-.194.08-.274.137a.472.472 0 0 0-.171.223 2.516 2.516 0 0 0-.086.274v7.91l.034.035-.068.411c0 .114.017.217.051.308a.665.665 0 0 0 .154.24c.16.16.343.24.548.24l.411-.035h.035l7.876.035c.229 0 .423-.08.582-.24.16-.16.24-.354.24-.582v-.548a.836.836 0 0 0-.308-.6.952.952 0 0 0-.616-.222H3.824l9.384-9.35c.114-.114.2-.233.257-.359a.98.98 0 0 0 .085-.41c0-.15-.028-.292-.085-.429a.85.85 0 0 0-.257-.343 1.157 1.157 0 0 0-.48-.29.953.953 0 0 0-.565 0c-.194.056-.36.153-.496.29zm23.459 3.939a.73.73 0 0 0-.257-.497 1.005 1.005 0 0 0-.565-.222h-.582a.755.755 0 0 0-.548.24.793.793 0 0 0-.24.582l.034 5.308-9.418-9.35a1.147 1.147 0 0 0-.496-.29.953.953 0 0 0-.565 0 1.157 1.157 0 0 0-.48.29.993.993 0 0 0-.342.771c0 .308.114.565.342.77l9.384 9.35h-5.171c-.16 0-.303.029-.428.085a.785.785 0 0 0-.326.292 1.065 1.065 0 0 0-.171.445v.548c0 .16.04.302.12.428.08.125.177.223.29.291a.784.784 0 0 0 .412.103l7.842-.035h.035l.41.035c.206 0 .389-.08.549-.24.136-.137.205-.32.205-.548l-.069-.41h.035v-7.946zM3.824 2.998h5.172a.952.952 0 0 0 .616-.222.836.836 0 0 0 .308-.6V1.63a.793.793 0 0 0-.24-.583.793.793 0 0 0-.582-.24L1.222.842h-.035L.777.807a.754.754 0 0 0-.549.24.666.666 0 0 0-.154.24.873.873 0 0 0-.051.307l.068.411H.074l-.017.035v7.91a.73.73 0 0 0 .257.497c.148.126.337.2.565.223h.617c.137 0 .268-.04.393-.12a.837.837 0 0 0 .394-.702L2.25 4.54l9.418 9.349a.994.994 0 0 0 .77.342c.309 0 .571-.108.788-.325.217-.217.325-.48.325-.788a.994.994 0 0 0-.342-.77l-9.384-9.35z" fill="#444"/></svg>