<svg viewBox="0 0 25 25" fill="none" xmlns="http://www.w3.org/2000/svg"><path d="M13.426.926a.926.926 0 1 0-1.852 0v13.197l-4.85-4.85a.926.926 0 0 0-1.309 1.31l6.43 6.43a.926.926 0 0 0 1.31 0l6.43-6.43a.926.926 0 1 0-1.31-1.31l-4.85 4.85V.926z" fill="#fff"/><path d="M1.852 16.358a.926.926 0 1 0-1.852 0v5.144A3.498 3.498 0 0 0 3.498 25h18.004A3.498 3.498 0 0 0 25 21.502v-5.144a.926.926 0 0 0-1.852 0v5.144a1.646 1.646 0 0 1-1.646 1.646H3.498a1.646 1.646 0 0 1-1.646-1.646v-5.144z" fill="#fff"/></svg>