<svg width="17" height="16" fill="none" xmlns="http://www.w3.org/2000/svg"><path d="M15.978 7.164L8.898.712a.806.806 0 0 0-1.09 0L.727 7.164a.804.804 0 0 0-.21.89.804.804 0 0 0 .755.518c.625 0 1.13.506 1.13 1.13v5.334c0 .256.209.464.465.464h3.881a.464.464 0 0 0 .464-.464v-2.784a1.14 1.14 0 0 1 2.281 0v2.784c0 .256.208.464.464.464h3.881a.464.464 0 0 0 .464-.464V9.703c0-.625.507-1.131 1.131-1.131a.804.804 0 0 0 .755-.517.805.805 0 0 0-.21-.89z" fill="#444"/><path opacity=".5" d="M14.18 1.426h-2.34a.3.3 0 0 0-.202.522l2.505 2.278a.3.3 0 0 0 .502-.222V1.89a.464.464 0 0 0-.464-.464z" fill="#444"/></svg>