<svg viewBox="0 0 29 36" fill="none" xmlns="http://www.w3.org/2000/svg"><path d="M6.433 6.49a.75.75 0 1 0 0 1.5h7.578a.75.75 0 1 0 0-1.5H6.433zm0 5.684a.75.75 0 0 0 0 1.5h7.578a.75.75 0 1 0 0-1.5H6.433zm0 5.683a.75.75 0 0 0 0 1.5h15.156a.75.75 0 0 0 0-1.5H6.433zm0 5.684a.75.75 0 0 0 0 1.5h15.156a.75.75 0 0 0 0-1.5H6.433zm0 5.683a.75.75 0 0 0 0 1.5h15.156a.75.75 0 0 0 0-1.5H6.433z" fill="#444"/><path fill-rule="evenodd" clip-rule="evenodd" d="M2.644.807A2.645 2.645 0 0 0 0 3.45v29.714a2.644 2.644 0 0 0 2.644 2.644h22.734a2.644 2.644 0 0 0 2.645-2.644V9.012a.75.75 0 0 0-.22-.53l-7.455-7.456a.75.75 0 0 0-.53-.22H2.644zm17.921 2.558l5.12 5.12h-5.128l.008-5.12zM1.5 3.45c0-.632.512-1.144 1.144-1.144h16.423l-.011 6.926a.75.75 0 0 0 .75.751h6.717v23.18c0 .633-.512 1.145-1.145 1.145H2.644A1.144 1.144 0 0 1 1.5 33.165V3.45z" fill="#444"/></svg>